<svg width="787" height="663" viewBox="0 0 787 663" fill="none" xmlns="http://www.w3.org/2000/svg">
<path opacity="0.939848" fill-rule="evenodd" clip-rule="evenodd" d="M707.757 348.964C707.757 522.177 567.343 662.597 394.135 662.597C220.925 662.597 80.512 522.177 80.512 348.964C80.512 175.751 220.925 35.3311 394.135 35.3311C567.343 35.3311 707.757 175.751 707.757 348.964Z" fill="#7F3DD2"/>
<mask id="mask0" mask-type="alpha" maskUnits="userSpaceOnUse" x="0" y="0" width="787" height="641">
<path fill-rule="evenodd" clip-rule="evenodd" d="M0 0H786.299V640.852H0V0Z" fill="white"/>
</mask>
<g mask="url(#mask0)">
<path opacity="0.676107" fill-rule="evenodd" clip-rule="evenodd" d="M774.722 378.019C751.858 335.03 747.885 284.334 763.831 237.621C774.163 207.355 775.778 160.603 767.253 129.578C739.854 29.9056 613.143 -29.4803 490.967 14.8898C378.947 55.5711 351.52 223.414 265.507 205.168C63.2045 162.253 -9.66075 306.456 1.01063 423.845C7.90352 499.671 71.4957 593.457 207.335 583.609C247.329 580.709 286.607 590.542 320.453 610.116C378.255 643.545 470.126 651.383 565.568 625.147C709.127 585.685 806.37 484.09 782.77 398.229C780.828 391.159 778.126 384.417 774.722 378.019Z" fill="#845AFD"/>
</g>
</svg>
