<svg width="32" height="36" viewBox="0 0 32 36" fill="none" xmlns="http://www.w3.org/2000/svg">
<path fill-rule="evenodd" clip-rule="evenodd" d="M13.4947 1.45341C13.2519 1.11064 13.3813 0.763784 13.327 0.443454C13.2956 0.256968 13.1822 -0.0539767 13.0765 0.00804906C12.3277 0.448351 11.3181 -0.261682 10.6791 0.567914C8.0842 3.93363 4.5875 6.4012 1.7539 9.52901C1.55435 9.74896 1.34094 9.95544 1.13935 10.1733C-0.0260792 11.4302 -0.025671 11.4306 1.40051 12.2439C2.86791 13.0808 3.01114 13.0861 4.40428 11.9701C7.29868 9.65143 10.1808 7.31648 12.9398 4.83627C13.8004 4.06299 14.5814 3.20687 14.7724 1.99492C14.8238 1.6705 14.8446 1.32895 14.8022 1.00577C14.7646 0.722162 14.6691 0.362249 14.3215 0.334501C13.9603 0.305936 14.0191 0.679723 13.9444 0.909055C13.8759 1.1188 13.8216 1.33752 13.4947 1.45341Z" fill="white"/>
<path fill-rule="evenodd" clip-rule="evenodd" d="M24.7312 14.8088C23.2805 14.9015 22.0445 15.5687 20.8329 16.2999C18.2021 17.8885 15.8435 19.8872 13.1605 21.3987C12.6418 21.6908 12.6467 21.9593 13.1221 22.4037C14.5038 23.6944 15.846 23.1101 17.1456 22.3743C19.7544 20.8972 22.3211 19.3465 24.9127 17.8399C25.5844 17.4494 26.2814 17.1022 26.9743 16.7492C27.3746 16.5447 27.4354 16.1987 27.4056 15.8119C27.3746 15.4115 27.1224 15.3099 26.7474 15.2149C26.0806 15.0455 25.4383 14.7835 24.7312 14.8088Z" fill="white"/>
<path fill-rule="evenodd" clip-rule="evenodd" d="M26.2737 35.7941C27.7933 35.7941 29.3125 35.801 30.8317 35.79C31.3153 35.7863 31.8262 35.7827 31.9772 35.1567C32.1147 34.585 31.5981 34.5393 31.3059 34.2944C30.7424 33.8219 30.0829 33.6036 29.3811 33.4955C26.3279 33.0233 23.2723 32.8213 20.2082 33.424C19.8768 33.4897 19.5255 33.4816 19.3774 33.8533C19.2096 34.2732 19.6198 34.3875 19.7944 34.645C20.6089 35.8471 21.8062 35.8475 23.0524 35.8088C24.1252 35.7757 25.2 35.8022 26.2737 35.8022V35.7941Z" fill="white"/>
</svg>
