<svg width="92" height="56" viewBox="0 0 92 56" fill="none" xmlns="http://www.w3.org/2000/svg">
<path d="M2.88892 37.4116C2.88892 37.4116 24.4514 53.8402 46.0139 53.8402C67.5764 53.8402 89.1389 37.4116 89.1389 37.4116" stroke="white" stroke-width="4"/>
<path d="M19.6582 14.6887C19.6582 16.1147 19.2552 17.334 18.4492 18.3467C17.6432 19.3593 16.4859 20.062 14.9772 20.4547L20.3712 28.6387H15.5972L11.1642 20.7957H8.37424V28.6387H4.71624V8.51967H12.1562C14.5329 8.51967 16.3826 9.088 17.7052 10.2247C19.0072 11.32 19.6582 12.808 19.6582 14.6887ZM11.8152 18.3467C13.1586 18.3467 14.1712 18.047 14.8532 17.4477C15.5352 16.8277 15.8762 16.0217 15.8762 15.0297C15.8762 14.017 15.5662 13.211 14.9462 12.6117C14.3262 11.9917 13.3962 11.6817 12.1562 11.6817H8.37424V18.3467H11.8152ZM23.8797 13.5417H27.5377V28.6387H23.8797V13.5417ZM23.4457 8.70567C23.4457 8.04434 23.642 7.52767 24.0347 7.15567C24.4273 6.763 24.9853 6.56667 25.7087 6.56667C26.4113 6.56667 26.959 6.763 27.3517 7.15567C27.765 7.52767 27.9717 8.04434 27.9717 8.70567C27.9717 9.36701 27.765 9.89401 27.3517 10.2867C26.959 10.6587 26.4113 10.8447 25.7087 10.8447C24.9853 10.8447 24.4273 10.6587 24.0347 10.2867C23.642 9.89401 23.4457 9.36701 23.4457 8.70567ZM35.9928 15.6187C36.9434 13.986 38.3901 13.1697 40.3328 13.1697C42.1928 13.1697 43.7841 13.8723 45.1068 15.2777C46.5121 16.7657 47.2148 18.7083 47.2148 21.1057C47.2148 23.5237 46.5018 25.4767 45.0758 26.9647C43.7531 28.37 42.1721 29.0727 40.3328 29.0727C38.4934 29.0727 37.1501 28.525 36.3028 27.4297V35.9857H32.6448V13.5727H35.6518L35.9928 15.6187ZM39.6818 25.7557C40.1158 25.7557 40.5601 25.6627 41.0148 25.4767C41.4901 25.2907 41.9138 25.0013 42.2858 24.6087C43.1124 23.7407 43.5258 22.5833 43.5258 21.1367C43.5258 19.6693 43.1641 18.5223 42.4408 17.6957C41.7381 16.869 40.8701 16.4557 39.8368 16.4557C38.8241 16.4557 37.9871 16.7553 37.3258 17.3547C36.6851 17.9333 36.3441 18.7703 36.3028 19.8657V22.5627C36.3028 23.534 36.6438 24.3193 37.3258 24.9187C37.9664 25.4767 38.7518 25.7557 39.6818 25.7557ZM53.8169 15.6187C54.7676 13.986 56.2142 13.1697 58.1569 13.1697C60.0169 13.1697 61.6082 13.8723 62.9309 15.2777C64.3362 16.7657 65.0389 18.7083 65.0389 21.1057C65.0389 23.5237 64.3259 25.4767 62.8999 26.9647C61.5772 28.37 59.9962 29.0727 58.1569 29.0727C56.3176 29.0727 54.9742 28.525 54.1269 27.4297V35.9857H50.4689V13.5727H53.4759L53.8169 15.6187ZM57.5059 25.7557C57.9399 25.7557 58.3842 25.6627 58.8389 25.4767C59.3142 25.2907 59.7379 25.0013 60.1099 24.6087C60.9366 23.7407 61.3499 22.5833 61.3499 21.1367C61.3499 19.6693 60.9882 18.5223 60.2649 17.6957C59.5622 16.869 58.6942 16.4557 57.6609 16.4557C56.6482 16.4557 55.8112 16.7553 55.1499 17.3547C54.5092 17.9333 54.1682 18.7703 54.1269 19.8657V22.5627C54.1269 23.534 54.4679 24.3193 55.1499 24.9187C55.7906 25.4767 56.5759 25.7557 57.5059 25.7557ZM68.293 7.37267H71.951V28.6387H68.293V7.37267ZM87.1203 15.3707C87.6369 16.032 88.0193 16.7967 88.2673 17.6647C88.5359 18.5327 88.6703 19.3283 88.6703 20.0517C88.6703 20.775 88.6289 21.426 88.5463 22.0047H78.8123C78.8536 23.224 79.1533 24.216 79.7113 24.9807C80.2693 25.7453 81.1166 26.1277 82.2533 26.1277C83.7619 26.1277 84.6609 25.4663 84.9503 24.1437H88.6393C88.3913 25.6523 87.6989 26.8407 86.5623 27.7087C85.3843 28.618 83.9479 29.0727 82.2533 29.0727C80.2693 29.0727 78.6056 28.3493 77.2623 26.9027C75.8776 25.394 75.1853 23.4617 75.1853 21.1057C75.1853 18.6877 75.8776 16.745 77.2623 15.2777C78.5849 13.8723 80.2486 13.1697 82.2533 13.1697C84.3406 13.1697 85.9629 13.9033 87.1203 15.3707ZM82.2843 16.0837C81.2509 16.0837 80.4449 16.4247 79.8663 17.1067C79.2876 17.768 78.9466 18.6257 78.8433 19.6797H85.2603C85.2603 18.047 84.7436 16.9517 83.7103 16.3937C83.3176 16.187 82.8423 16.0837 82.2843 16.0837Z" fill="white"/>
</svg>
