<svg width="33" height="37" viewBox="0 0 33 37" fill="none" xmlns="http://www.w3.org/2000/svg">
<path fill-rule="evenodd" clip-rule="evenodd" d="M13.3976 1.47527C13.1511 1.12734 13.2824 0.775271 13.2273 0.450123C13.1954 0.260833 13.0803 -0.0547885 12.973 0.00817011C12.213 0.455093 11.1882 -0.265617 10.5396 0.576454C7.90568 3.99279 4.35639 6.49746 1.48018 9.67231C1.27763 9.89557 1.06101 10.1052 0.856392 10.3263C-0.326567 11.6021 -0.326152 11.6025 1.12148 12.428C2.61095 13.2775 2.75633 13.2829 4.17042 12.1501C7.10835 9.79657 10.0338 7.42651 12.8343 4.909C13.7078 4.12409 14.5006 3.25509 14.6944 2.02492C14.7466 1.69563 14.7678 1.34894 14.7247 1.02089C14.6866 0.733022 14.5896 0.367697 14.2367 0.339531C13.8702 0.310537 13.9298 0.689945 13.854 0.922726C13.7844 1.13563 13.7294 1.35764 13.3976 1.47527Z" fill="black"/>
<path fill-rule="evenodd" clip-rule="evenodd" d="M24.8031 15.0314C23.3306 15.1254 22.076 15.8026 20.8462 16.5449C18.1759 18.1574 15.7818 20.1861 13.0584 21.7203C12.532 22.0169 12.5369 22.2894 13.0195 22.7405C14.422 24.0506 15.7843 23.4575 17.1035 22.7107C19.7515 21.2113 22.3568 19.6373 24.9874 18.1081C25.6692 17.7117 26.3766 17.3592 27.0799 17.0009C27.4863 16.7934 27.548 16.4422 27.5178 16.0495C27.4863 15.6432 27.2303 15.54 26.8496 15.4435C26.1728 15.2716 25.5209 15.0057 24.8031 15.0314Z" fill="black"/>
<path fill-rule="evenodd" clip-rule="evenodd" d="M26.3687 36.3327C27.9112 36.3327 29.4532 36.3397 30.9953 36.3285C31.4861 36.3248 32.0047 36.3211 32.158 35.6857C32.2976 35.1054 31.7732 35.059 31.4766 34.8105C30.9046 34.3308 30.2353 34.1092 29.5228 33.9995C26.4238 33.5202 23.3222 33.3152 20.212 33.927C19.8757 33.9937 19.519 33.9854 19.3687 34.3627C19.1985 34.7889 19.6147 34.9049 19.792 35.1663C20.6187 36.3865 21.834 36.3869 23.099 36.3476C24.1879 36.314 25.2789 36.3409 26.3687 36.3409V36.3327Z" fill="black"/>
</svg>
