<svg width="40" height="45" viewBox="0 0 40 45" fill="none" xmlns="http://www.w3.org/2000/svg">
<path fill-rule="evenodd" clip-rule="evenodd" d="M32.7641 44.9631C34.6843 44.9631 36.6041 44.9731 38.5238 44.9572C39.1348 44.9519 39.7804 44.9466 39.9712 44.0424C40.1449 43.2167 39.4921 43.1507 39.1229 42.797C38.4108 42.1145 37.5776 41.7992 36.6907 41.643C32.8327 40.961 28.9716 40.6693 25.0997 41.5398C24.681 41.6347 24.2371 41.6229 24.0499 42.1599C23.838 42.7664 24.3562 42.9314 24.5769 43.3033C25.6061 45.0397 27.1189 45.0403 28.6937 44.9843C30.0493 44.9365 31.4075 44.9749 32.7641 44.9749V44.9631Z" fill="#6600CD"/>
<path fill-rule="evenodd" clip-rule="evenodd" d="M30.5215 18.0022C28.6393 18.1241 27.0355 19.0022 25.4636 19.9645C22.0501 22.0551 18.9899 24.6854 15.5087 26.6746C14.8357 27.0591 14.8421 27.4124 15.4589 27.9972C17.2517 29.6958 18.9931 28.9268 20.6794 27.9586C24.0642 26.0146 27.3945 23.9739 30.7571 21.9912C31.6286 21.4773 32.5329 21.0203 33.4319 20.5558C33.9513 20.2867 34.0302 19.8313 33.9916 19.3222C33.9513 18.7954 33.6241 18.6617 33.1375 18.5366C32.2724 18.3137 31.439 17.9689 30.5215 18.0022Z" fill="#6600CD"/>
<path fill-rule="evenodd" clip-rule="evenodd" d="M16.352 1.81071C16.0512 1.38367 16.2115 0.951549 16.1442 0.55247C16.1053 0.32014 15.9648 -0.0672461 15.8338 0.0100278C14.9062 0.55857 13.6555 -0.326012 12.8638 0.707526C9.64908 4.90065 5.31711 7.97483 1.80664 11.8716C1.55944 12.1456 1.29504 12.4028 1.0453 12.6743C-0.398518 14.2401 -0.398012 14.2406 1.36885 15.2538C3.18677 16.2965 3.36421 16.3031 5.09012 14.9127C8.67591 12.0241 12.2465 9.11512 15.6645 6.02519C16.7307 5.06181 17.6983 3.99522 17.9349 2.48533C17.9986 2.08117 18.0243 1.65566 17.9718 1.25302C17.9253 0.899694 17.807 0.451302 17.3762 0.416732C16.9288 0.381146 17.0016 0.846822 16.9091 1.13253C16.8242 1.39384 16.757 1.66633 16.352 1.81071Z" fill="#6600CD"/>
</svg>
