<svg width="33" height="37" viewBox="0 0 33 37" fill="none" xmlns="http://www.w3.org/2000/svg">
<path fill-rule="evenodd" clip-rule="evenodd" d="M18.7836 1.47527C19.03 1.12734 18.8987 0.775271 18.9538 0.450123C18.9857 0.260833 19.1009 -0.0547885 19.2081 0.00817011C19.9682 0.455093 20.9929 -0.265617 21.6416 0.576454C24.2755 3.99279 27.8248 6.49746 30.701 9.67231C30.9035 9.89557 31.1201 10.1052 31.3248 10.3263C32.5077 11.6021 32.5073 11.6025 31.0597 12.428C29.5702 13.2775 29.4248 13.2829 28.0107 12.1501C25.0728 9.79657 22.1473 7.42651 19.3469 4.909C18.4733 4.12409 17.6806 3.25509 17.4867 2.02492C17.4345 1.69563 17.4134 1.34894 17.4565 1.02089C17.4946 0.733022 17.5915 0.367697 17.9444 0.339531C18.311 0.310537 18.2513 0.689945 18.3271 0.922726C18.3967 1.13563 18.4518 1.35764 18.7836 1.47527Z" fill="black"/>
<path fill-rule="evenodd" clip-rule="evenodd" d="M7.37801 15.0314C8.8505 15.1254 10.1051 15.8026 11.3349 16.5449C14.0052 18.1574 16.3993 20.1861 19.1227 21.7203C19.6491 22.0169 19.6442 22.2894 19.1616 22.7405C17.7591 24.0506 16.3968 23.4575 15.0776 22.7107C12.4296 21.2113 9.82429 19.6373 7.19369 18.1081C6.51192 17.7117 5.80446 17.3592 5.10115 17.0009C4.69482 16.7934 4.6331 16.4422 4.66334 16.0495C4.69482 15.6432 4.95079 15.54 5.33145 15.4435C6.00825 15.2716 6.6602 15.0057 7.37801 15.0314Z" fill="black"/>
<path fill-rule="evenodd" clip-rule="evenodd" d="M5.81246 36.3327C4.26998 36.3327 2.72791 36.3397 1.18584 36.3285C0.695007 36.3248 0.176427 36.3211 0.023173 35.6857C-0.116413 35.1054 0.407966 35.059 0.704534 34.8105C1.27655 34.3308 1.94589 34.1092 2.65832 33.9995C5.75737 33.5202 8.85891 33.3152 11.9691 33.927C12.3055 33.9937 12.6621 33.9854 12.8125 34.3627C12.9827 34.7889 12.5664 34.9049 12.3891 35.1663C11.5624 36.3865 10.3471 36.3869 9.08217 36.3476C7.99323 36.314 6.90223 36.3409 5.81246 36.3409V36.3327Z" fill="black"/>
</svg>
