<svg width="40" height="45" viewBox="0 0 40 45" fill="none" xmlns="http://www.w3.org/2000/svg">
<path fill-rule="evenodd" clip-rule="evenodd" d="M7.23588 44.9631C5.31565 44.9631 3.39595 44.9731 1.47624 44.9572C0.865208 44.9519 0.219633 44.9466 0.0288478 44.0424C-0.144921 43.2167 0.507873 43.1507 0.877068 42.797C1.58916 42.1145 2.42243 41.7992 3.30932 41.643C7.1673 40.961 11.0284 40.6693 14.9003 41.5398C15.319 41.6347 15.7629 41.6229 15.9501 42.1599C16.162 42.7664 15.6438 42.9314 15.4231 43.3033C14.3939 45.0397 12.8811 45.0403 11.3063 44.9843C9.9507 44.9365 8.59251 44.9749 7.23588 44.9749V44.9631Z" fill="#6600CD"/>
<path fill-rule="evenodd" clip-rule="evenodd" d="M9.47851 18.0022C11.3607 18.1241 12.9645 19.0022 14.5364 19.9645C17.9499 22.0551 21.0101 24.6854 24.4913 26.6746C25.1643 27.0591 25.1579 27.4124 24.5411 27.9972C22.7483 29.6958 21.0069 28.9268 19.3206 27.9586C15.9358 26.0146 12.6055 23.9739 9.2429 21.9912C8.37141 21.4773 7.4671 21.0203 6.56808 20.5558C6.04868 20.2867 5.96979 19.8313 6.00844 19.3222C6.04868 18.7954 6.37588 18.6617 6.86245 18.5366C7.72759 18.3137 8.56096 17.9689 9.47851 18.0022Z" fill="#6600CD"/>
<path fill-rule="evenodd" clip-rule="evenodd" d="M23.648 1.81071C23.9488 1.38367 23.7885 0.951549 23.8558 0.55247C23.8947 0.32014 24.0352 -0.0672461 24.1662 0.0100278C25.0938 0.55857 26.3445 -0.326012 27.1362 0.707526C30.3509 4.90065 34.6829 7.97483 38.1934 11.8716C38.4406 12.1456 38.705 12.4028 38.9547 12.6743C40.3985 14.2401 40.398 14.2406 38.6312 15.2538C36.8132 16.2965 36.6358 16.3031 34.9099 14.9127C31.3241 12.0241 27.7535 9.11512 24.3355 6.02519C23.2693 5.06181 22.3017 3.99522 22.0651 2.48533C22.0014 2.08117 21.9757 1.65566 22.0282 1.25302C22.0747 0.899694 22.193 0.451302 22.6238 0.416732C23.0712 0.381146 22.9984 0.846822 23.0909 1.13253C23.1758 1.39384 23.243 1.66633 23.648 1.81071Z" fill="#6600CD"/>
</svg>
