<svg width="85" height="48" viewBox="0 0 85 48" fill="none" xmlns="http://www.w3.org/2000/svg">
<path d="M3 32C3 32 21.25 46 39.5 46C57.75 46 76 32 76 32" stroke="#5A00B4" stroke-width="4"/>
<path d="M15.525 12.85C15.525 14.092 15.174 15.154 14.472 16.036C13.77 16.918 12.762 17.53 11.448 17.872L16.146 25H11.988L8.127 18.169H5.697V25H2.511V7.477H8.991C11.061 7.477 12.672 7.972 13.824 8.962C14.958 9.916 15.525 11.212 15.525 12.85ZM8.694 16.036C9.864 16.036 10.746 15.775 11.34 15.253C11.934 14.713 12.231 14.011 12.231 13.147C12.231 12.265 11.961 11.563 11.421 11.041C10.881 10.501 10.071 10.231 8.991 10.231H5.697V16.036H8.694ZM19.5118 11.851H22.6978V25H19.5118V11.851ZM19.1338 7.639C19.1338 7.063 19.3048 6.613 19.6468 6.289C19.9888 5.947 20.4748 5.776 21.1048 5.776C21.7168 5.776 22.1938 5.947 22.5358 6.289C22.8958 6.613 23.0758 7.063 23.0758 7.639C23.0758 8.215 22.8958 8.674 22.5358 9.016C22.1938 9.34 21.7168 9.502 21.1048 9.502C20.4748 9.502 19.9888 9.34 19.6468 9.016C19.3048 8.674 19.1338 8.215 19.1338 7.639ZM30.372 13.66C31.2 12.238 32.46 11.527 34.152 11.527C35.772 11.527 37.158 12.139 38.31 13.363C39.534 14.659 40.146 16.351 40.146 18.439C40.146 20.545 39.525 22.246 38.283 23.542C37.131 24.766 35.754 25.378 34.152 25.378C32.55 25.378 31.38 24.901 30.642 23.947V31.399H27.456V11.878H30.075L30.372 13.66ZM33.585 22.489C33.963 22.489 34.35 22.408 34.746 22.246C35.16 22.084 35.529 21.832 35.853 21.49C36.573 20.734 36.933 19.726 36.933 18.466C36.933 17.188 36.618 16.189 35.988 15.469C35.376 14.749 34.62 14.389 33.72 14.389C32.838 14.389 32.109 14.65 31.533 15.172C30.975 15.676 30.678 16.405 30.642 17.359V19.708C30.642 20.554 30.939 21.238 31.533 21.76C32.091 22.246 32.775 22.489 33.585 22.489ZM46.2064 13.66C47.0344 12.238 48.2944 11.527 49.9864 11.527C51.6064 11.527 52.9924 12.139 54.1444 13.363C55.3684 14.659 55.9804 16.351 55.9804 18.439C55.9804 20.545 55.3594 22.246 54.1174 23.542C52.9654 24.766 51.5884 25.378 49.9864 25.378C48.3844 25.378 47.2144 24.901 46.4764 23.947V31.399H43.2904V11.878H45.9094L46.2064 13.66ZM49.4194 22.489C49.7974 22.489 50.1844 22.408 50.5804 22.246C50.9944 22.084 51.3634 21.832 51.6874 21.49C52.4074 20.734 52.7674 19.726 52.7674 18.466C52.7674 17.188 52.4524 16.189 51.8224 15.469C51.2104 14.749 50.4544 14.389 49.5544 14.389C48.6724 14.389 47.9434 14.65 47.3674 15.172C46.8094 15.676 46.5124 16.405 46.4764 17.359V19.708C46.4764 20.554 46.7734 21.238 47.3674 21.76C47.9254 22.246 48.6094 22.489 49.4194 22.489ZM59.1247 6.478H62.3107V25H59.1247V6.478ZM75.8327 13.444C76.2827 14.02 76.6157 14.686 76.8317 15.442C77.0657 16.198 77.1827 16.891 77.1827 17.521C77.1827 18.151 77.1467 18.718 77.0747 19.222H68.5967C68.6327 20.284 68.8937 21.148 69.3797 21.814C69.8657 22.48 70.6037 22.813 71.5937 22.813C72.9077 22.813 73.6907 22.237 73.9427 21.085H77.1557C76.9397 22.399 76.3367 23.434 75.3467 24.19C74.3207 24.982 73.0697 25.378 71.5937 25.378C69.8657 25.378 68.4167 24.748 67.2467 23.488C66.0407 22.174 65.4377 20.491 65.4377 18.439C65.4377 16.333 66.0407 14.641 67.2467 13.363C68.3987 12.139 69.8477 11.527 71.5937 11.527C73.4117 11.527 74.8247 12.166 75.8327 13.444ZM71.6207 14.065C70.7207 14.065 70.0187 14.362 69.5147 14.956C69.0107 15.532 68.7137 16.279 68.6237 17.197H74.2127C74.2127 15.775 73.7627 14.821 72.8627 14.335C72.5207 14.155 72.1067 14.065 71.6207 14.065Z" fill="#5A00B4"/>
</svg>
