<svg width="461" height="611" viewBox="0 0 461 611" fill="none" xmlns="http://www.w3.org/2000/svg">
<path fill-rule="evenodd" clip-rule="evenodd" d="M239.188 433.707C242.952 433.707 246.261 434.281 249.272 433.583C254.847 432.291 262.348 420.932 261.92 415.164C261.857 414.281 261.567 412.995 260.957 412.641C258.161 411.035 255.211 409.694 252.319 408.256C250.602 411.212 245.287 407.897 244.561 412.793C244.263 414.811 239.654 413.522 240.882 417.101C237.905 422.394 240.085 428.03 239.188 433.707ZM224.476 410.774C225.381 409.223 226.557 407.79 227.117 406.148C229.148 400.198 234.422 397.91 239.486 396.481C243.005 395.487 246.75 394.301 250.796 394.585C259.986 395.233 266.441 399.547 271.039 407.338C273.183 410.97 275.198 414.643 276.103 418.733C276.713 421.501 277.461 424.708 276.647 427.233C273.487 437.038 268.097 445.268 257.897 449.165C255.087 450.236 252.165 451.022 249.278 451.891C248.82 452.032 248.205 452.085 247.799 451.886C240.403 448.293 233.255 444.2 228.961 436.914C227.117 433.787 225.409 430.169 225.861 426.237C226.408 421.468 224.371 416.45 227.219 411.908C226.367 411.555 225.511 411.201 224.476 410.774Z" fill="#EFDFFF"/>
<path fill-rule="evenodd" clip-rule="evenodd" d="M4.56753 499.136C2.17757 498.593 0.78389 497.591 1.64218 494.765C2.01199 494.594 2.66605 494.42 3.17661 494.047C8.05036 490.526 14.0446 489.999 19.531 488.252C21.9237 487.49 25.7212 488.172 27.7247 489.706C33.9535 494.481 40.864 498.626 43.8114 506.82C46.2456 513.584 45.2631 522.266 40.9634 527.799C38.4685 531.012 34.9747 533.029 32.4053 536.294C28.1939 535.612 23.7562 537.323 19.5669 534.79C17.6102 533.606 9.09079 529.102 7.42389 527.857C3.5409 524.957 2.02579 520.712 0.574147 516.41C0.273332 515.521 -0.204107 514.39 0.0967073 513.655C2.02303 508.942 0.651421 503.279 4.56753 499.136Z" fill="#EFDFFF"/>
<path fill-rule="evenodd" clip-rule="evenodd" d="M344.536 344.084C350.516 349.789 360.507 352.971 368.72 352.659C372.655 352.513 375.627 351.13 378.235 348.437C379.745 346.877 381.293 345.359 382.864 343.786C381.972 342.558 381.172 341.879 380.921 341.035C379.756 337.16 377.637 334.729 373.257 334.398C371.27 334.249 369.388 332.952 367.403 332.355C366.106 331.966 363.824 331.312 363.504 331.79C361.691 334.511 360.705 330.244 358.329 332.314C356.96 333.6 354.673 335.75 352.371 337.911C350.511 336.448 349.045 335.295 347.748 334.276C343.035 336.63 345.419 340.607 344.536 344.084ZM391.248 349.003C392.689 349.502 393.561 349.806 394.488 350.126C393.74 352.483 393.042 354.69 392.338 356.909C391.157 357.045 389.973 357.185 388.315 357.376C388.864 358.113 389.209 358.582 389.744 359.302C387.194 362.44 384.263 364.849 379.74 364.65C378.611 364.601 377.43 365.053 376.321 365.418C373.241 366.43 370.241 366.643 367.178 365.263C366.129 364.791 364.142 364.256 363.805 364.689C360.985 368.335 358.664 363.646 355.898 364.278C354.736 364.543 353.635 361.507 351.152 361.421C349.824 361.377 348.648 359.421 347.238 358.626C345.588 357.696 344.939 355.212 342.494 355.571C341.346 351.859 337.634 350.145 335.771 347.065C331.623 340.21 331.618 330.358 335.029 323.726C338.045 317.85 343.733 316.131 348.96 320.083C351.494 322.001 353.417 323.527 356.304 321.212C357.298 322.788 358.222 322.153 358.945 321.024C360.096 319.227 361.848 319.123 363.559 319.479C369.51 320.729 375.551 322.415 380.339 326.003C384.55 329.16 387.567 333.909 391.11 337.955C390.823 341.546 395.385 344.937 391.248 349.003Z" fill="#EFDFFF"/>
<path fill-rule="evenodd" clip-rule="evenodd" d="M446.077 350.242C448.34 349.06 450.879 347.106 454.594 348.619C454.199 349.154 453.865 349.615 453.183 350.551C454.649 350.931 457.031 351.009 457.207 351.677C458.438 356.294 463.648 357.602 465.208 361.882C467.841 369.121 470.15 376.343 466.284 383.842C465.854 384.675 465.415 384.866 466.03 386.044C467.738 389.298 466.149 391.638 463.166 393.327C461.09 394.5 462.238 395.67 463.447 396.843C460.853 400.174 458.25 403.516 455.692 406.8H447.421C445.892 405.155 444.013 403.171 442.172 401.151C440.513 399.338 438.344 398.204 436.848 396.023C433.459 391.081 432.816 385.746 433.951 380.251C434.837 375.979 436.934 371.969 437.985 367.716C438.673 364.937 439.351 362.707 442.125 361.19C443.24 360.58 444.007 358.347 443.974 356.873C443.927 354.718 445.428 353.909 446.367 352.543C446.676 352.099 446.212 351.127 446.077 350.242Z" fill="#EFDFFF"/>
<path fill-rule="evenodd" clip-rule="evenodd" d="M129.288 388.037C130.533 389.088 131.085 389.555 131.761 390.123C132.236 389.165 132.592 387.485 133.224 387.374C134.83 387.093 136.977 386.924 138.161 387.763C141.713 390.289 145.447 392.891 148.082 396.269C150.577 399.473 152.236 403.56 153.359 407.518C154.007 409.808 153.64 412.433 152.302 415.201C149.553 420.867 146.799 425.95 141.064 429.284C138.528 430.758 135.677 430.824 133.276 432.312C132.327 432.902 131.173 433.159 130.066 433.584C129.655 432.855 129.125 431.914 128.595 430.976C127.745 432.19 127.174 432.047 125.874 431.15C123.539 429.535 119 425.407 117.032 423.798C110.698 418.626 114.347 412.193 114.623 406.295C114.689 404.816 117.051 403.442 118.448 401.924C123.622 404.706 126.296 409.149 128.107 414.059C133.182 413.427 134.005 408.691 136.792 406.052C137.407 405.47 136.991 403.792 137.107 401.394C134.672 403.825 133.058 405.44 131.703 406.792C127.886 406.522 128.347 401.921 125.132 401.642C125.079 398.662 124.569 395.585 125.148 392.734C125.48 391.114 127.602 389.861 129.288 388.037Z" fill="#EFDFFF"/>
<path fill-rule="evenodd" clip-rule="evenodd" d="M428.96 191.892C430.205 192.944 430.757 193.41 431.433 193.979C431.907 193.021 432.263 191.34 432.895 191.23C434.502 190.948 436.649 190.78 437.833 191.619C441.384 194.144 445.118 196.747 447.754 200.125C450.249 203.329 451.907 207.416 453.031 211.373C453.679 213.664 453.312 216.288 451.974 219.057C449.225 224.722 446.471 229.806 440.736 233.14C438.2 234.613 435.349 234.68 432.948 236.167C431.998 236.758 430.845 237.014 429.738 237.439C429.327 236.711 428.797 235.77 428.267 234.831C427.417 236.046 426.846 235.902 425.546 235.005C423.211 233.391 418.672 229.262 416.704 227.653C410.37 222.481 414.019 216.048 414.295 210.151C414.361 208.672 416.723 207.297 418.12 205.779C423.294 208.561 425.968 213.004 427.779 217.914C432.854 217.282 433.676 212.546 436.464 209.908C437.079 209.326 436.662 207.648 436.778 205.249C434.344 207.681 432.73 209.295 431.375 210.648C427.558 210.377 428.019 205.777 424.804 205.498C424.751 202.517 424.241 199.44 424.82 196.589C425.151 194.969 427.274 193.716 428.96 191.892Z" fill="#EFDFFF"/>
<path fill-rule="evenodd" clip-rule="evenodd" d="M416.856 22.3921C419.012 20.2367 420.61 18.6388 422.473 16.776H431.801C432.772 12.7053 429.764 14.3529 427.824 13.8148C428.031 13.2904 428.089 12.6639 428.431 12.3686C430.807 10.3264 427.288 9.5316 427.625 7.45625C429.217 3.67261 433.655 2.98267 436.989 0.921122C437.933 0.336051 439.774 0.658944 440.977 1.13362C447.084 3.54566 449.298 9.02656 451.757 14.5516C453.341 18.1034 451.867 22.2983 454.638 25.403C453.539 29.4654 453.114 33.8921 451.155 37.4853C449.077 41.302 444.631 43.3801 440.452 43.7969C438.137 44.0287 436.117 46.7471 433.843 44.9836C431.914 43.4878 429.198 44.3295 427.443 41.9644C426.193 40.2782 423.416 40.165 422.663 37.2176C422.29 35.7632 419.511 35.5314 418.256 33.2214C416.23 29.4958 417.731 25.9384 416.856 22.3921Z" fill="#EFDFFF"/>
<path fill-rule="evenodd" clip-rule="evenodd" d="M390.407 428.16C391.342 431.892 392.165 435.029 392.896 438.187C393.062 438.896 393.241 440.022 392.871 440.367C389.557 443.436 392.637 445.958 393.443 448.668C399.235 448.762 399.075 448.398 402.048 444.167C405.583 439.13 404.976 433.652 404.876 428.169C404.86 427.172 403.908 425.972 403.058 425.254C401.36 423.819 398.565 426.035 397.019 423.645L395.443 426.055C392.518 424.101 391.779 427.236 390.407 428.16ZM383.527 432.991C382.624 431.238 381.667 429.381 380.886 427.863C381.736 423.365 386.855 424.61 388.522 421.116C390.156 417.685 395.148 419.148 397.822 415.687C396.763 414.975 395.736 414.288 394.69 413.584C394.839 413.394 395.049 412.861 395.339 412.809C400.408 411.884 404.106 414.594 407.556 417.674C410.429 420.235 412.074 423.737 414.232 426.837C415.444 428.578 413.332 430.181 415.165 431.291C416.804 432.287 417.309 433.907 417.003 435.764C416.663 437.804 418.59 440.001 418.245 441.06C417.428 443.555 417.364 446.166 416.528 448.586C414.966 453.104 412.676 457.219 409.135 460.533C407.104 462.435 404.247 463.075 400.668 462.449C392.03 460.939 391.928 461.03 388.034 456.75C384.981 453.397 383.002 449.566 382.183 444.877C381.714 442.217 380.135 439.871 382.009 437.238C379.498 434.826 383.295 434.884 383.527 432.991Z" fill="#EFDFFF"/>
<path fill-rule="evenodd" clip-rule="evenodd" d="M181.735 228.851C188.584 232.709 190.163 235.927 186.399 241.806C184.458 244.839 186.859 248.255 184.119 250.745C183.713 251.112 184.781 253.121 185.187 254.363C186.31 257.776 187.42 258.083 191.134 257.103C198.227 255.237 201.586 250.22 203.294 243.42C200.65 242.669 197.99 241.952 195.351 241.157C192.131 240.188 193.301 236.57 191.982 234.909C193.499 233.391 195.166 231.724 196.836 230.057C201.423 227.494 204.271 232.505 208.452 233.64C211.521 238.593 215.804 242.89 215.362 249.528C214.799 257.906 211.19 264.891 202.035 268.244C194.396 271.048 188.352 269.873 181.798 264.047C177.805 260.498 174.548 256.841 174.407 250.538C174.214 242.214 175.807 234.901 181.735 228.851Z" fill="#EFDFFF"/>
<path fill-rule="evenodd" clip-rule="evenodd" d="M171.231 537.384C164.701 539.302 160.89 534.901 156.499 532.276C152.473 529.87 151.949 525.123 150.756 521.223C149.658 517.613 151.877 513.86 153.185 510.366C154.286 507.424 156.105 504.745 157.595 501.968C156.913 501.72 156.044 501.405 154.995 501.024C156.105 499.86 157.082 498.83 158.296 497.55C156.737 497.268 155.365 497.02 153.11 496.612C154.568 495.527 155.597 494.125 156.53 494.189C159.135 494.365 161.685 493.463 164.425 494.959C171.402 498.764 174.968 505.137 177.54 511.972C181.147 521.565 179.218 530.286 171.231 537.384Z" fill="#EFDFFF"/>
<path fill-rule="evenodd" clip-rule="evenodd" d="M406.771 140.307C400.241 142.225 396.43 137.823 392.039 135.198C388.012 132.792 387.488 128.045 386.296 124.146C385.197 120.536 387.416 116.783 388.724 113.289C389.826 110.347 391.644 107.667 393.135 104.891C392.453 104.642 391.584 104.328 390.535 103.947C391.644 102.782 392.621 101.753 393.836 100.472C392.276 100.191 390.905 99.9424 388.65 99.534C390.107 98.4494 391.136 97.0474 392.069 97.1109C394.675 97.2875 397.225 96.3851 399.965 97.8809C406.942 101.687 410.507 108.059 413.079 114.895C416.686 124.488 414.757 133.209 406.771 140.307Z" fill="#EFDFFF"/>
<path fill-rule="evenodd" clip-rule="evenodd" d="M254.815 573.091C254.098 574.532 253.482 575.766 252.77 577.198C257.721 582.287 259.766 588.422 258.977 595.526C258.786 597.209 258.833 598.663 257.572 600.239C255.182 603.236 254.856 607.608 250.217 609.192C248.208 609.879 246.017 610.445 244.665 609.752C240.9 607.818 236.573 606.325 234.238 602.453C233.071 600.518 231.989 598.514 231.743 595.97C230.929 587.613 234.324 580.678 238.574 574.027C239.529 572.531 241.146 571.449 243.072 570.577C245.291 569.575 246.663 568.761 248.884 570.42C250.502 571.631 252.635 572.148 254.815 573.091Z" fill="#EFDFFF"/>
<path fill-rule="evenodd" clip-rule="evenodd" d="M326.687 492.299C326.687 494.374 326.557 495.398 326.709 496.378C327.493 501.483 323.232 503.291 320.268 505.54C317.32 507.775 314.502 504.491 311.745 503.677C309.171 502.918 307.048 500.445 304.879 498.555C301.222 495.376 299.854 487.82 302.172 483.294C302.699 482.264 302.136 480.512 304.581 480.283C306.041 480.145 307.421 477.818 308.594 476.292C311.668 472.31 314.362 471.854 317.654 475.332C319.804 477.603 322.296 479.463 323.83 482.51C325.608 486.037 327.603 489.241 326.687 492.299Z" fill="#EFDFFF"/>
<path fill-rule="evenodd" clip-rule="evenodd" d="M244.671 320.948C247.924 324.445 251.551 327.467 253.259 332.387C255.376 338.481 254.222 341.807 249.039 345.358C243.134 349.407 239.184 348.706 234.029 343.449C233.328 342.734 232.616 342.033 232.05 341.47C231.195 338.832 233.154 335.788 230.348 333.726C228.788 326.777 233.485 321.083 240.898 320.951C242.148 320.929 243.398 320.948 244.671 320.948Z" fill="#EFDFFF"/>
<path fill-rule="evenodd" clip-rule="evenodd" d="M314.642 243.586C315.997 242.529 316.825 241.884 317.653 241.238C316.684 240.424 315.715 239.607 314.769 238.812C315.155 238.381 315.622 237.86 316.276 237.134C314.57 236.759 313.052 236.427 311.228 236.03C313.361 230.304 318.602 229.887 322.709 228.016C323.512 227.651 325.242 228.708 326.236 229.498C330.262 232.685 333.196 236.759 335.235 241.461C335.503 242.082 335.862 243.205 335.608 243.424C332.053 246.456 336.745 252.327 332.086 254.358C331.173 254.755 329.122 252.412 326.669 252.241C327.665 253.331 328.656 254.424 329.79 255.669C327.963 256.88 326.238 258.139 324.389 259.179C323.824 259.502 322.916 259.289 322.176 259.207C321.734 259.157 320.931 258.823 320.948 258.715C321.558 254.603 316.654 257.658 316.107 254.959C315.837 253.624 314.832 252.401 314.708 251.076C314.476 248.604 314.642 246.095 314.642 243.586Z" fill="#EFDFFF"/>
<path fill-rule="evenodd" clip-rule="evenodd" d="M325.326 133.313V130.001H332.033C335.433 135.107 340.086 139.944 338.441 147.636C337.365 147.705 336.015 147.788 334.125 147.906V141.697C332.919 141.926 331.991 141.827 331.652 142.227C331.083 142.892 331.025 143.968 330.518 144.708C329.579 146.071 329.066 145.765 327.807 143.742C326.957 142.373 325.79 141.197 324.617 139.757C326.16 139.045 327.181 138.576 328.271 138.073C325.103 136.509 325.158 136.564 327.769 133.851C328.221 133.382 327.965 132.231 328.086 130.765C326.966 131.803 326.441 132.283 325.326 133.313Z" fill="#EFDFFF"/>
</svg>
