<svg width="409" height="196" viewBox="0 0 409 196" fill="none" xmlns="http://www.w3.org/2000/svg">
<path fill-rule="evenodd" clip-rule="evenodd" d="M406.934 80.7556C405.699 92.8605 403.93 105.876 403.271 118.948C403.038 123.518 404.356 127.858 399.333 130.356C398.301 130.868 396.789 131.688 396.039 131.295C383.316 124.631 368.989 124.21 355.587 120.269C346.613 117.63 338.284 113.464 332.719 105.345C331.609 103.724 331.731 101.222 331.287 99.1279C333.324 98.7489 335.495 97.6995 337.37 98.0984C351.007 101.001 364.618 104.059 378.164 107.375C382.413 108.415 383.216 106.749 383.789 102.939C385.112 94.1504 387.118 85.4713 388.543 76.696C389.154 72.9454 389.018 69.0697 389.182 65.2493C389.195 64.9301 388.711 64.5541 388.772 64.2777C389.406 61.422 389.771 56.3293 390.851 56.1629C393.965 55.6794 397.811 56.4089 400.582 58.0475C409.145 63.1118 406.317 72.0477 406.934 80.7556Z" fill="black"/>
<path fill-rule="evenodd" clip-rule="evenodd" d="M225.282 31.6053C225.072 31.0873 224.857 30.5671 224.647 30.0491L209.847 37.9021C210.145 38.4784 210.444 39.0527 210.741 39.627C215.587 36.9537 220.437 34.2785 225.282 31.6053ZM110.615 40.2859C110.417 39.8956 110.218 39.5053 110.019 39.1151C101.833 42.4637 93.6479 45.8143 85.4602 49.1649C85.6993 49.7604 85.9403 50.3559 86.1794 50.9494C94.3247 47.3956 102.47 43.8397 110.615 40.2859ZM187.603 89.9674C188.626 96.0922 189.531 102.241 190.711 108.336C191.439 112.101 193.796 113.133 197.578 112.373C209.428 109.984 218.353 99.5968 219.625 86.9752C221.013 73.2177 213.294 64.5803 203.722 56.991C202.974 56.3966 200.144 57.3524 199.14 58.4177C190.882 67.1973 188.346 78.1098 187.603 89.9674ZM150.012 41.9813C117.589 40.2266 90.09 52.1961 65.2711 72.3487C37.0165 95.2908 14.9156 123.54 -4.5467 154.141C-10.4409 163.408 -16.1021 172.833 -22.2133 181.949C-23.851 184.396 -26.5019 186.871 -29.1644 187.642C-31.0016 188.174 -33.6578 185.798 -35.9477 184.719C-35.2122 183.355 -34.538 181.948 -33.7275 180.632C-31.5409 177.087 -28.9882 173.737 -27.1323 170.029C-21.0883 157.96 -15.4936 145.66 -9.32889 133.658C-5.17359 125.569 -0.65541 117.63 4.28645 110.014C7.40847 105.204 11.8468 101.291 15.2772 96.6584C20.7156 89.3187 25.1663 81.1271 31.1957 74.3567C40.5783 63.8154 50.1408 53.1538 61.0426 44.3424C85.1424 24.8633 112.719 15.6265 144.005 18.1526C158.564 19.3275 173.007 19.9193 186.681 25.881C188.176 26.5333 191.009 25.5938 192.502 24.44C207.531 12.8028 224.67 6.85623 243.304 6.01634C257.247 5.38637 271.539 4.52165 285.146 6.89033C296.56 8.8757 307.647 14.5422 318.066 20.1341C327.328 25.108 335.889 31.7074 344.02 38.4996C355.6 48.1778 363.742 60.7062 369.026 74.9167C369.784 76.957 368.35 80.6812 366.728 82.5636C364.927 84.6574 362.411 83.592 359.549 82.231C350.59 77.9691 347.081 69.3521 342.296 61.8725C333.235 47.6998 320.001 39.1928 304.768 34.5193C278.777 26.544 252.729 29.2379 227.342 38.0298C213.628 42.7821 213.752 43.3513 223.503 53.4443C236.338 66.7266 243.291 82.4328 241.955 101.184C240.405 122.948 222.273 137.944 200.794 135.959C194.051 135.335 189.529 131.065 185.191 126.675C175.337 116.702 169.952 104.378 168.245 90.4765C166.476 76.0958 166.356 61.8559 173.33 48.4897C175.014 45.262 173.476 43.8111 170.084 43.5907C163.386 43.1533 156.702 42.5279 150.012 41.9813Z" fill="black"/>
</svg>
