<svg width="502" height="261" viewBox="0 0 502 261" fill="none" xmlns="http://www.w3.org/2000/svg">
<path fill-rule="evenodd" clip-rule="evenodd" d="M211.926 203.677L176.482 219.953C189.246 216.603 201.028 211.061 211.926 203.677ZM296.26 190.007C282.026 194.661 268.087 199.758 253.51 202.785C269.055 202.717 282.862 196.782 296.26 190.007ZM256.345 148.306C255.925 142.556 252.28 143.596 248.922 144.382C237.563 147.031 232.418 156.407 227.585 165.42C224.062 171.988 221.227 179.259 221.812 187.119C222.034 190.116 223.037 192.427 226.726 189.954C236.798 183.2 245.693 175.282 251.678 164.56C254.529 159.452 256.34 153.963 256.345 148.306ZM252.981 195.986C262.377 195.641 271.131 192.286 279.895 189.234C317.764 176.044 348.596 152.614 375.883 123.763C394.111 104.489 410.321 83.6665 425.828 62.2308C427.245 60.2763 428.599 58.2428 430.895 57.2057C433.476 56.0419 435.374 56.0927 434.429 59.7474C434.198 60.6478 433.056 61.5695 434.758 61.9345C440.627 63.1962 439.437 67.4952 438.751 71.3715C437.464 78.6463 433.19 84.6628 429.623 90.8488C419.631 108.181 408.973 125.152 396.181 140.577C384.305 154.896 370.487 167.335 356.329 179.379C347.317 187.045 338.043 194.719 327.005 198.786C319.672 201.488 314.002 206.601 306.855 209.322C293.152 214.538 279.449 219.588 264.839 221.673C252.814 223.388 241.193 221.982 230.162 216.88C226.525 215.196 223.255 215.34 219.863 217.093C210.72 221.814 201.397 226.256 192.091 230.537C176.953 237.506 160.778 242.04 144.534 245.921C118.625 252.112 92.4467 255.622 65.7412 252.689C50.0453 250.965 34.6823 248.246 22.082 237.551C18.7644 234.736 16.2072 231.533 15.9541 226.944C15.8427 224.967 16.3365 223.42 18.1956 222.428C20.3941 221.257 20.7345 222.858 21.9147 224.246C30.0069 233.769 41.6194 234.103 52.7391 235.407C83.383 239.002 113.092 233.569 142.522 225.756C165.043 219.776 186.764 211.657 207.51 201.005C209.158 200.16 211.518 200.015 209.817 196.914C203.889 186.107 203.693 174.549 206.758 163.02C211.487 145.223 220.415 130.354 238.584 123.396C248.347 119.657 255.305 122.332 261.916 130.354C278.764 150.787 272.577 174.895 256.725 190.38C255.304 191.765 253.884 193.149 252.467 194.532C252.638 195.018 252.811 195.502 252.981 195.986Z" fill="black"/>
<path fill-rule="evenodd" clip-rule="evenodd" d="M432.758 29.3626C444.156 24.6588 454.668 18.5259 463.871 10.2995C453.501 16.6531 443.131 23.0089 432.758 29.3626ZM461.244 76.5014C460.442 64.0359 461.78 51.6512 462.634 39.2465C462.762 37.3924 463.892 35.2852 461.456 33.886C459.115 32.5429 457.547 34.2577 456.137 35.3711C448.45 41.4325 439.413 44.8984 430.851 49.3434C425.443 52.1535 420.523 56.0082 414.879 58.7257C406.188 62.9069 397.8 67.7448 389.409 72.521C385.156 74.9406 379.955 75.2645 376.438 79.4789C372.988 83.6122 368.792 82.8199 363.592 76.8807C360.937 73.8505 359.59 69.6202 363.366 66.1995C366.471 63.3868 369.848 60.7658 373.437 58.6166C397.189 44.3956 421.055 30.3666 444.823 16.1732C450.159 12.9878 455.285 9.43912 460.465 5.99665C469.883 -0.263399 474.193 0.824961 480.343 10.3746C485.116 17.7879 486.108 25.4266 484.066 33.9401C480.138 50.3281 476.676 66.8287 475.9 83.74C475.746 87.1288 476.067 90.5363 476.045 93.9359C476.022 97.8723 474.276 99.028 470.725 97.0201C462.851 92.5743 462.075 90.9139 461.244 76.5014Z" fill="black"/>
</svg>
