<svg width="841" height="881" viewBox="0 0 841 881" fill="none" xmlns="http://www.w3.org/2000/svg">
<path fill-rule="evenodd" clip-rule="evenodd" d="M137.176 608.195C136.076 602.675 132.525 598.55 127.88 595.205C125.318 593.361 126.221 590.627 126.698 588.468C127.108 586.599 127.824 585.044 127.135 583.016C126.848 582.178 127.597 580.389 128.406 579.887C130.992 578.281 133.281 576.319 136.249 575.131C146.694 570.942 157.693 569.561 168.679 568.616C179.889 567.654 191.131 566.398 202.439 567.036C205.958 567.236 205.96 567.173 206.601 571.469C200.408 571.57 194.228 571.46 188.078 571.839C183.199 572.139 178.361 573.04 173.064 573.733C174.331 575.166 175.356 575.665 177.265 575.399C187.673 573.957 198.119 572.873 209.179 573.415C209.273 574.269 209.39 575.302 209.501 576.327C209.258 576.429 208.713 576.652 207.78 577.035L210.995 578.66C210.412 580.76 209.881 582.661 209.191 585.137C207.486 586.478 203.96 585.743 202.116 588.437C199.022 586.756 196.07 588.711 193.078 588.932C189.368 589.206 185.718 590.275 182.786 590.854C182.095 592.833 181.654 594.351 181.045 595.8C178.908 600.886 178.813 600.689 174.568 602.385C169.852 604.271 164.48 604.478 160.36 607.9C160.096 608.122 159.507 608.22 159.2 608.083C155.975 606.625 153.936 607.813 151.674 610.389C149.773 612.549 146.797 611.932 144.16 610.747C142.139 609.838 139.993 609.21 137.176 608.195Z" fill="black"/>
<path fill-rule="evenodd" clip-rule="evenodd" d="M725.277 354.824C721.74 357.452 721.74 357.452 724.469 361.207C724.079 364.029 720.949 366.097 722.06 369.389C720.213 371.528 718.163 373.525 716.566 375.836C713.989 379.569 709.84 380.073 706.084 381.018C703.533 381.66 700.94 382.37 698.303 382.803C695.219 383.308 692.21 384.254 689.128 384.769C686.336 385.235 683.489 385.401 680.662 385.638C679.876 385.703 678.909 385.807 678.306 385.436C676.702 384.447 675.28 384.457 673.476 385.041C670.01 386.164 666.71 384.273 663.425 383.612C660.364 382.992 657.513 381.02 654.76 379.331C653.708 378.687 651.44 377.359 654.387 375.816C654.596 375.708 654.123 374.409 654.076 373.657C654.028 372.864 653.874 371.473 654.173 371.352C657.697 369.934 656.412 368.505 654.789 366.222C652.399 362.863 653.168 361.939 656.314 357.751C658.231 355.204 659.818 352.279 663.077 351.868C671.888 350.753 680.709 349.508 689.42 353.137C692.91 354.593 696.898 355.428 700.722 353.873C704.016 352.535 707.801 352.453 710.614 349.774C711.462 348.966 713 348.838 714.253 348.51C716.921 347.816 719.414 347.978 722.033 349.248C724.752 350.565 724.279 353.001 725.277 354.824Z" fill="black"/>
<path fill-rule="evenodd" clip-rule="evenodd" d="M315.733 619.767C320.054 618.347 324.083 617.357 327.833 615.726C338.59 611.046 349.982 611.998 361.221 611.627C366.268 611.46 370.396 614.322 374.625 616.576C375.359 616.968 375.562 618.357 376.037 619.35C374.003 619.35 372.097 619.351 369.314 619.352L377.232 623.352C377.216 625.461 376.83 627.356 377.289 629.013C377.86 631.071 376.802 632.536 375.823 633.665C374.684 634.979 372.778 635.629 371.052 636.657C367.345 633.671 363.039 633.549 358.389 633.744C357.964 635.806 355.594 637.296 356.539 640.054C356.74 640.639 356.134 641.918 355.531 642.297C350.606 645.393 346.428 650.135 339.796 649.608C338.601 649.512 337.094 649.314 336.243 649.904C334.961 650.794 333.445 648.648 332.302 650.71C331.361 652.408 330.155 650.41 329.037 650.235C327.651 650.018 326.22 649.955 324.895 649.547C323.679 649.173 322.577 648.427 321.416 647.84C319.846 641.457 316.427 636.137 312.115 631.204C313.336 627.349 314.573 623.436 315.733 619.767Z" fill="black"/>
<path fill-rule="evenodd" clip-rule="evenodd" d="M830.151 273.335C831.057 275.119 831.841 276.548 832.511 278.032C832.753 278.573 832.782 279.234 832.808 279.848C832.883 281.596 830.232 281.48 830.402 283.48C830.534 285.047 830.489 286.78 829.932 288.21C829.469 289.396 827.258 290.385 827.389 291.215C827.68 293.063 827.565 294.021 825.649 294.532C825.296 294.629 825.073 295.523 824.942 296.084C823.966 300.23 823.978 300.233 819.387 300.396C820.029 301.06 820.582 301.633 821.595 302.678C819.717 302.464 818.302 302.47 816.989 302.111C815.383 301.673 813.839 300.984 812.316 300.3C810.784 299.614 809.308 298.799 807.342 298.86L812.634 302.239C812.543 302.441 812.45 302.645 812.356 302.848C811.314 302.458 810.231 302.151 809.239 301.658C804.208 299.156 799.3 296.38 794.158 294.14C789.622 292.166 786.011 289.395 783.624 285.063C784.989 284.581 786.791 284.38 785.167 282.226C783.394 279.87 784.514 278.097 786.813 276.237C784.448 274.54 781.513 272.83 784.628 269.068L791.057 272.316C791.255 272.061 791.457 271.805 791.657 271.551C789.805 269.769 787.952 267.99 786.046 266.156C788.277 264.9 790.416 264.026 792.936 265.686C793.643 266.151 794.907 265.689 795.888 265.83C800.15 266.448 800.149 266.472 801.765 263.49C802.075 262.92 802.352 262.334 802.644 261.755L803.447 260.167C805.655 259.441 807.734 258.83 809.758 258.078C814.064 256.471 818.234 257.373 822.308 258.826C824.328 259.547 826.104 260.96 828.131 261.645C830.366 262.4 831.363 264.252 832.351 265.941C834.32 269.309 833.884 270.384 830.151 273.335Z" fill="black"/>
<path fill-rule="evenodd" clip-rule="evenodd" d="M613.381 588.368C612.951 585.046 612.47 581.813 612.207 578.565C612.182 578.251 613.492 577.829 614.614 577.226C613.879 576.139 613.136 575.279 612.676 574.288C612.131 573.121 611.847 571.833 611.423 570.607C610.566 568.123 609.487 565.603 613.263 564.481C613.55 564.394 613.642 563.736 613.875 563.375C615.538 560.812 616.167 557.887 619.728 556.26C622.594 554.951 625.221 552.768 628.421 551.792C631.423 550.88 634.336 549.837 637.588 549.784C642.579 549.706 647.513 549.631 651.77 552.707C652.837 553.479 653.5 554.815 654.69 556.321C652.758 557.176 651.451 557.755 649.923 558.429C652.578 560.956 656.317 562.602 657.611 566.899C656.185 567.607 654.809 568.292 653.091 569.146L657.321 571.283C656.046 575.422 655.607 579.546 653.448 583.25C652.21 585.374 650.56 586.916 648.53 587.631C645.925 588.552 643.602 590.117 640.681 590.467C638.039 590.782 635.476 591.743 632.742 592.094C628.248 592.667 623.946 591.455 619.545 591.311C617.446 591.243 615.404 589.389 613.381 588.368Z" fill="black"/>
<path fill-rule="evenodd" clip-rule="evenodd" d="M626.593 286.728L614.148 280.441C616.71 283.185 619.988 284.59 623.099 286.284C624.352 286.965 626.238 287.163 626.218 289.088C626.2 291.078 626.129 293.154 625.514 295C625.302 295.635 623.335 296.053 622.248 295.926C621.081 295.79 620.003 294.896 618.761 294.269C618.678 295.433 618.854 296.24 618.538 296.724C617.884 297.723 616.169 298.682 616.29 299.424C616.986 303.558 613.861 306.125 612.461 309.329C611.828 310.778 609.808 312.435 608.322 312.534C604.666 312.769 602.114 315.681 597.912 315.761C596.467 315.103 594.622 314.406 591.994 314.925C588.551 315.607 584.653 315.704 581.341 313.281C579.802 312.153 577.923 311.492 575.875 310.458C575.527 305.319 575.325 300.055 574.773 294.827C574.195 289.356 577.88 286.506 581.493 283.924C584.132 282.041 586.498 278.92 590.515 279.863C595.987 275.436 602.539 277.467 608.645 276.713C612.751 276.206 616.287 278.073 619.827 279.13C622.751 280.004 624.902 283.466 627.394 285.782C627.128 286.099 626.859 286.414 626.593 286.728Z" fill="black"/>
<path fill-rule="evenodd" clip-rule="evenodd" d="M507.145 367.245C510.819 366.037 514.715 364.757 519.1 363.315C521.029 364.29 523.429 365.251 525.507 366.68C526.279 367.214 526.512 368.834 526.549 369.972C526.565 370.404 525.339 370.877 524.672 371.335C525.914 373.02 527.921 374.653 525.934 377.223C525.562 377.7 525.151 378.435 525.259 378.943C525.691 380.942 526.083 383.078 524.663 384.637C522.114 387.431 519.754 390.788 516.229 392.189C509.26 394.957 502.03 397.284 494.36 396.541C489.788 396.097 485.163 395.445 480.784 394.135C478.87 393.56 476.698 391.868 476.309 389.159C475.666 384.7 474.776 380.27 474.282 375.794C474.114 374.271 474.414 372.394 475.207 371.115C480.194 363.056 487.194 359.054 497.971 361.372C499.541 361.709 501.425 361.569 502.627 362.411C504.368 363.632 505.621 365.552 507.145 367.245Z" fill="black"/>
<path fill-rule="evenodd" clip-rule="evenodd" d="M290.303 275.849C291.583 276.207 292.86 276.564 294.139 276.922C289.532 274.576 290.266 268.831 286.879 265.788C285.666 264.7 286.09 262.309 287.304 261.844C289.28 261.083 288.837 259.661 288.722 258.61C288.415 255.814 289.449 254.095 291.789 252.581C298.536 248.219 305.089 243.513 313.567 243.215C318.169 240.02 323.653 241.175 328.708 240.299C331.166 239.872 333.84 240.692 336.708 240.977C338.245 243.782 336.436 245.815 333.585 247.939C335.062 248.34 336.255 249.037 337.298 248.859C338.735 248.61 338.726 249.647 338.689 250.18C338.514 252.602 338.083 254.978 338.829 257.421C339.013 258.019 338.285 259.079 337.716 259.678C336.696 260.746 335.344 261.419 335.776 263.396C335.896 263.956 334.601 264.925 333.833 265.556C327.239 270.989 320.202 275.365 311.309 276.061C310.108 276.154 308.501 276.917 307.153 277.413C303.295 278.841 299.399 277.506 295.653 278.226C293.162 278.703 291.741 277.606 290.303 275.849Z" fill="black"/>
<path fill-rule="evenodd" clip-rule="evenodd" d="M382.855 764.498C383.847 765.191 384.841 765.886 385.934 766.651C385.415 766.918 385.104 767.231 384.819 767.209C380.431 766.859 376.01 766.95 371.679 765.859C368.956 765.172 366.261 764.689 365.551 761.36C365.069 759.092 360.516 758.845 362.557 755.325C360.675 752.228 362.333 749.627 363.844 747.102C362.305 745.582 360.7 744.31 359.493 742.731C358.133 740.952 359.029 737.916 361.385 735.366C361.923 734.784 362.916 734.461 363.175 733.81C365.193 728.769 365.153 728.76 369.985 728.652C372.397 728.597 374.83 728.288 377.216 728.506C380.124 728.774 382.39 728.05 384.673 726.131C388.063 723.282 392.408 722.513 396.474 723.78C400.155 724.927 402.466 728.088 403.38 732.354C400.661 732.865 397.95 733.375 394.151 734.09C396.954 735.506 398.855 736.43 400.72 737.42C402.574 738.405 402.088 738.415 401.926 742.055C401.811 744.655 399.104 747.139 401.427 749.843C400.451 751.976 399.471 754.105 398.495 756.239C396.696 760.18 394.543 763.396 389.337 763.027C387.275 762.882 385.125 763.945 382.855 764.498Z" fill="black"/>
<path fill-rule="evenodd" clip-rule="evenodd" d="M643.536 178.478C646.839 174.402 650.897 174.434 653.959 175.458C657.876 176.767 662.075 177.337 665.781 179.581C670.579 182.485 675.657 185.015 680.837 187.162C683.35 188.205 684.358 190.666 686.641 191.774C687.234 192.063 687.961 193.457 687.742 193.833C686.063 196.733 688.579 199.784 687.017 202.924C685.98 205.003 686.881 208.048 686.923 210.989C683.472 212.123 683.843 218.432 677.849 217.737C674.912 214.726 670.261 216.18 666.104 215.369C665.524 215.255 664.801 215.56 664.318 215.321C658.562 212.475 652.843 209.561 646.618 206.417C647.909 205.905 648.468 205.683 649.858 205.133C648.354 204.766 647.353 204.185 646.772 204.469C646.151 204.769 646.044 206.01 645.462 206.586C645.199 206.848 644.283 206.596 643.751 206.37C643.506 206.268 643.244 205.492 643.377 205.324C644.36 204.059 645.442 202.868 646.587 201.543C644.869 199.375 643.035 197.06 641.663 195.332C642.579 193.811 643.128 192.903 643.674 191.996C641.172 192.806 641.532 190.604 640.854 189.4C640.167 188.175 639.261 187.073 638.505 185.995C640.745 182.546 643.784 182.373 647.393 182.971C646.075 181.437 644.894 180.059 643.536 178.478Z" fill="black"/>
<path fill-rule="evenodd" clip-rule="evenodd" d="M161.146 470.663C162.747 467.705 164.992 465.275 162.398 462.145C166.864 461.326 169.301 462.193 170.605 465.984C171.504 468.6 173.14 470.852 173.56 473.819C173.93 476.416 176.536 478.619 177.586 481.226C178.394 483.231 178.323 485.592 178.638 487.794C177.886 488.051 177.069 488.327 175.783 488.764C175.594 487.516 175.408 486.289 175.224 485.062C174.942 485.045 174.658 485.03 174.376 485.013C173.916 486.441 173.457 487.867 172.94 489.472C172.147 489.567 170.393 489.257 169.383 489.983C163.315 494.342 156.268 495.52 149.176 496.448C146.849 496.754 144.405 496.029 142.009 496.009C136.09 495.958 134.911 496.121 130.967 493.234C128.115 491.147 125.085 488.903 123.784 485.179C123.272 483.709 122.349 481.95 121.094 481.252C117.926 479.492 118.306 477.455 119.792 474.927C120.207 474.221 120.503 473.402 120.671 472.595C121.747 467.421 122.112 467.015 126.751 466.508C133.621 465.756 140.345 467.135 147.08 468.081C151.838 468.75 156.545 469.804 161.146 470.663Z" fill="black"/>
<path fill-rule="evenodd" clip-rule="evenodd" d="M262.034 429.056C265.49 426.758 268.74 424.305 272.714 423.016C280.129 420.62 287.412 417.706 294.959 415.851C302.892 413.901 310.888 411.632 318.826 412.047C321.236 413.643 316.827 415.607 319.819 417.198C320.672 417.654 320.437 420.191 320.663 421.778C321.224 425.719 320.742 427.518 317.412 428.499C314.123 429.467 312.099 431.485 310.134 433.933C307.097 437.714 302.37 438.993 298.538 441.606C294.44 444.402 289.599 445.424 285.016 447.062C282.643 447.911 280.431 449.337 278.009 449.873C275.572 450.411 272.844 450.659 270.471 450.088C269.028 449.738 267.57 447.784 266.918 446.216C266.115 444.281 264.358 442.67 264.749 440.19C264.976 438.756 263.51 438.234 262.496 437.42C261.332 436.485 259.929 435.32 262.71 433.885C264.651 432.879 263.703 430.73 262.034 429.056Z" fill="black"/>
<path fill-rule="evenodd" clip-rule="evenodd" d="M177.62 679.495C183.681 674.26 190.178 673.976 196.524 673.637C202.101 673.339 207.746 673.351 213.309 673.844C218.861 674.34 224.863 673.344 229.959 677.715C224.933 680.424 219.539 677.264 213.786 679.397C220.049 681.638 226.144 680.881 233.12 682.491C230.897 684.016 230.091 684.57 229.106 685.247C230.025 685.938 230.988 686.662 231.949 687.382C231.397 689.298 230.853 691.188 230.211 693.421C229.075 693.525 227.441 693.588 225.833 693.833C219.575 694.793 219.586 694.823 214.453 699.715C213.879 700.26 213.177 700.688 212.489 701.098C207.238 704.243 201.826 706.787 195.47 706.766C193.12 706.758 189.028 706.298 187.06 705.232C186.598 704.983 185.852 705.097 185.285 705.237C183.84 705.597 183.181 704.772 183.126 703.618C182.973 700.271 180.651 697.68 180.089 694.492C179.849 693.132 178.956 692.459 177.828 691.665C176.294 690.58 175.787 686.241 176.901 684.903C177.592 684.074 179.62 684.338 178.997 682.419C178.667 681.412 178.096 680.482 177.62 679.495Z" fill="black"/>
<path fill-rule="evenodd" clip-rule="evenodd" d="M407.663 559.959C408.007 558.862 408.369 557.713 408.866 556.125C407.49 556.156 406.511 556.179 405.485 556.203C404.122 552.057 402.704 547.742 401.239 543.292C401.48 542.816 401.861 542.277 402.039 541.678C404.121 534.564 410.002 532.097 416.278 530.733C421.181 529.667 426.237 529.176 431.37 529.399C434.574 529.539 437.509 529.7 440.629 532.333C435.293 532.115 430.543 531.923 425.79 531.729C425.734 532.093 425.677 532.457 425.62 532.823C426.427 533.052 427.227 533.429 428.047 533.486C431.436 533.722 434.842 533.764 438.22 534.079C439.716 534.219 441.803 533.951 441.029 536.926C440.789 537.844 442.329 539.23 443.066 540.396C443.714 541.417 444.381 542.427 444.909 543.243C443.788 546.08 441.404 544.908 439.571 546.104C441.263 546.465 442.954 546.826 445.182 547.299C445.43 548.514 445.763 550.137 446.099 551.762C445.002 552.126 443.353 552.51 445.036 554.489C446.852 556.632 447.023 558.528 444.326 560.1C444.081 560.242 443.752 560.629 443.796 560.827C444.659 564.661 441.631 565.134 439.292 565.525C433.705 566.455 428.098 565.39 422.536 564.828C421.231 564.696 418.201 564.316 419.635 561.17C419.717 560.993 418.825 560.374 418.387 559.963C417.907 560.527 416.911 561.262 417.034 561.632C417.894 564.236 415.161 564.025 414.849 563.654C412.931 561.379 409.353 562.596 407.663 559.959Z" fill="black"/>
<path fill-rule="evenodd" clip-rule="evenodd" d="M542.034 601.481C541.009 601.818 539.982 602.155 538.425 602.669C539.969 603.686 541.242 604.527 542.631 605.445C541.925 608.084 541.312 610.862 540.42 613.548C539.88 615.171 539.068 616.762 538.075 618.151C537.317 619.209 535.633 617.227 534.364 619.273C533.543 620.597 530.654 620.472 528.519 620.629C526.786 620.757 524.513 618.106 523.151 621.23C521.217 620.384 519.28 619.536 517.343 618.694C517.156 618.61 516.954 618.561 516.757 618.496L503.786 622.76C503.32 623.683 502.945 624.721 502.326 625.581C501.367 626.903 499.157 627.733 498.645 626.548C497.507 623.912 494.662 626.169 493.646 624.191C494.568 619.026 495.133 617.537 497.615 614.21C495.177 614.126 493.053 614.052 490.383 613.957C490.118 613.092 489.143 611.636 489.529 610.881C491.98 606.121 493.308 600.479 498.852 597.933C500.356 597.243 501.782 596.212 503.361 595.883C506.96 595.131 510.623 594.68 514.272 594.178C516.071 593.93 517.898 593.865 519.706 593.668C522.505 593.363 525.337 595.304 528.113 593.554C530.477 595.226 533.139 594.761 535.809 594.954C539.439 595.215 541.913 597.44 542.034 601.481Z" fill="black"/>
<path fill-rule="evenodd" clip-rule="evenodd" d="M718.431 465.919C717.289 468.18 716.51 469.727 715.728 471.27C714.678 473.337 713.894 475.752 710.664 474.715C710.307 474.599 709.407 475.116 709.273 475.513C708.399 478.147 705.762 477.613 703.986 478.597C699.166 481.269 694.31 479.568 689.586 478.458C686.892 477.825 685.561 476.179 685.306 472.62C685.02 468.626 685.82 464.212 683.549 460.422C684.451 458.545 682.313 455.555 685.736 454.559C686.231 454.414 686.696 453.774 686.949 453.253C690.506 445.862 697.023 443.404 704.559 442.409C708.381 441.903 712.148 440.755 716.031 441.761C717.625 442.174 719.189 442.734 720.706 443.372C721.205 443.579 721.895 444.283 721.847 444.68C721.411 448.157 722.841 451.568 722.421 454.941C721.901 459.098 720.377 463.056 718.431 465.919Z" fill="black"/>
<path fill-rule="evenodd" clip-rule="evenodd" d="M441.802 314.499C440.04 314.674 438.743 314.8 436.223 315.049C438.105 316.342 438.744 316.795 439.398 317.224C441.568 318.64 441.565 318.634 440.393 321.688C440.248 322.071 439.917 322.606 440.057 322.84C441.476 325.22 441.016 327.585 439.331 329.355C437.423 331.362 435.246 333.452 432.763 334.509C423.076 338.636 412.823 338.762 402.551 337.695C400.8 337.51 399.179 336.09 397.52 335.252C398.051 334.439 398.467 333.8 398.886 333.161C396.733 332.257 395.428 331.008 396.166 328.327C396.386 327.522 395.801 325.975 395.103 325.532C392.722 324.021 395.242 322.065 394.392 320.509C397.398 320.228 395.882 316.366 398.328 315.578C400.668 314.823 402.94 313.317 405.289 313.222C410.463 313.014 415.752 312.985 420.815 313.891C423.405 314.355 425.404 314.113 427.3 312.896C430.374 310.917 433.573 309.789 437.245 309.919C440.31 310.029 440.311 309.968 441.802 314.499Z" fill="black"/>
<path fill-rule="evenodd" clip-rule="evenodd" d="M454.344 457.275C454.92 457.566 455.791 457.833 456.416 458.383C456.833 458.751 456.745 459.74 457.17 460.045C457.634 460.379 458.511 460.08 459.063 460.35C459.552 460.592 459.804 461.579 460.231 461.627C461.016 461.716 461.905 461.477 462.649 461.145C463.145 460.926 463.464 460.305 464.061 459.64C462.622 459.367 461.462 459.147 460.299 458.928C462.582 457.51 464.727 455.738 467.23 458.26C466.441 458.923 465.662 459.573 464.698 460.381C468.153 462.543 467.965 458.233 470.332 457.806C469.153 459.586 469.819 461.505 468.604 463.281C468.042 464.104 469.337 466.2 469.934 468.2C467.452 469.303 464.672 470.541 461.419 471.989C462.767 472.971 463.726 473.672 464.894 474.524C464.026 477.58 463.135 480.712 462.234 483.879C459.593 484.405 457.281 484.692 455.081 485.353C453.177 485.929 451.469 487.18 449.557 487.696C444.157 489.148 438.701 488.287 433.366 487.311C431.457 486.963 428.556 486.175 429.715 482.776C426.658 481.25 427.828 477.805 426.627 475.378C425.126 472.337 426.333 468.911 429.488 466.148C434.213 462.011 439.996 460.645 445.624 459.322C448.443 458.661 451.253 457.739 454.344 457.275Z" fill="black"/>
<path fill-rule="evenodd" clip-rule="evenodd" d="M330.844 514.858C330.053 515.633 329.29 516.382 328.414 517.239C333.186 519.914 337.101 515.563 341.947 517.13C340.98 517.923 340.369 518.658 339.586 519.018C338.328 519.595 336.961 519.924 335.149 520.519C337.802 521.344 338.501 521.356 340.88 520.806C343.027 525.719 343.027 525.719 341.22 529.326C337.989 530.179 334.196 530.384 331.366 532.139C328.239 534.075 324.901 533.424 321.763 534.431C318.76 535.391 315.368 535.322 312.144 535.335C310.378 535.345 308.277 535.05 306.919 534.07C305.204 532.83 302.865 530.65 303.001 529.064C303.223 526.453 301.445 526.163 300.471 524.815C299.143 522.969 298.037 520.803 298.836 518.26C299.304 516.774 299.083 514.613 300.044 513.836C302.384 511.945 305.067 510.127 307.91 509.292C313.277 507.716 318.824 506.685 324.358 505.813C325.745 505.592 327.36 506.833 329.48 507.631C328.201 508.208 327.695 508.438 326.619 508.925C329.792 509.994 329.5 513.092 330.844 514.858Z" fill="black"/>
<path fill-rule="evenodd" clip-rule="evenodd" d="M133.54 376.907C135.21 375.762 136.014 375.21 136.797 374.677C132.745 370.993 132.663 370.546 136.306 367.552C133.426 367.373 131.121 367.231 128.615 367.078C128.54 365.778 128.461 364.446 128.382 363.101C131.21 362.169 134.081 361.226 137.22 360.195C135.028 357.513 131.977 360.307 129.42 358.588C130.554 355.272 133.569 354.539 136.41 353.735C137.961 353.296 139.706 353.515 141.234 353.027C148.037 350.847 154.978 349.309 162.017 348.162C162.648 348.059 163.254 347.78 163.864 347.565C167.159 346.395 170.437 345.08 174.033 346.685C174.274 349.637 171.543 349.76 169.452 350.628C171.244 353.49 173.411 350.058 175.23 351.18C177.453 352.476 172.325 355.36 176.632 356.146L173.46 362.426C171.286 363.583 169.113 364.773 166.911 365.903C164.702 367.037 162.23 367.275 160.06 368.934C157.95 370.543 154.799 370.723 152.199 371.764C150.503 372.442 148.629 372.47 147.157 374.179C146.094 375.417 143.566 375.088 142.758 377.376C142.535 378.013 140.91 378.546 139.988 378.462C138.232 378.303 136.523 377.664 133.54 376.907Z" fill="black"/>
<path fill-rule="evenodd" clip-rule="evenodd" d="M538.414 533.537C537.274 535.466 537.609 537.365 535.371 538.524C535.52 537.436 535.628 536.647 535.746 535.785C533.075 535.296 530.381 534.89 527.742 534.259C527.066 534.097 526.033 533.177 526.069 532.669C526.261 529.846 524.114 527.878 523.658 525.373C523.454 524.264 523.864 522.962 524.274 521.854C524.482 521.299 525.588 521.081 525.798 520.528C526.053 519.854 525.791 518.984 525.748 518.117C529.769 518.898 529.885 519.021 533.201 515.777C535.186 513.835 537.737 514.512 540.028 513.582C539.422 512.809 538.838 512.063 538.182 511.227C539.09 510.952 540.145 510.249 540.697 510.53C547.591 514.05 547.749 514.122 553.483 513.06C551.257 509.704 547.729 512.198 544.579 510.839C545.138 510.061 545.677 508.751 546.11 508.786C550.462 509.123 555.005 508.584 558.157 513.083C559.135 514.48 559.774 514.965 558.986 516.593C558.498 517.596 558.543 518.961 558.656 520.132C558.947 523.164 559.411 526.177 559.844 529.479C558.722 529.617 557.684 529.744 557.936 529.714C555.607 530.969 558.223 534.827 554.268 533.234C553.145 532.784 554.496 536.486 551.679 535.063C550.59 534.513 548.488 535.963 546.974 536.461C546.224 535.631 545.507 534.841 544.791 534.05C544.449 534.235 544.107 534.42 543.765 534.607C544.469 535.596 545.174 536.584 546.058 537.829C543.774 537.975 542.451 538.063 540.715 538.176C540.004 536.741 539.208 535.14 538.414 533.537Z" fill="black"/>
<path fill-rule="evenodd" clip-rule="evenodd" d="M466.819 250.554C469.178 250.069 471.045 249.686 473.123 249.262C472.202 248.046 471.618 247.273 470.856 246.267C473.029 244.564 475.515 243.935 477.962 243.567C483.372 242.755 488.869 242.791 494.304 241.944C497.646 241.422 500.78 242.874 503.619 245.181C502.819 248.095 499.423 247.098 497.525 248.905L503.172 251.757C501.655 256.218 500.193 260.516 498.852 264.456C493.435 266.565 488.406 267.214 483.171 266.83C480.186 266.615 477.265 267.8 474.119 267.02C472.876 266.712 472.099 264.526 470.381 265.865C470.353 265.889 469.275 264.65 469.29 264.637C471.776 262.289 468.1 259.22 470.164 256.795C470.298 256.638 469.478 255.61 469.032 255.04C468.543 254.412 467.876 253.904 467.474 253.231C467.171 252.731 467.166 252.055 466.819 250.554Z" fill="black"/>
<path fill-rule="evenodd" clip-rule="evenodd" d="M331.779 343.576C329.441 343.437 327.739 343.335 325.31 343.192C326.486 344.474 327.023 345.063 327.594 345.688C327.303 345.867 326.978 346.236 326.742 346.186C324.489 345.705 322.313 345.791 320.078 346.463C318.74 346.866 317.263 346.899 315.847 346.918C313.341 346.947 311.248 347.726 309.63 349.882C310.194 350.635 310.779 351.411 311.051 351.772C309.675 352.455 308.177 353.195 307.063 353.748C306.34 353.383 305.99 353.302 305.977 353.186C305.825 351.791 305.723 350.391 305.619 349.108C303.891 348.592 302.326 348.122 299.982 347.421C301.704 346.11 302.648 345.394 304.007 344.362C302.864 342.831 301.713 341.294 300.476 339.642C300.782 338.819 301.137 337.853 301.576 336.673L298.998 335.371C298.288 331.355 299.786 329.12 303.365 327.757C307.265 326.273 310.953 324.241 315.359 322.943C315.543 324.518 315.72 326.038 315.913 327.705C318.575 328.249 321.243 328.158 324.119 327.537C326.997 326.917 330.105 327.35 333.006 327.323C334.243 330.081 332.015 330.639 330.572 331.867C331.124 332.229 331.61 332.814 332.125 332.841C335.328 333 336.367 334.157 335.234 336.678C334.174 339.047 332.915 341.326 331.779 343.576Z" fill="black"/>
<path fill-rule="evenodd" clip-rule="evenodd" d="M392.236 166.925C390.307 167.171 388.73 167.37 386.764 167.621C387.436 168.283 387.775 168.897 388.247 169.034C390.542 169.697 392.872 170.231 395.505 170.889L393.803 174.259C393.049 174.244 392.127 174.227 390.3 174.19L395.039 176.584C394.937 177.36 394.724 177.957 394.816 178.498C395.032 179.736 395.833 181.929 395.639 182.016C393.683 182.877 393.495 185.067 392.224 186.219C390.331 187.937 387.883 189.242 385.179 187.841C384.371 187.422 384.011 185.89 383.247 185.706C382.625 185.558 381.75 186.984 380.898 187.112C380.201 187.216 378.813 186.552 378.702 186.026C378.262 183.917 376.542 183.464 375.036 182.832C373.154 182.044 372.452 180.691 372.809 178.848C373.19 176.878 372.29 175.919 370.824 174.725C368.754 173.036 368.013 170.656 369.492 168.014C370.002 167.099 370.47 166.121 370.73 165.115C371.39 162.555 373.411 159.929 375.465 160.065C380.477 160.395 385.658 159.825 390.274 162.75C392.074 163.891 392.036 165.302 392.236 166.925Z" fill="black"/>
<path fill-rule="evenodd" clip-rule="evenodd" d="M402.615 405.629C401.464 406.857 400.263 408.141 398.786 409.717C400.259 411.446 401.936 412.585 404.442 411.773C405.263 414.74 401.793 414.685 401.089 416.83C402.001 417.524 402.96 418.256 403.901 418.972C404.784 421.378 400.99 421.228 401.491 423.849C402.005 426.53 398.546 425.393 397.35 426.847C396.678 427.664 395.284 428.04 394.144 428.289C390.373 429.118 386.422 427.549 382.607 429.303C381.696 429.723 379.969 428.381 378.186 427.678C381.425 425.233 376.366 422.429 379.171 419.914C378.099 418.163 374.813 417.645 376.255 413.951C377.077 413.899 378.365 413.818 380.2 413.704C379.083 412.253 378.541 411.55 377.983 410.827C378.512 408.617 380.67 408.573 382.08 408.471C386.773 408.138 390.941 406.741 394.92 404.222C397.369 402.672 400.147 402.546 402.615 405.629Z" fill="black"/>
<path fill-rule="evenodd" clip-rule="evenodd" d="M570.961 455.255C570.2 451.435 569.637 448.618 568.909 444.98L571.371 440.108C575.073 439.597 578.993 440.803 582.671 439.151C586.638 440.787 590.34 439.342 594.161 438.392C595.379 438.091 596.911 439.063 598.646 439.55C598.456 440.506 598.02 441.327 598.207 441.966C600.121 448.519 595.663 451.531 591.032 453.644C587.079 455.449 582.583 456.386 578.237 456.884C575.774 457.166 573.122 455.786 570.961 455.255Z" fill="black"/>
</svg>
