<svg width="118" height="134" viewBox="0 0 118 134" fill="none" xmlns="http://www.w3.org/2000/svg">
<path fill-rule="evenodd" clip-rule="evenodd" d="M68.7141 5.39684C69.6156 4.12405 69.1353 2.8361 69.3368 1.64664C69.4535 0.95418 69.8747 -0.200427 70.2672 0.0298879C73.0476 1.66482 76.7963 -0.971681 79.1692 2.10879C88.8045 14.6064 101.789 23.769 112.31 35.3833C113.051 36.2 113.844 36.9667 114.592 37.7758C118.92 42.4428 118.918 42.4443 113.623 45.4641C108.174 48.5719 107.642 48.5916 102.469 44.4474C91.7213 35.8379 81.0193 27.1677 70.7748 17.9581C67.5792 15.0868 64.679 11.9078 63.9699 7.40755C63.779 6.20294 63.7017 4.93469 63.8593 3.73463C63.9987 2.68154 64.3532 1.34511 65.6442 1.24207C66.9852 1.13601 66.767 2.52396 67.0443 3.37552C67.2988 4.15435 67.5004 4.96651 68.7141 5.39684Z" fill="black"/>
<path fill-rule="evenodd" clip-rule="evenodd" d="M26.9904 54.988C32.377 55.332 36.9667 57.8094 41.4654 60.5247C51.2341 66.4235 59.9921 73.8451 69.9548 79.4575C71.8806 80.5424 71.8625 81.5394 70.0972 83.1895C64.9666 87.9822 59.983 85.8124 55.157 83.0804C45.4702 77.5953 35.9393 71.8374 26.3161 66.2432C23.822 64.7931 21.234 63.5036 18.6611 62.193C17.1747 61.4338 16.9489 60.1489 17.0595 58.7125C17.1747 57.226 18.1111 56.8487 19.5036 56.4957C21.9795 55.8669 24.3645 54.8941 26.9904 54.988Z" fill="black"/>
<path fill-rule="evenodd" clip-rule="evenodd" d="M21.2632 132.912C15.6204 132.912 9.97924 132.938 4.33803 132.897C2.54248 132.883 0.645407 132.87 0.0847714 130.545C-0.425862 128.423 1.49242 128.253 2.57733 127.344C4.66986 125.589 7.11848 124.778 9.72468 124.377C21.0616 122.624 32.4077 121.874 43.7856 124.112C45.016 124.356 46.3206 124.325 46.8706 125.706C47.4934 127.265 45.9706 127.689 45.322 128.645C42.2976 133.109 37.8519 133.111 33.2244 132.967C29.2409 132.844 25.2497 132.942 21.2632 132.942V132.912Z" fill="black"/>
</svg>
