<?xml version="1.0" standalone="no"?>
<!DOCTYPE svg PUBLIC "-//W3C//DTD SVG 1.1//EN" "http://www.w3.org/Graphics/SVG/1.1/DTD/svg11.dtd" >
<svg xmlns="http://www.w3.org/2000/svg" xmlns:xlink="http://www.w3.org/1999/xlink" version="1.1">
<metadata>
Created by FontForge 20170910 at Mon Apr 30 11:11:28 2007
 By Jimmy Wärting
(c) COPYRIGHT H. BERTHOLD AG 1992 Alle Rechte vorbehalten.
</metadata>
<defs>
<font id="HelveticaExtendedBQ-ExtraLight" horiz-adv-x="625" >
  <font-face 
    font-family="Helvetica Extended BQ"
    font-weight="500"
    font-stretch="normal"
    units-per-em="1000"
    panose-1="0 0 0 0 0 0 0 0 0 0"
    ascent="800"
    descent="-200"
    x-height="511"
    cap-height="701"
    bbox="-172 -261 1151 920"
    underline-thickness="50"
    underline-position="-100"
    stemh="60"
    stemv="69"
    unicode-range="U+0020-FB02"
  />
<missing-glyph horiz-adv-x="333" 
 />
    <glyph glyph-name=".notdef" horiz-adv-x="333" 
 />
    <glyph glyph-name="space" unicode=" " horiz-adv-x="333" 
 />
    <glyph glyph-name="exclam" unicode="!" horiz-adv-x="229" 
d="M94 81h82v-79h-82v79zM100 701l71 -1c1 -79 2 -159 -1 -237c-2 -57 -6 -114 -9 -170c-2 -43 -3 -85 -5 -127l-45 1c-5 117 -11 234 -12 352c0 60 1 121 1 182z" />
    <glyph glyph-name="quotedbl" unicode="&#x22;" horiz-adv-x="396" 
d="M300 445h-19l-32 243c-1 3 -2 13 -1 23c5 34 36 38 46 38c5 0 14 -1 24 -7c21 -13 18 -35 18 -42zM113 445h-19l-33 243c0 3 -2 13 0 23c5 34 35 38 46 38c4 0 14 -1 23 -7c21 -13 18 -35 18 -42z" />
    <glyph glyph-name="numbersign" unicode="#" horiz-adv-x="667" 
d="M394 0h-62l38 259h-101l-38 -259h-58l36 259h-167v54h175l13 97h-167v57h174l32 241h63l-34 -241h100l31 241h60l-33 -241h168v-57h-175l-13 -97h168v-54h-175zM377 313l13 97h-100l-14 -97h101z" />
    <glyph glyph-name="dollar" unicode="$" 
d="M88 210l6 -30c5 -20 14 -53 52 -84c53 -43 114 -41 136 -42v270c-37 7 -74 14 -110 25c-22 7 -83 25 -114 88c-6 12 -17 39 -17 74c0 79 56 130 75 144c49 37 107 44 167 49v79h43l1 -79c15 -1 31 -3 47 -5c22 -2 83 -11 134 -55c19 -16 36 -37 47 -59
c9 -18 14 -35 23 -73h-65c-9 32 -14 44 -23 58c-46 75 -144 74 -164 75l1 -264c82 -13 134 -23 166 -38s90 -53 90 -145c0 -95 -56 -137 -86 -157c-29 -18 -55 -27 -66 -30c-37 -12 -66 -14 -105 -18v-86h-45v87c-18 2 -35 4 -53 7c-24 5 -93 16 -146 71
c-10 11 -30 32 -43 68c-7 18 -10 33 -16 70h65zM284 389v258c-57 -7 -113 -14 -152 -60c-17 -21 -26 -45 -26 -73c0 -33 13 -54 21 -64c28 -37 70 -44 157 -61zM325 319v-268c9 0 17 1 26 1c19 2 93 5 139 58c20 23 30 50 30 81c0 60 -34 81 -54 92c-44 24 -94 30 -141 36z
" />
    <glyph glyph-name="percent" unicode="%" horiz-adv-x="958" 
d="M33 472c-1 60 5 117 42 167c6 9 19 26 43 40c35 20 80 20 92 20c65 0 98 -25 117 -45c17 -17 25 -34 29 -41c11 -24 22 -77 22 -148c0 -170 -84 -218 -167 -217c-58 0 -95 20 -112 33c-71 54 -66 179 -66 191zM89 481c-1 -10 0 -19 0 -29c2 -69 20 -109 43 -129
c25 -22 71 -24 79 -24c27 0 50 7 70 25c6 6 15 15 23 32c11 23 20 70 20 135c0 11 3 104 -54 142c-17 11 -40 16 -62 16c-18 0 -65 -3 -93 -46c-23 -37 -26 -81 -26 -122zM650 693h61c-31 -54 -63 -107 -94 -160c-37 -63 -74 -125 -110 -187c-44 -73 -88 -145 -130 -220
c-15 -27 -31 -55 -47 -81c-10 -15 -19 -30 -29 -44h-60zM574 217c-1 84 13 124 35 158c19 29 55 70 140 70c22 0 79 -2 121 -48c13 -14 21 -29 24 -35c19 -39 25 -108 25 -151c0 -58 -12 -134 -55 -176c-17 -16 -56 -42 -118 -42c-60 0 -95 23 -113 38
c-42 38 -52 96 -54 112c-4 20 -5 35 -5 74zM630 229c0 -2 -9 -119 46 -163c26 -20 66 -22 75 -22c24 1 46 6 63 20c36 27 50 78 50 169c0 13 1 59 -17 100c-10 22 -33 62 -98 62c-101 0 -117 -82 -119 -166z" />
    <glyph glyph-name="ampersand" unicode="&#x26;" horiz-adv-x="792" 
d="M652 327h61c-13 -90 -23 -113 -67 -190l146 -136h-86l-98 91c-27 -24 -55 -48 -85 -66c-30 -17 -87 -42 -174 -42c-81 0 -175 28 -223 98c-23 33 -35 75 -35 115c0 26 4 42 7 51c8 27 23 57 73 95c8 7 30 23 56 38c15 9 32 16 48 24c-11 11 -21 21 -32 31
c-14 16 -54 57 -54 121c0 10 1 30 11 53c16 33 60 89 151 89c20 0 98 -2 140 -63c8 -11 22 -37 22 -74c0 -14 -2 -39 -18 -69c-28 -50 -73 -75 -119 -101c37 -34 73 -67 109 -102c22 -21 43 -42 65 -63c16 -15 33 -29 50 -43c32 63 37 77 52 143zM564 135l-248 228
c-43 -22 -65 -35 -85 -48c-16 -11 -77 -51 -76 -122c0 -57 51 -149 191 -149c80 1 136 27 160 43c14 9 30 22 58 48zM331 434c56 32 87 53 105 78c15 22 16 41 16 52c0 7 -1 23 -10 38c-26 38 -80 42 -93 42c-49 0 -76 -28 -87 -43c-4 -7 -13 -21 -13 -41
c0 -19 7 -34 10 -41c17 -35 44 -59 72 -85z" />
    <glyph glyph-name="quoteright" unicode="&#x2019;" horiz-adv-x="187" 
d="M134 701v-90c-1 -23 -2 -41 -7 -62c-13 -57 -54 -73 -74 -83v42c2 2 16 15 24 26c14 20 15 39 15 87h-40v80h82z" />
    <glyph glyph-name="parenleft" unicode="(" horiz-adv-x="333" 
d="M283 708h48c-27 -35 -61 -79 -100 -166c-42 -95 -62 -169 -62 -275c0 -29 1 -81 16 -149c26 -119 77 -196 144 -296l-44 1c-28 33 -56 67 -80 103c-32 47 -111 175 -111 341c1 153 65 258 93 305c38 64 48 78 96 136z" />
    <glyph glyph-name="parenright" unicode=")" horiz-adv-x="333" 
d="M1 710l43 -1c13 -15 25 -30 38 -45c40 -51 154 -197 153 -399c0 -158 -68 -271 -98 -319c-33 -53 -50 -74 -92 -121h-46c16 20 32 41 45 62c14 21 80 134 104 240c10 44 14 95 14 141c0 22 -1 78 -14 138c-25 120 -79 203 -147 304z" />
    <glyph glyph-name="asterisk" unicode="*" horiz-adv-x="354" 
d="M33 616l124 -44v130h40l-3 -130l124 43l11 -39l-120 -41c14 -16 27 -31 40 -48s26 -35 39 -53l-38 -26l-73 106c-9 -14 -18 -28 -28 -41c-15 -22 -31 -43 -47 -65l-37 26l80 104l-123 37z" />
    <glyph glyph-name="plus" unicode="+" horiz-adv-x="667" 
d="M364 0h-60v261h-262v60h262v260h60v-260h261v-60h-261v-261z" />
    <glyph glyph-name="comma" unicode="," horiz-adv-x="187" 
d="M47 82h83v-101c0 -46 -4 -82 -41 -110c-13 -10 -40 -23 -41 -24v43c16 13 21 18 27 27c14 18 14 38 14 83h-42v82z" />
    <glyph glyph-name="hyphen" unicode="-" horiz-adv-x="396" 
d="M28 311h339v-64h-339v64z" />
    <glyph glyph-name="period" unicode="." horiz-adv-x="187" 
d="M51 81h82v-80h-82v80z" />
    <glyph glyph-name="slash" unicode="/" horiz-adv-x="375" 
d="M310 714h64l-314 -715h-63z" />
    <glyph glyph-name="zero" unicode="0" 
d="M43 331c-1 23 -7 177 59 274c28 42 91 98 212 98c28 0 109 -1 172 -58c23 -19 41 -44 54 -71c40 -81 40 -211 40 -227c0 -15 -1 -128 -29 -202c-55 -144 -188 -153 -239 -153c-70 0 -138 19 -187 69c-26 27 -40 57 -46 69c-28 62 -35 132 -36 201zM109 335
c0 -13 1 -26 1 -39c1 -14 3 -136 70 -197c20 -20 63 -46 136 -46c21 0 77 1 123 41c13 10 21 20 30 34c10 16 18 33 28 69c13 52 17 102 17 156c0 13 0 124 -33 194c-12 23 -27 42 -47 58c-44 36 -101 38 -120 38c-30 0 -121 -3 -168 -89c-21 -40 -37 -109 -37 -219z" />
    <glyph glyph-name="one" unicode="1" 
d="M319 691h54v-690h-66v508h-208l1 54c30 0 59 -1 90 1c36 1 70 4 95 29c27 29 31 62 34 98z" />
    <glyph glyph-name="two" unicode="2" 
d="M109 450h-63c1 29 1 119 73 183c48 41 122 59 187 59c22 0 91 -1 149 -35c33 -18 100 -67 100 -170c0 -15 -2 -51 -19 -87c-30 -65 -94 -99 -155 -132c-48 -26 -98 -51 -146 -80c-40 -25 -62 -41 -78 -56c-23 -22 -33 -41 -48 -68h445v-63h-519c3 36 6 50 11 67
c10 32 34 86 101 134c29 21 88 54 167 98c19 10 38 21 57 32c95 55 118 94 118 155c0 24 -3 68 -51 106c-39 31 -82 38 -130 38c-7 0 -35 0 -59 -6c-73 -16 -109 -64 -120 -88c-9 -20 -14 -41 -20 -87z" />
    <glyph glyph-name="three" unicode="3" 
d="M247 331l1 62c64 -2 144 -3 190 47c10 11 29 36 29 77c0 18 -3 57 -38 87c-33 29 -85 41 -129 41c-45 0 -97 -13 -132 -42c-8 -6 -23 -21 -34 -45c-14 -30 -17 -75 -18 -82h-64c1 27 1 89 49 147c52 63 123 78 203 78c62 0 122 -9 170 -48c41 -34 60 -81 60 -135
c0 -16 -2 -56 -31 -94c-5 -6 -14 -16 -29 -28c-19 -14 -43 -24 -65 -33c46 -8 79 -15 111 -50c18 -20 39 -53 40 -114c0 -18 -1 -63 -26 -105c-29 -49 -95 -102 -227 -102c-12 0 -105 2 -165 31c-9 4 -30 15 -50 34c-22 21 -34 42 -39 53c-16 34 -21 72 -26 110l66 -1
c7 -49 13 -87 50 -120c45 -40 100 -45 159 -45c18 0 82 -3 132 30c26 18 58 49 58 121c0 22 -4 36 -8 44c-16 43 -55 61 -68 66c-49 20 -116 17 -169 16z" />
    <glyph glyph-name="four" unicode="4" 
d="M33 240l367 454h65v-460h124v-59h-124v-174h-69v175h-363v64zM399 612l-304 -379h304v379z" />
    <glyph glyph-name="five" unicode="5" 
d="M123 314h-57l59 379h403v-65h-353l-39 -229c19 14 29 21 39 27c43 27 100 40 150 40c28 0 103 -4 169 -57c34 -27 80 -74 80 -178c0 -36 -3 -106 -72 -169c-34 -32 -94 -69 -204 -69c-25 0 -98 2 -162 43c-25 17 -46 36 -62 61c-19 30 -26 54 -34 87l69 -1
c5 -20 8 -34 19 -52c48 -79 156 -78 180 -78c164 0 201 112 201 178c0 34 -9 69 -27 96c-35 55 -109 79 -173 79c-54 0 -110 -17 -151 -53c-11 -9 -19 -17 -35 -39z" />
    <glyph glyph-name="six" unicode="6" 
d="M571 530h-69c-8 28 -13 41 -20 52c-20 29 -72 63 -155 63c-20 0 -76 -2 -124 -35c-86 -58 -90 -176 -93 -270c14 18 23 32 40 47c67 64 158 68 188 68c40 0 155 -7 217 -111c30 -49 32 -96 32 -118c0 -17 -1 -54 -20 -96c-26 -57 -95 -138 -244 -138
c-25 0 -106 1 -170 47c-21 16 -35 31 -41 39c-12 14 -33 42 -47 86c-11 33 -21 89 -21 175c0 25 -4 170 63 263c11 15 36 45 79 68c24 12 75 33 146 33c25 0 103 -2 167 -50c7 -5 27 -22 41 -44c15 -23 24 -53 31 -79zM124 237c-1 -14 -2 -45 12 -79
c18 -45 69 -107 188 -107c108 0 199 60 199 175c0 17 -2 63 -31 102c-37 49 -109 69 -167 69c-12 0 -38 -1 -69 -9c-73 -20 -127 -75 -132 -151z" />
    <glyph glyph-name="seven" unicode="7" 
d="M42 690h513l-1 -68c-57 -68 -74 -90 -119 -167c-81 -138 -115 -219 -138 -290c-25 -76 -32 -132 -37 -164h-83c13 50 27 100 43 150c59 177 133 296 176 356c31 41 65 80 100 118h-454v65z" />
    <glyph glyph-name="eight" unicode="8" 
d="M197 377c-3 2 -36 13 -55 25c-24 14 -68 52 -68 126c0 14 2 51 25 85c30 47 93 87 215 87c21 0 139 0 198 -72c12 -13 36 -49 36 -101c0 -21 -5 -67 -48 -107c-27 -25 -58 -34 -93 -45c22 -3 60 -7 103 -39c6 -4 21 -16 33 -31c13 -17 34 -53 34 -110
c0 -20 -4 -77 -43 -122c-34 -39 -103 -80 -224 -80c-92 0 -196 22 -244 107c-9 15 -24 48 -24 96c0 21 2 74 43 119c32 35 70 48 112 62zM109 213c-1 -15 -2 -51 19 -85c24 -40 75 -76 180 -76c62 0 122 6 167 53c14 14 35 43 35 92c0 38 -14 76 -41 102s-78 49 -165 49
c-22 0 -88 0 -142 -41c-14 -10 -26 -22 -34 -36c-15 -23 -18 -50 -19 -58zM142 538c-9 -64 37 -132 170 -132c9 0 78 1 117 26c7 4 23 16 34 35c6 8 17 30 17 59c0 34 -16 58 -23 67c-30 37 -98 50 -144 50c-63 0 -112 -21 -131 -35c-31 -22 -38 -56 -40 -70z" />
    <glyph glyph-name="nine" unicode="9" 
d="M50 165l69 -1c5 -19 10 -38 22 -53c22 -30 70 -60 151 -59c79 0 126 29 150 53c18 17 30 37 39 60c26 61 28 126 30 191c-11 -16 -21 -31 -35 -45c-27 -27 -89 -72 -189 -72c-22 0 -107 5 -170 52c-27 21 -84 78 -83 177c0 52 15 86 25 104c27 53 94 131 239 130
c31 0 130 -2 201 -75c68 -70 77 -180 77 -274c0 -93 -8 -184 -64 -261c-18 -23 -38 -44 -62 -59c-26 -17 -79 -41 -162 -41c-117 0 -180 54 -206 93c-12 19 -19 36 -32 80zM99 482c-8 -128 86 -185 202 -185c14 0 48 1 83 13c74 26 115 84 115 159c0 117 -94 176 -201 176
c-69 0 -144 -27 -179 -88c-8 -14 -18 -37 -20 -75z" />
    <glyph glyph-name="colon" unicode=":" horiz-adv-x="229" 
d="M93 81h82v-79h-82v79zM94 483h82v-80h-82v80z" />
    <glyph glyph-name="semicolon" unicode=";" horiz-adv-x="229" 
d="M132 2h-41v81l84 -1v-102c-1 -43 -7 -62 -17 -81c-17 -29 -38 -39 -67 -53v42c6 4 11 8 16 13c28 26 26 64 25 101zM94 484h81v-79h-81v79z" />
    <glyph glyph-name="less" unicode="&#x3c;" horiz-adv-x="667" 
d="M667 -3l-667 322v70l667 320v-64l-600 -291l600 -293v-64z" />
    <glyph glyph-name="equal" unicode="=" horiz-adv-x="667" 
d="M667 173h-667v58h667v-58zM667 349h-667v59h667v-59z" />
    <glyph glyph-name="greater" unicode="&#x3e;" horiz-adv-x="667" 
d="M0 -3v64l600 293l-600 291v64l667 -320v-70z" />
    <glyph glyph-name="question" unicode="?" horiz-adv-x="583" 
d="M321 166l-70 1c-1 57 3 86 43 128c42 44 101 71 142 116c37 39 41 72 41 97c0 16 -3 61 -38 94c-8 8 -20 17 -30 23c-36 15 -61 25 -99 25c-82 -1 -120 -29 -144 -56c-17 -19 -30 -43 -35 -65c-4 -14 -5 -24 -6 -51h-70c7 69 13 119 64 168c30 29 81 64 178 64
c195 0 250 -120 250 -203c0 -12 -1 -39 -11 -68c-21 -62 -68 -99 -123 -135c-11 -7 -23 -14 -33 -22c-62 -44 -60 -78 -59 -116zM245 80h82v-79h-82v79z" />
    <glyph glyph-name="at" unicode="@" horiz-adv-x="896" 
d="M569 420l16 72h59l-32 -147c-9 -42 -30 -129 -30 -172c0 -3 -1 -53 37 -53c7 0 16 3 22 6c16 7 40 25 64 58c68 92 76 204 76 239c0 17 -1 65 -22 112c-57 128 -196 133 -234 133c-28 0 -92 -3 -162 -36c-152 -71 -249 -232 -249 -399c0 -35 3 -121 66 -198
c38 -47 123 -115 271 -114c45 0 127 5 224 59c59 33 96 68 115 86l27 -32c-21 -20 -40 -37 -63 -54c-43 -33 -150 -104 -302 -104c-87 0 -183 26 -255 80c-50 38 -128 121 -128 277c0 56 11 186 107 306c44 55 158 173 354 173c33 0 122 -1 198 -62c41 -33 99 -100 99 -226
c0 -97 -36 -213 -103 -286c-10 -11 -61 -66 -125 -66c-53 0 -73 36 -77 55c-4 14 -4 24 -3 38c-7 -10 -14 -19 -22 -28c-12 -13 -61 -65 -128 -64c-37 0 -60 14 -72 23c-43 31 -56 86 -56 136c0 34 5 57 8 71c20 92 64 143 93 168c12 10 55 44 108 44c58 0 88 -37 99 -54
c11 -15 18 -37 20 -41zM548 347c2 87 -53 116 -91 115c-27 0 -51 -15 -58 -19c-60 -41 -90 -138 -90 -207c0 -84 48 -109 87 -109c16 0 45 5 76 32c69 61 75 167 76 188z" />
    <glyph glyph-name="A" unicode="A" horiz-adv-x="750" 
d="M328 701h89l326 -702h-80l-99 216h-387l-99 -214h-77zM372 645l-167 -369h330z" />
    <glyph glyph-name="B" unicode="B" horiz-adv-x="708" 
d="M68 700h346c67 0 121 -1 169 -47c9 -9 30 -32 42 -66c5 -13 10 -33 10 -65c-1 -111 -72 -139 -110 -156c5 -1 40 -9 62 -23c30 -18 75 -63 75 -149c0 -18 -2 -73 -33 -117c-11 -16 -22 -25 -29 -30c-47 -39 -104 -44 -164 -49h-368v702zM139 332v-272h260
c65 0 124 0 166 52c26 33 27 71 27 86c0 14 -2 51 -27 83c-41 51 -100 52 -163 51h-263zM140 640v-247h250c15 0 29 1 43 1c60 4 85 22 103 43c13 15 30 39 30 84c0 20 -2 69 -52 99c-35 21 -79 21 -122 20h-252z" />
    <glyph glyph-name="C" unicode="C" horiz-adv-x="771" 
d="M746 462h-72c-3 11 -6 22 -9 32c-6 21 -17 57 -56 93c-71 65 -174 67 -203 67c-35 0 -142 -6 -219 -84c-33 -34 -80 -104 -80 -221c0 -104 33 -164 60 -200c19 -24 41 -44 67 -59c29 -17 89 -41 179 -41c11 0 46 0 78 9c52 14 109 48 141 94c22 32 34 71 47 109h72
c-4 -15 -8 -29 -12 -44c-8 -29 -27 -86 -84 -141c-69 -66 -159 -92 -254 -92c-128 0 -208 51 -245 82c-48 40 -122 129 -122 284c0 106 39 214 122 283c38 32 123 83 256 83c80 0 171 -22 234 -72c30 -24 49 -52 56 -63c19 -29 29 -54 44 -119z" />
    <glyph glyph-name="D" unicode="D" horiz-adv-x="729" 
d="M69 701h309c13 -1 78 -1 129 -19c179 -64 181 -284 181 -324c0 -34 0 -154 -64 -249c-13 -18 -39 -55 -90 -79c-56 -27 -110 -28 -172 -30h-293v701zM138 639v-578h222c15 0 29 1 43 1c82 5 122 33 146 59c35 38 69 110 69 230c0 12 0 23 -1 34c-1 25 -4 177 -118 230
c-45 21 -90 23 -138 24h-223z" />
    <glyph glyph-name="E" unicode="E" horiz-adv-x="646" 
d="M67 701h544v-62h-473v-253h445v-61h-446v-261h483v-64h-553v701z" />
    <glyph glyph-name="F" unicode="F" horiz-adv-x="604" 
d="M68 700h534v-62h-462v-252h411v-61h-411v-324h-72v699z" />
    <glyph glyph-name="G" unicode="G" horiz-adv-x="812" 
d="M737 482h-72c-14 35 -23 52 -32 67c-33 48 -99 105 -234 105c-119 0 -187 -59 -216 -91c-29 -31 -75 -100 -75 -211c0 -36 5 -139 79 -217c75 -80 185 -85 220 -85c12 0 45 1 78 9c73 19 138 68 170 134c22 45 25 93 26 110h-231v59h295v-362h-51c-3 27 -5 54 -6 81
c-1 24 -1 48 -1 72c-24 -50 -41 -79 -87 -110c-34 -23 -100 -58 -202 -58c-45 0 -154 6 -251 92c-77 69 -112 166 -112 270c0 156 81 251 126 289c37 31 118 82 246 82c35 0 142 -2 228 -71c4 -4 8 -7 12 -11c11 -9 36 -33 56 -67c17 -30 25 -55 34 -87z" />
    <glyph glyph-name="H" unicode="H" horiz-adv-x="750" 
d="M69 701h71v-297h467v297h70v-702h-72v345h-465v-343h-71v700z" />
    <glyph glyph-name="I" unicode="I" horiz-adv-x="208" 
d="M66 701h72v-700h-72v700z" />
    <glyph glyph-name="J" unicode="J" horiz-adv-x="521" 
d="M2 239l68 -1c1 -40 2 -57 6 -76c4 -18 14 -55 57 -85c15 -11 45 -27 92 -27c15 0 51 1 87 20c69 37 72 101 71 174v457h72v-468c-1 -35 -2 -71 -12 -104c-29 -97 -116 -141 -213 -141c-93 0 -142 35 -169 63c-14 14 -37 41 -50 88c-9 35 -9 63 -9 100z" />
    <glyph glyph-name="K" unicode="K" horiz-adv-x="688" 
d="M71 701h70v-394l445 394h101l-342 -297l340 -404h-98l-296 360l-150 -129v-230h-70v700z" />
    <glyph glyph-name="L" unicode="L" horiz-adv-x="604" 
d="M69 701h71v-637h450v-64h-521v701z" />
    <glyph glyph-name="M" unicode="M" horiz-adv-x="979" 
d="M69 699l109 -1c29 -58 58 -116 85 -173c24 -49 47 -99 71 -147c30 -61 61 -121 89 -183c22 -47 42 -96 61 -144c33 74 66 147 100 220c40 82 81 164 121 247c29 60 58 120 87 181h108v-699h-69c-1 159 -2 317 0 473c0 59 1 117 2 175c-24 -56 -49 -111 -75 -167
c-40 -83 -82 -166 -122 -248c-38 -78 -76 -156 -113 -233h-82c-46 96 -92 191 -138 287c-26 54 -53 108 -78 162c-31 66 -61 132 -90 198c3 -82 6 -164 6 -248c0 -69 -1 -139 -1 -209v-189h-71v698z" />
    <glyph glyph-name="N" unicode="N" horiz-adv-x="792" 
d="M67 702h95c108 -138 216 -275 323 -414c55 -71 109 -142 163 -214v629h71v-703h-96c-52 67 -105 133 -156 200c-34 45 -67 90 -102 134c-48 62 -98 124 -146 186c-28 36 -54 72 -81 108v-627h-71v701z" />
    <glyph glyph-name="O" unicode="O" horiz-adv-x="833" 
d="M37 363c1 41 8 146 88 236c99 112 247 118 294 118c132 0 207 -48 248 -84c44 -37 124 -127 124 -281c0 -99 -37 -199 -105 -267c-70 -69 -175 -99 -272 -99c-38 0 -164 4 -257 83c-85 72 -123 185 -120 294zM108 357c-3 -123 52 -197 88 -230c33 -31 103 -78 222 -78
c31 0 109 2 183 53c112 77 119 210 119 252c0 124 -58 200 -97 233c-29 25 -104 69 -211 69c-115 0 -189 -52 -220 -82c-77 -75 -84 -183 -84 -217z" />
    <glyph glyph-name="P" unicode="P" horiz-adv-x="646" 
d="M68 702h321c36 -1 69 -2 102 -13c48 -16 127 -65 127 -192c0 -73 -23 -112 -43 -135c-24 -27 -47 -40 -59 -45c-45 -20 -93 -22 -145 -25h-231v-291h-72v701zM140 640v-289h235c45 3 66 6 86 13c33 10 91 42 91 134c0 90 -59 122 -92 132c-17 6 -35 8 -73 10h-247z" />
    <glyph glyph-name="Q" unicode="Q" horiz-adv-x="833" 
d="M771 -9l-40 -51l-119 91c-19 -10 -22 -12 -33 -16c-24 -10 -92 -30 -169 -30c-63 0 -245 12 -334 187c-15 30 -41 91 -41 176c0 46 6 158 94 253c100 109 240 115 289 115c29 0 102 -2 174 -37c38 -18 62 -37 75 -48c113 -97 122 -228 122 -280c0 -32 -4 -139 -68 -222
c-12 -16 -26 -31 -56 -60c17 -11 35 -23 51 -35c19 -14 37 -28 55 -43zM473 145l36 48l107 -81c16 16 34 33 47 51c39 51 57 128 57 193c0 36 -5 127 -73 205c-9 9 -28 30 -56 48c-31 19 -88 46 -180 46c-33 0 -125 -3 -200 -64c-38 -32 -103 -105 -103 -235
c0 -25 3 -100 38 -165c6 -12 17 -32 40 -56c79 -83 194 -88 230 -88c69 0 123 20 146 28c-13 10 -27 19 -40 29c-17 13 -33 27 -49 41z" />
    <glyph glyph-name="R" unicode="R" horiz-adv-x="729" 
d="M67 700h366l45 -3c27 -2 126 -7 165 -97c18 -38 20 -78 20 -92c0 -28 -5 -99 -74 -142c-20 -13 -52 -24 -55 -25c5 -2 32 -7 51 -15c25 -12 43 -34 52 -59c13 -37 11 -97 21 -184c5 -36 6 -42 23 -75v-8h-80c-10 34 -18 58 -21 128c-2 36 -3 85 -17 118
c-10 22 -23 32 -31 37c-40 28 -85 28 -132 28h-260v-310h-73v699zM139 640v-269h268c40 0 85 0 120 17c29 14 65 47 65 121c0 18 -2 57 -36 91c-31 31 -74 41 -164 41c-36 0 -72 0 -107 -1h-146z" />
    <glyph glyph-name="S" unicode="S" horiz-adv-x="667" 
d="M399 315l-95 15c-96 15 -150 28 -187 53c-30 20 -45 47 -51 59s-17 41 -17 78c0 29 8 90 70 141c58 47 135 60 210 60c70 -1 136 -12 194 -56c12 -9 36 -28 54 -62c18 -33 22 -59 24 -95h-67c-8 39 -13 54 -23 71c-21 36 -79 81 -184 81c-16 0 -84 -2 -135 -29
c-59 -32 -72 -82 -72 -109c0 -12 3 -47 30 -72c30 -28 87 -37 126 -43l140 -25c52 -9 104 -19 148 -53c24 -19 60 -56 60 -132c0 -28 -5 -95 -68 -146c-39 -32 -110 -65 -227 -65c-113 0 -176 31 -215 61c-10 7 -37 30 -55 62c-16 29 -23 55 -32 121h72c2 -10 10 -62 30 -95
c25 -41 88 -86 201 -86c17 0 35 1 53 3c20 2 92 8 138 61c20 23 32 51 32 82c0 90 -84 106 -154 120z" />
    <glyph glyph-name="T" unicode="T" 
d="M6 700h614v-63h-270v-637h-75v636h-269v64z" />
    <glyph glyph-name="U" unicode="U" horiz-adv-x="750" 
d="M64 701h72v-442c2 -53 5 -94 40 -136c61 -73 172 -74 195 -74c125 1 191 46 216 96c20 40 22 84 23 127v429h71v-444c0 -15 -1 -30 -2 -45c-3 -26 -10 -96 -67 -150c-78 -75 -221 -77 -241 -77c-27 0 -56 3 -82 7c-86 15 -130 48 -157 76c-11 11 -37 39 -51 79
c-18 49 -19 102 -17 213v341z" />
    <glyph glyph-name="V" unicode="V" horiz-adv-x="708" 
d="M631 699l77 -1c-24 -51 -48 -102 -72 -154l-108 -246c-44 -99 -89 -199 -134 -298h-87l-310 700l81 -1c37 -88 75 -176 114 -263c32 -72 65 -144 96 -217c23 -55 44 -113 65 -170c14 39 28 77 43 114c13 30 26 58 39 87c10 22 20 44 29 67c55 128 111 255 167 382z" />
    <glyph glyph-name="W" unicode="W" horiz-adv-x="1062" 
d="M486 701h87c27 -86 54 -172 82 -257c24 -74 48 -148 71 -223c17 -56 33 -114 50 -171c13 51 26 102 42 153c23 76 50 151 75 226c29 91 57 181 86 272h76c-15 -45 -31 -90 -46 -135c-19 -57 -38 -114 -57 -172c-26 -77 -53 -155 -79 -232c-18 -54 -35 -108 -52 -162h-94
c-34 106 -68 211 -102 316c-19 60 -39 121 -57 182c-13 44 -26 88 -38 132l-203 -629h-92l-229 701h75c36 -112 73 -224 109 -337c19 -59 38 -118 55 -178c13 -43 25 -86 36 -129c18 61 36 123 55 183c24 76 49 151 74 226c26 78 51 156 76 234z" />
    <glyph glyph-name="X" unicode="X" horiz-adv-x="667" 
d="M288 356l-271 345h90l226 -289c34 41 67 81 100 123c29 37 58 77 88 114c15 18 30 35 45 52l87 -1c-39 -39 -37 -40 -71 -84c-11 -14 -23 -28 -35 -43c-20 -25 -41 -50 -62 -75c-37 -46 -73 -91 -109 -137l285 -361h-90l-240 307l-246 -306h-86z" />
    <glyph glyph-name="Y" unicode="Y" horiz-adv-x="688" 
d="M89 698l253 -341l253 341h88c-12 -12 -23 -25 -33 -38c-16 -21 -31 -43 -47 -64c-37 -49 -75 -98 -112 -147c-39 -51 -78 -102 -116 -153v-296h-70v301l-301 397h85z" />
    <glyph glyph-name="Z" unicode="Z" horiz-adv-x="646" 
d="M13 65l527 574h-498v62h583l-1 -66c-32 -33 -64 -66 -96 -100c-60 -66 -119 -133 -180 -199c-83 -92 -168 -183 -253 -273h537v-63h-619v65z" />
    <glyph glyph-name="bracketleft" unicode="[" horiz-adv-x="333" 
d="M129 704h202v-54h-136v-767h135v-53h-201v874z" />
    <glyph glyph-name="backslash" unicode="\" horiz-adv-x="354" 
d="M264 -18l-228 724h59l229 -724h-60z" />
    <glyph glyph-name="bracketright" unicode="]" horiz-adv-x="333" 
d="M-4 -117h138v767h-134v52h200v-872h-204v53z" />
    <glyph glyph-name="asciicircum" unicode="^" horiz-adv-x="729" 
d="M573 350h-76l-131 274l-134 -274h-76l180 356h63z" />
    <glyph glyph-name="underscore" unicode="_" horiz-adv-x="500" 
d="M510 -206h-520v59h520v-59z" />
    <glyph glyph-name="quoteleft" unicode="&#x2018;" horiz-adv-x="187" 
d="M133 717l-1 -45c-5 -5 -16 -13 -25 -28c-13 -19 -13 -39 -13 -85h38v-80h-79v102c2 39 4 72 30 101c15 17 31 25 50 35z" />
    <glyph glyph-name="a" unicode="a" horiz-adv-x="583" 
d="M109 350h-65c3 24 6 78 56 124c33 30 85 57 185 57c117 0 182 -31 208 -78c22 -37 19 -83 20 -97v-239c-1 -31 2 -60 37 -60c12 0 17 2 28 4l-1 -53c-28 -7 -41 -9 -56 -9c-19 0 -34 3 -47 15c-20 17 -24 42 -28 68c-20 -19 -41 -39 -62 -53c-61 -40 -147 -40 -166 -40
c-92 0 -146 35 -169 65c-10 13 -27 42 -27 86c0 18 3 67 43 102c36 31 78 38 122 45l132 19c50 7 84 13 103 26c15 11 24 30 24 50c0 10 -2 26 -15 44c-22 32 -62 45 -144 45c-53 0 -124 -12 -157 -58c-18 -25 -19 -53 -21 -63zM448 240v46c-82 -32 -89 -30 -178 -42
c-26 -4 -51 -9 -76 -14c-11 -2 -22 -4 -32 -7c-42 -11 -74 -33 -74 -80c0 -52 40 -98 143 -98c97 0 148 39 176 67c30 29 42 47 42 87c0 14 -1 27 -1 41z" />
    <glyph glyph-name="b" unicode="b" horiz-adv-x="646" 
d="M58 701h67v-290c14 20 24 34 31 41c24 26 86 76 182 76c28 0 93 -6 156 -51c36 -27 107 -95 107 -217c0 -30 -5 -111 -62 -180c-49 -59 -127 -93 -205 -93c-62 0 -132 23 -176 67c-11 11 -18 20 -33 45v-98h-67v700zM120 266c0 -15 -1 -53 15 -93
c31 -78 112 -127 192 -127c24 0 89 5 140 52c60 56 66 132 66 160s-6 106 -72 163c-9 8 -30 25 -60 35c-31 11 -64 11 -75 11c-33 0 -54 -5 -68 -10c-55 -18 -102 -61 -123 -116c-6 -14 -14 -38 -15 -75z" />
    <glyph glyph-name="c" unicode="c" horiz-adv-x="583" 
d="M553 348h-70c-8 19 -14 35 -26 51c-19 26 -64 67 -149 68c-16 0 -54 -2 -93 -19c-45 -20 -113 -68 -113 -191c0 -75 24 -116 45 -142c22 -26 70 -69 157 -69c24 0 108 3 154 68c15 21 22 43 30 69l67 -1c-12 -50 -22 -78 -57 -118c-32 -35 -83 -77 -192 -77
c-21 0 -80 1 -136 28c-57 27 -133 95 -133 242c0 36 5 74 18 107c41 107 143 163 255 163c86 0 169 -35 214 -110c14 -23 20 -43 29 -69z" />
    <glyph glyph-name="d" unicode="d" horiz-adv-x="646" 
d="M518 408v294h64v-703h-64l-1 110c-9 -15 -19 -30 -31 -43c-27 -31 -84 -77 -183 -77c-154 0 -263 116 -263 268c0 30 5 111 62 178c49 58 126 91 203 91c32 0 110 -5 173 -68c13 -13 21 -23 40 -50zM107 258c-1 -37 9 -139 110 -191c41 -21 81 -23 97 -23
c41 0 74 13 87 19c108 49 120 156 120 195c0 23 -5 86 -48 139c-38 46 -99 73 -159 73c-40 0 -72 -12 -84 -18c-110 -48 -123 -154 -123 -194z" />
    <glyph glyph-name="e" unicode="e" horiz-adv-x="604" 
d="M575 241h-472c8 -49 15 -91 49 -129c53 -61 132 -64 156 -64c26 0 89 3 140 55c17 17 27 35 40 57l67 -1c-4 -9 -8 -18 -11 -27c-9 -19 -22 -51 -61 -83c-27 -22 -88 -62 -181 -62c-86 0 -174 38 -222 114c-28 46 -41 108 -41 162c0 13 0 40 9 73c23 91 85 139 113 156
c15 9 40 21 80 30c26 5 45 8 71 8c16 0 55 -2 97 -17c71 -26 126 -87 150 -159c9 -29 13 -52 16 -113zM108 295h399c-2 10 -5 21 -7 31c-4 17 -16 57 -51 90c-20 19 -69 55 -145 55c-77 0 -152 -39 -182 -111c-7 -17 -11 -32 -14 -65z" />
    <glyph glyph-name="f" unicode="f" horiz-adv-x="292" 
d="M11 512h90c-1 27 -2 54 -1 81c2 44 4 117 114 117c31 0 71 -8 77 -9l-1 -57c-29 6 -41 7 -58 7c-10 0 -24 -1 -33 -4c-19 -6 -30 -17 -31 -61c-1 -26 0 -50 0 -73h122v-55h-122v-456h-68v456h-89v54z" />
    <glyph glyph-name="g" unicode="g" horiz-adv-x="646" 
d="M518 407v104h62v-449c-1 -22 -2 -43 -4 -63c-4 -32 -12 -108 -94 -153c-65 -36 -154 -36 -172 -36c-83 0 -169 14 -218 86c-15 23 -22 47 -29 73h72l6 -24c5 -13 14 -34 46 -52c27 -15 61 -24 127 -24c16 0 77 0 126 25c81 43 77 129 76 210c-5 -5 -23 -29 -44 -47
c-25 -22 -80 -61 -169 -61c-19 0 -66 3 -115 24c-134 58 -149 191 -149 240c0 31 6 108 60 172c50 59 130 93 209 93c29 -1 104 -5 167 -64c13 -12 24 -25 43 -54zM106 265c-1 -23 2 -84 43 -136c53 -66 136 -73 163 -73c24 0 83 4 133 45c47 38 75 101 75 164
c0 16 -1 51 -19 89c-48 100 -154 112 -189 112c-17 0 -55 -2 -95 -21c-96 -46 -110 -144 -111 -180z" />
    <glyph glyph-name="h" unicode="h" horiz-adv-x="604" 
d="M54 700h65l1 -294c5 7 15 24 30 41c48 54 130 76 201 76c104 0 159 -49 177 -89c10 -22 14 -46 17 -99v-334h-68v322c0 7 -1 14 -1 20c-1 17 -4 69 -48 100c-35 24 -86 24 -97 24c-27 0 -99 -5 -158 -58c-9 -9 -31 -30 -43 -63c-12 -34 -9 -83 -9 -120
c0 -16 0 -32 -1 -48v-176h-66v698z" />
    <glyph glyph-name="i" unicode="i" horiz-adv-x="187" 
d="M57 512h67v-510h-67v510zM59 700h66v-76h-66v76z" />
    <glyph glyph-name="j" unicode="j" horiz-adv-x="187" 
d="M59 -34v548h66v-554c1 -35 2 -69 -16 -101c-13 -25 -36 -43 -100 -43c-26 0 -66 5 -69 5v58c2 0 31 -5 50 -5c21 0 35 4 42 7c24 12 27 33 27 85zM59 701h67v-76h-67v76z" />
    <glyph glyph-name="k" unicode="k" horiz-adv-x="562" 
d="M126 701v-432l304 245l101 -1c-14 -9 -28 -19 -41 -29c-22 -17 -43 -35 -65 -53c-26 -21 -53 -41 -79 -62c-18 -15 -35 -29 -52 -44l123 -144c21 -25 42 -49 63 -74c19 -22 37 -44 56 -66c12 -14 25 -28 39 -41h-93l-243 283c-26 -16 -26 -18 -66 -49
c-15 -13 -31 -25 -46 -37v-194h-66v698h65z" />
    <glyph glyph-name="l" unicode="l" horiz-adv-x="187" 
d="M58 701h68v-700h-68v700z" />
    <glyph glyph-name="m" unicode="m" horiz-adv-x="1000" 
d="M122 511v-102c5 7 20 27 39 45c67 65 148 69 181 69c22 0 107 0 155 -61c16 -20 21 -36 30 -59c19 32 29 44 43 57c44 41 113 62 173 62c12 0 36 -1 65 -8c69 -17 97 -56 109 -84c11 -23 15 -46 17 -100v-330h-68v336c-2 27 -4 48 -18 72c-12 18 -33 41 -82 51
c-9 2 -25 5 -48 5c-28 0 -85 -5 -137 -57c-16 -16 -29 -35 -36 -55c-10 -25 -12 -44 -14 -94v-257h-68v332c0 7 0 33 -8 54c-11 32 -46 79 -130 79c-26 0 -93 -5 -148 -55c-8 -8 -27 -26 -39 -53c-9 -23 -12 -46 -13 -98v-260h-68v511h65z" />
    <glyph glyph-name="n" unicode="n" horiz-adv-x="604" 
d="M57 512h65v-104c12 16 21 29 35 44c27 26 92 71 189 71c18 0 95 -1 146 -46c20 -17 33 -37 41 -61c8 -23 8 -43 9 -69v-346h-68v295c0 14 0 29 -1 43c-3 47 -14 83 -56 107c-33 19 -70 19 -82 19c-57 0 -114 -15 -158 -54c-10 -8 -29 -26 -41 -56
c-13 -33 -13 -63 -12 -100v-253h-67v510z" />
    <glyph glyph-name="o" unicode="o" 
d="M38 255c-1 59 14 101 24 121c44 98 144 151 250 151c18 0 59 -2 105 -19c105 -40 164 -137 164 -250c0 -59 -17 -103 -26 -123c-44 -95 -144 -148 -247 -148c-18 0 -61 2 -108 20c-107 42 -162 135 -162 248zM104 271c-1 -18 -2 -61 18 -106c33 -73 109 -118 191 -118
c25 0 97 6 148 61c18 20 55 72 55 152c0 23 -4 86 -47 137c-38 45 -99 72 -159 72c-15 0 -49 -2 -85 -17c-101 -43 -118 -144 -121 -181z" />
    <glyph glyph-name="p" unicode="p" horiz-adv-x="646" 
d="M59 511h66l1 -104c11 18 24 38 39 52c23 23 84 66 173 66c31 0 104 -6 171 -63c85 -70 92 -170 92 -207c0 -47 -14 -175 -140 -240c-20 -10 -66 -31 -128 -31c-94 0 -154 47 -178 72c-10 10 -15 18 -30 39v-284h-66v700zM121 260c-1 -25 2 -91 49 -146
c19 -22 72 -70 159 -70c24 0 86 5 137 50c45 40 69 101 69 163c0 37 -10 136 -109 187c-29 14 -64 23 -97 23c-43 0 -74 -13 -89 -20c-103 -47 -118 -150 -119 -187z" />
    <glyph glyph-name="q" unicode="q" horiz-adv-x="646" 
d="M519 402v110h62v-699h-63l-1 292c-4 -7 -17 -28 -35 -48c-25 -26 -80 -73 -176 -73c-30 0 -107 6 -173 62c-59 50 -94 131 -94 211c0 90 42 151 63 176c50 59 129 92 209 92c32 0 113 -4 174 -74c16 -19 30 -43 34 -49zM106 258c0 -25 5 -91 52 -146
c39 -43 98 -68 156 -68c69 0 115 31 134 46c24 20 73 75 73 165c0 27 -6 98 -59 152c-38 39 -94 61 -149 61c-24 0 -86 -5 -137 -49c-24 -21 -69 -73 -70 -161z" />
    <glyph glyph-name="r" unicode="r" horiz-adv-x="375" 
d="M57 511h64v-97c8 15 21 37 32 50c32 38 83 58 134 58c25 0 47 -5 70 -9v-63c-9 3 -34 12 -65 12c-42 -1 -69 -15 -83 -23s-56 -35 -75 -84c-11 -30 -8 -57 -9 -121v-233h-68v510z" />
    <glyph glyph-name="s" unicode="s" horiz-adv-x="542" 
d="M331 222l-97 14c-17 2 -35 4 -53 7c-53 9 -103 26 -131 73c-5 10 -17 32 -17 63c0 62 44 96 63 108c33 21 78 37 166 37c20 0 92 2 154 -36c23 -15 34 -27 41 -36c16 -21 23 -39 37 -89l-70 1c-3 18 -5 25 -9 34c-28 58 -95 66 -154 66c-2 0 -69 1 -102 -11
c-31 -11 -59 -38 -60 -71c1 -14 6 -39 37 -56c21 -11 50 -16 102 -24c32 -5 63 -10 94 -14c57 -8 75 -11 102 -24c20 -10 76 -45 76 -116c0 -11 -2 -31 -13 -56c-35 -79 -128 -93 -148 -96c-13 -2 -43 -7 -81 -7c-125 0 -193 46 -223 92c-23 33 -27 68 -29 82l64 -1
c12 -33 18 -47 28 -60c43 -54 151 -53 159 -53c4 0 70 1 109 13c17 6 28 13 33 18c8 6 33 29 33 63c0 16 -6 29 -9 34c-19 35 -67 40 -102 45z" />
    <glyph glyph-name="t" unicode="t" horiz-adv-x="292" 
d="M1 510h90v155h67v-154h122v-53h-123v-336c0 -7 -3 -33 9 -50c5 -7 11 -13 18 -16c8 -3 18 -4 27 -4s18 1 27 2l39 3v-58c-41 -5 -57 -7 -79 -7c-40 0 -75 8 -95 44c-12 22 -12 44 -12 68v354h-90v52z" />
    <glyph glyph-name="u" unicode="u" horiz-adv-x="604" 
d="M58 512h68v-319c1 -37 3 -71 28 -101c16 -19 51 -44 114 -44c25 0 88 3 144 46c10 7 36 29 50 62c13 32 14 69 15 105v250h65v-510h-63l-1 101c-14 -18 -26 -33 -43 -48c-66 -59 -150 -64 -181 -64c-107 0 -161 49 -180 92c-11 24 -15 46 -16 98v332z" />
    <glyph glyph-name="v" unicode="v" horiz-adv-x="542" 
d="M470 512h69l-231 -511h-70l-235 510h73c41 -87 83 -174 121 -263c27 -60 52 -122 78 -183c28 72 57 142 88 212c35 79 71 157 107 235z" />
    <glyph glyph-name="w" unicode="w" horiz-adv-x="833" 
d="M458 512l147 -442c18 57 36 113 55 168c15 45 31 90 47 135c16 46 31 93 45 139h73c-6 -14 -12 -27 -17 -40c-7 -20 -14 -40 -20 -61c-5 -14 -10 -29 -15 -44l-66 -180c-22 -62 -43 -124 -65 -186h-78c-22 64 -45 127 -66 191c-29 87 -57 174 -85 261
c-19 -64 -39 -127 -60 -191c-29 -87 -58 -174 -88 -261h-85l-176 511h70c23 -69 47 -137 70 -205c17 -48 35 -96 51 -145c11 -34 21 -67 31 -101c13 45 26 90 40 134c14 42 29 83 43 125c22 64 43 128 63 192h86z" />
    <glyph glyph-name="x" unicode="x" horiz-adv-x="562" 
d="M238 265l-216 246h88l172 -202l171 200l87 -1c-43 -47 -85 -94 -127 -141c-30 -34 -59 -68 -88 -102l235 -267h-86l-196 223l-197 -223h-84z" />
    <glyph glyph-name="y" unicode="y" horiz-adv-x="562" 
d="M285 69l205 442h73l-13 -24l-38 -82l-12 -25l-129 -276l-4 -6l-59 -125c-26 -59 -42 -91 -62 -115c-21 -26 -51 -48 -124 -48c-22 0 -45 2 -67 5v64c35 -6 50 -8 69 -8c69 0 80 27 126 123l-247 517h74c19 -38 37 -76 55 -113c20 -42 38 -84 58 -126
c21 -44 44 -87 64 -131c11 -24 21 -48 31 -72z" />
    <glyph glyph-name="z" unicode="z" horiz-adv-x="542" 
d="M411 454h-370v58h458v-61l-395 -392h410v-59h-495v61c63 63 126 126 189 188c38 38 77 76 115 115c30 29 59 60 88 90z" />
    <glyph glyph-name="braceleft" unicode="{" horiz-adv-x="354" 
d="M152 414v169c1 48 8 96 45 130c17 15 37 23 44 25c18 6 53 8 72 10v-6c-30 -8 -55 -16 -74 -44c-25 -36 -22 -82 -22 -122v-99c0 -35 0 -70 -2 -105c0 -6 -1 -56 -22 -86c-14 -21 -32 -30 -55 -38c9 -3 29 -9 47 -27c36 -38 32 -91 33 -189v-111c0 -57 2 -81 15 -108
c18 -37 44 -47 80 -58v-5c-11 1 -21 2 -32 3c-15 1 -58 3 -91 37c-39 41 -37 104 -38 154v163c0 37 0 78 -24 110c-16 21 -34 27 -44 30v5c8 2 28 7 43 26c27 32 24 100 25 136z" />
    <glyph glyph-name="bar" unicode="|" horiz-adv-x="229" 
d="M144 -250h-59v998h59v-998z" />
    <glyph glyph-name="braceright" unicode="}" horiz-adv-x="354" 
d="M203 83v-126c-1 -15 -1 -29 -1 -43c-1 -47 -8 -95 -45 -129c-17 -16 -37 -23 -44 -26c-18 -6 -53 -8 -72 -9v5c30 8 55 17 74 44c25 36 22 83 22 122v100c0 35 0 70 2 105c1 29 5 61 22 86c18 26 46 34 55 37c-9 3 -29 9 -46 28c-37 37 -33 91 -34 188v152
c-1 13 -1 73 -46 104c-15 11 -32 16 -49 21v6c10 -1 21 -2 31 -3c15 -2 61 -4 95 -41c37 -41 35 -101 35 -151v-162c0 -37 0 -78 24 -110c16 -21 34 -27 44 -31v-5c-7 -2 -28 -7 -43 -25c-27 -32 -24 -101 -24 -137z" />
    <glyph glyph-name="asciitilde" unicode="~" horiz-adv-x="729" 
d="M370 255l-29 14c-6 3 -47 25 -83 25c-46 0 -66 -33 -91 -65l-33 55c11 16 50 79 124 79c40 0 77 -18 112 -35l33 -15c33 -14 45 -20 65 -20c43 1 71 32 96 63l31 -55c-49 -62 -90 -77 -128 -77c-28 0 -48 8 -97 31z" />
    <glyph glyph-name="exclamdown" unicode="&#xa1;" horiz-adv-x="229" 
d="M49 701h82v-81h-82v81zM69 535h45c6 -117 11 -234 12 -352c0 -61 0 -121 -1 -182h-71c1 59 2 117 1 175c0 30 -1 59 1 89c2 49 6 99 8 148c2 41 3 81 5 122z" />
    <glyph glyph-name="sterling" unicode="&#xa3;" horiz-adv-x="667" 
d="M623 479h-68c-1 7 -4 46 -15 72c-20 45 -73 97 -186 97c-14 0 -52 -1 -90 -15c-85 -32 -101 -100 -101 -135c0 -34 10 -70 35 -132h226v-45l-209 -1c4 -12 22 -51 22 -92c0 -23 -6 -42 -8 -50c-15 -43 -48 -76 -80 -108c17 7 49 22 99 22c54 0 90 -17 141 -29
c9 -2 37 -8 66 -8c56 0 100 24 149 51l22 -58c-30 -17 -82 -52 -166 -52c-42 0 -86 9 -128 20c-35 10 -73 21 -109 21c-60 0 -106 -28 -124 -37l-36 59c12 8 23 16 35 25c64 51 73 98 73 135c0 36 -10 69 -21 102h-96v45l76 1c-17 45 -31 83 -31 134c0 34 7 62 23 92
c62 112 202 116 234 116c36 0 179 -4 240 -124c14 -28 19 -48 27 -106z" />
    <glyph glyph-name="fraction" unicode="&#x2044;" horiz-adv-x="125" 
d="M243 701h52l-414 -699h-53c44 72 87 144 130 217c43 72 85 145 128 217c52 89 105 177 157 265z" />
    <glyph glyph-name="section" unicode="&#xa7;" 
d="M525 615l-65 1c-3 22 -6 41 -16 59c-35 61 -141 60 -148 60c-9 0 -29 0 -53 -6c-15 -4 -90 -25 -90 -92c0 -23 10 -39 14 -45c24 -30 83 -45 159 -70c31 -11 63 -23 95 -34c38 -13 83 -25 117 -52c45 -35 49 -87 49 -107c0 -23 -5 -76 -56 -113c-18 -14 -43 -24 -48 -27
c23 -17 58 -38 58 -105c0 -13 -2 -41 -17 -72c-51 -99 -192 -97 -212 -97c-96 0 -144 20 -177 48c-23 19 -36 40 -41 50c-12 25 -17 52 -22 79h65c7 -39 13 -65 45 -90c34 -27 71 -31 113 -31c91 0 130 13 159 46c15 17 23 39 23 62c0 63 -64 82 -76 86l-88 32
c-39 13 -78 27 -116 41c-25 8 -49 16 -72 27c-76 34 -90 83 -90 121c0 30 11 62 29 86c21 28 46 41 77 58c-8 8 -16 15 -23 23c-10 12 -32 39 -31 82c0 18 5 57 39 93c28 30 81 61 179 61c60 -1 120 -9 165 -49c9 -7 27 -24 39 -52c13 -28 15 -65 16 -73zM182 505
c-16 -7 -24 -11 -31 -16c-31 -19 -52 -55 -52 -93c0 -16 4 -30 12 -43c20 -31 54 -39 85 -51c15 -5 30 -10 45 -16c67 -24 135 -47 203 -71c19 9 82 34 82 107c0 80 -78 93 -199 133c-47 16 -96 33 -145 50z" />
    <glyph glyph-name="currency" unicode="&#xa4;" horiz-adv-x="667" 
d="M535 182l74 -75l-46 -45l-74 75c-9 -7 -18 -14 -28 -20c-20 -13 -64 -34 -128 -34c-44 0 -86 10 -124 32c-12 7 -21 14 -32 22l-75 -73l-45 45l75 73c-19 26 -55 75 -55 159c0 83 36 130 55 155l-73 73l45 45l73 -72c24 18 74 54 157 54c22 0 76 -3 128 -34
c10 -6 19 -13 28 -20l74 73l46 -46l-74 -74c8 -10 15 -20 22 -31c21 -36 32 -80 32 -124c0 -22 -2 -74 -33 -125c-9 -16 -18 -28 -22 -33zM529 340c0 22 -2 72 -39 121c-19 24 -69 76 -156 76c-112 0 -197 -85 -197 -197c1 -113 87 -198 199 -198c22 0 69 3 116 38
c27 21 77 70 77 160z" />
    <glyph glyph-name="quotesingle" unicode="'" horiz-adv-x="208" 
d="M113 445h-19l-33 243c0 3 -2 13 0 23c5 34 35 38 46 38c4 0 14 -1 23 -7c21 -13 18 -35 18 -42z" />
    <glyph glyph-name="quotedblleft" unicode="&#x201c;" horiz-adv-x="354" 
d="M133 716l-1 -42s-16 -14 -23 -24c-16 -20 -16 -40 -15 -90h39v-78h-82c0 35 -1 70 0 105c1 29 4 54 18 79c17 28 35 37 64 50zM299 716v-42c-16 -14 -22 -21 -27 -29c-13 -19 -13 -38 -12 -85h40v-78h-82v97c0 12 -2 51 16 84c16 29 36 39 65 53z" />
    <glyph glyph-name="guillemotleft" unicode="&#xab;" horiz-adv-x="458" 
d="M35 309l177 128v-71l-143 -106c12 -8 25 -16 37 -25c14 -10 28 -22 43 -33c21 -16 42 -31 63 -47v-71l-177 131v94zM240 307l177 130v-71l-141 -106l141 -104v-72l-177 132v91z" />
    <glyph glyph-name="fi" unicode="&#xfb01;" horiz-adv-x="479" 
d="M11 512h90c-1 27 -2 54 -1 81c2 44 4 117 114 117c31 0 71 -8 77 -9l-1 -57c-29 6 -41 7 -58 7c-10 0 -24 -1 -33 -4c-19 -6 -30 -17 -31 -61c-1 -26 0 -50 0 -73h122v-55h-122v-456h-68v456h-89v54zM349 512h67v-510h-67v510zM351 700h66v-76h-66v76z" />
    <glyph glyph-name="fl" unicode="&#xfb02;" horiz-adv-x="479" 
d="M11 512h90c-1 27 -2 54 -1 81c2 44 4 117 114 117c31 0 71 -8 77 -9l-1 -57c-29 6 -41 7 -58 7c-10 0 -24 -1 -33 -4c-19 -6 -30 -17 -31 -61c-1 -26 0 -50 0 -73h122v-55h-122v-456h-68v456h-89v54zM350 701h68v-700h-68v700z" />
    <glyph glyph-name="endash" unicode="&#x2013;" 
d="M26 313h569v-62h-569v62z" />
    <glyph glyph-name="dagger" unicode="&#x2020;" horiz-adv-x="562" 
d="M17 470h228v232h66v-231h229v-60h-229v-571h-67v571h-227v59z" />
    <glyph glyph-name="periodcentered" unicode="&#xb7;" horiz-adv-x="187" 
d="M92 230c-11 0 -20 3 -23 5c-21 9 -35 33 -35 55c0 33 28 59 60 59c5 0 13 0 22 -4c22 -9 37 -32 37 -56c0 -33 -28 -60 -61 -59z" />
    <glyph glyph-name="paragraph" unicode="&#xb6;" horiz-adv-x="667" 
d="M531 706v-44h-33v-829h-46v829h-157v-829h-46v498c-8 1 -28 3 -48 10c-75 28 -111 96 -111 172c0 12 0 36 10 65c18 57 63 99 120 117c29 9 60 11 90 11h221z" />
    <glyph glyph-name="bullet" unicode="&#x2022;" horiz-adv-x="333" 
d="M286 353c0 -25 -7 -43 -11 -52c-19 -43 -60 -67 -107 -67c-9 0 -29 1 -51 11c-43 19 -70 60 -70 107c1 68 55 120 122 120c66 0 117 -52 117 -119z" />
    <glyph glyph-name="quotesinglbase" unicode="&#x201a;" horiz-adv-x="187" 
d="M47 82h83v-101c0 -46 -4 -82 -41 -110c-13 -10 -40 -23 -41 -24v43c16 13 21 18 27 27c14 18 14 38 14 83h-42v82z" />
    <glyph glyph-name="quotedblbase" unicode="&#x201e;" horiz-adv-x="354" 
d="M92 -1h-40v82h81v-96c0 -3 -2 -40 -7 -62c-14 -55 -57 -72 -75 -82v45c1 0 15 10 21 17c22 24 21 63 20 96zM259 -1h-40v80h81c0 -35 1 -70 0 -105c0 -11 0 -44 -15 -73c-16 -30 -37 -42 -66 -58v45c3 2 11 7 19 15c20 20 21 44 21 96z" />
    <glyph glyph-name="quotedblright" unicode="&#x201d;" horiz-adv-x="354" 
d="M94 623h-42v79h81v-99c-3 -42 -5 -79 -35 -108c-14 -15 -27 -20 -46 -28v42c3 2 15 9 22 19c26 30 20 91 20 95zM259 623h-40v79h81v-102c-3 -35 -5 -69 -28 -98c-15 -19 -31 -26 -53 -34v41c4 4 14 12 23 23c17 20 17 40 17 91z" />
    <glyph glyph-name="guillemotright" unicode="&#xbb;" horiz-adv-x="458" 
d="M34 157l141 103l-140 106v71l177 -133v-89l-178 -131v73zM240 156l141 105l-141 104v73l177 -133v-90l-177 -133v74z" />
    <glyph glyph-name="ellipsis" unicode="&#x2026;" horiz-adv-x="1000" 
d="M880 41c0 -25 -21 -47 -46 -47c-27 0 -47 21 -47 47c0 27 22 46 47 46c26 0 46 -19 46 -46zM547 41c0 -25 -20 -48 -47 -47c-27 0 -46 21 -46 47s21 46 47 46s45 -19 46 -46zM213 41c0 -25 -19 -48 -46 -47c-26 0 -47 21 -47 47c0 27 22 46 47 46c27 0 46 -19 46 -46z
" />
    <glyph glyph-name="questiondown" unicode="&#xbf;" horiz-adv-x="583" 
d="M257 536h70c0 -6 3 -49 -7 -76c-24 -67 -132 -120 -177 -166c-14 -15 -40 -45 -40 -99c0 -41 16 -68 24 -80c21 -28 65 -61 147 -61c69 0 104 21 127 42c20 18 32 40 36 48c11 25 14 52 17 81l68 -1c-1 -29 1 -94 -50 -154c-50 -58 -117 -77 -193 -77
c-18 0 -77 1 -129 23c-106 46 -119 144 -119 184c0 93 60 149 132 197c14 9 28 18 41 28c58 44 55 73 53 111zM251 702h82v-80h-82v80z" />
    <glyph glyph-name="grave" unicode="`" horiz-adv-x="333" 
d="M-7 714l86 -139h-55l-119 139h88z" />
    <glyph glyph-name="acute" unicode="&#xb4;" horiz-adv-x="333" 
d="M104 715h93l-123 -139h-55z" />
    <glyph glyph-name="circumflex" unicode="&#x2c6;" horiz-adv-x="333" 
d="M9 716h86l130 -137h-74l-99 102l-99 -103h-75z" />
    <glyph glyph-name="tilde" unicode="&#x2dc;" horiz-adv-x="333" 
d="M192 700l44 -1c-4 -18 -8 -36 -16 -52s-33 -57 -86 -57c-40 0 -74 21 -108 38c-29 15 -43 21 -59 21c-6 0 -17 -1 -29 -7c-14 -8 -21 -19 -32 -51l-43 1c4 17 8 34 15 51c8 16 33 58 87 58c40 0 76 -23 109 -41c29 -15 42 -21 58 -21c11 0 19 3 28 7c14 8 21 19 32 54z
" />
    <glyph glyph-name="dieresis" unicode="&#xa8;" horiz-adv-x="333" 
d="M-107 685h72v-77h-72v77zM134 686h72v-77h-72v77z" />
    <glyph glyph-name="cedilla" unicode="&#xb8;" horiz-adv-x="333" 
d="M68 -128h-61v84h101c1 -18 1 -37 1 -55c-1 -12 -2 -80 -52 -112c-10 -6 -24 -11 -50 -16v34c42 15 49 23 61 65z" />
    <glyph glyph-name="caron" unicode="&#x2c7;" horiz-adv-x="333" 
d="M50 612l99 104h76c-26 -25 -51 -50 -76 -75c-19 -21 -39 -42 -58 -62h-86l-130 137l79 -1c27 -35 33 -38 52 -57c15 -15 30 -31 44 -46z" />
    <glyph glyph-name="emdash" unicode="&#x2014;" horiz-adv-x="667" 
d="M667 262h-667v59h667v-59z" />
    <glyph glyph-name="AE" unicode="&#xc6;" horiz-adv-x="1104" 
d="M371 701h694v-63h-459v-251h435v-63h-435v-259h470v-65h-542v217h-339l-115 -216h-79zM410 639l-186 -362h311v362h-125z" />
    <glyph glyph-name="Oslash" unicode="&#xd8;" horiz-adv-x="833" 
d="M668 636l93 92l29 -31c-18 -16 -36 -33 -54 -51c-13 -13 -25 -26 -38 -40c10 -13 20 -27 30 -40c26 -38 63 -102 63 -212c0 -144 -69 -277 -204 -335c-22 -9 -54 -21 -108 -28c-13 -2 -37 -5 -71 -5c-137 0 -204 51 -253 84l-94 -93l-26 30l92 92c-10 15 -21 29 -31 44
c-24 36 -59 99 -59 203c0 24 3 84 26 146c56 150 191 226 350 226c45 0 90 -6 132 -18c51 -15 78 -33 123 -64zM177 145l443 441c-9 9 -17 16 -28 23c-26 18 -91 46 -176 46c-23 0 -74 -1 -130 -23c-117 -45 -177 -149 -177 -274c0 -7 1 -38 5 -65c10 -63 27 -95 63 -148z
M650 561l-444 -442c8 -7 19 -17 39 -29c49 -28 116 -42 174 -42c46 0 91 8 132 26c157 67 169 229 169 283c0 8 -1 41 -6 69c-11 58 -30 88 -64 135z" />
    <glyph glyph-name="OE" unicode="&#x152;" horiz-adv-x="1188" 
d="M622 610v91h519v-63h-453v-249h430v-65h-431v-261h464v-63h-529v92c-4 -5 -27 -31 -47 -48c-29 -22 -100 -61 -201 -61c-32 0 -139 6 -221 75c-83 70 -117 182 -117 287c0 40 5 180 101 275c88 88 212 96 252 96c97 -1 157 -36 187 -60c19 -15 30 -28 46 -46zM620 236
v242c0 11 0 21 -2 32c-3 22 -10 48 -51 82c-28 23 -83 61 -176 61c-23 0 -96 -3 -157 -39c-56 -33 -126 -110 -126 -265c0 -29 0 -135 65 -214c50 -60 131 -88 212 -88c129 0 202 67 224 113c9 19 11 34 11 76z" />
    <glyph glyph-name="ae" unicode="&#xe6;" horiz-adv-x="1021" 
d="M114 351l-69 1c2 11 5 22 8 33c4 18 17 60 55 92c63 53 170 53 190 53c14 0 29 0 44 -2c14 -1 99 -5 147 -55c10 -11 17 -23 30 -49c10 13 23 31 36 43c60 58 148 63 172 63c26 0 105 -6 168 -55c24 -19 66 -61 87 -136c6 -24 10 -47 12 -98h-469c0 -3 1 -27 4 -44
c13 -64 56 -103 76 -116c18 -13 61 -34 122 -34c75 0 118 33 139 54c17 17 28 37 40 58l69 -1c-12 -29 -20 -49 -40 -75c-68 -90 -180 -96 -214 -96c-104 0 -167 48 -195 78c-14 15 -25 33 -37 50c-11 -21 -28 -59 -77 -89c-46 -27 -109 -38 -165 -38c-29 0 -54 3 -64 4
c-18 3 -91 11 -132 65c-9 12 -28 41 -28 84c0 40 17 77 47 102c39 34 84 40 132 45l166 17c6 0 11 1 17 2c14 2 74 11 74 70c0 33 -23 58 -50 72c-25 14 -61 21 -127 21c-42 0 -81 -6 -117 -30c-8 -5 -25 -17 -37 -38c-11 -18 -12 -30 -14 -51zM371 250l-144 -18
c-57 -7 -86 -16 -108 -33c-15 -12 -20 -25 -23 -33s-5 -18 -5 -27s2 -28 18 -48c26 -32 68 -45 152 -45c77 0 116 19 144 42c6 5 26 23 37 47c15 31 17 79 18 87v59c-37 -22 -46 -25 -89 -31zM528 292l396 1c-3 24 -6 42 -17 65c-45 102 -153 110 -186 110
c-62 0 -111 -20 -150 -65c-7 -9 -25 -31 -35 -60c-5 -16 -7 -34 -8 -51z" />
    <glyph glyph-name="dotlessi" unicode="&#x131;" horiz-adv-x="187" 
d="M57 512h67v-510h-67v510z" />
    <glyph glyph-name="oslash" unicode="&#xf8;" 
d="M488 468l66 67l25 -25l-64 -67c12 -16 21 -29 31 -46c33 -55 35 -118 35 -139c0 -100 -47 -164 -73 -191c-27 -28 -95 -80 -203 -80c-93 0 -148 41 -178 62l-68 -72l-27 28l70 69c-24 35 -64 85 -64 186c0 162 122 266 277 266c19 0 81 -2 134 -32c16 -9 35 -24 39 -26z
M147 119l296 303c-25 20 -57 48 -134 47c-125 0 -207 -94 -207 -216c0 -74 26 -107 45 -134zM470 398c-34 -34 -67 -68 -100 -102c-46 -46 -93 -92 -137 -139c-20 -20 -40 -41 -59 -63c27 -20 62 -49 141 -49c11 0 43 1 74 13c84 33 128 117 128 204c0 74 -28 110 -47 136z
" />
    <glyph glyph-name="oe" unicode="&#x153;" horiz-adv-x="1083" 
d="M1059 240l-474 -1c3 -16 7 -33 11 -49c9 -38 33 -112 134 -136c27 -7 52 -8 62 -8c80 0 129 39 150 63c12 13 21 32 29 47h67c-9 -23 -17 -44 -30 -64c-68 -100 -189 -106 -224 -106c-105 0 -168 51 -195 82c-11 12 -20 27 -36 57c-19 -33 -29 -46 -42 -60
c-27 -28 -97 -78 -203 -78c-29 0 -104 4 -172 58c-36 29 -97 95 -97 211c0 100 45 163 69 190c51 55 131 83 208 83c32 0 132 -6 202 -85c12 -14 21 -27 38 -57c11 21 22 42 37 60c27 30 91 81 195 81c105 0 208 -54 247 -156c16 -43 20 -86 24 -132zM106 257
c0 -18 2 -60 24 -103c48 -96 147 -107 183 -107c26 0 87 4 140 49c46 39 71 101 71 163c0 42 -12 72 -18 87c-47 111 -154 125 -194 125c-36 0 -61 -8 -74 -13c-120 -43 -132 -160 -132 -201zM589 291h402c-2 10 -6 45 -22 75c-34 66 -107 103 -182 103
c-33 0 -132 -9 -177 -105c-8 -17 -14 -36 -21 -73z" />
    <glyph glyph-name="germandbls" unicode="&#xdf;" horiz-adv-x="583" 
d="M223 -1v61c10 -2 49 -10 84 -10c19 0 78 2 123 40c49 40 53 99 53 119c0 79 -47 109 -74 122c-58 28 -121 24 -184 21l1 63c22 -2 44 -3 67 -3c85 0 119 24 140 57c5 8 19 34 19 65c0 34 -15 55 -24 66c-23 28 -59 50 -136 50c-81 0 -128 -26 -148 -56
c-22 -32 -20 -76 -20 -87c0 -30 1 -61 1 -91c0 -22 -1 -43 -1 -65v-351h-66v474c-2 61 -1 113 35 162c9 11 20 22 22 24c23 20 52 32 81 39c18 5 50 13 97 13c14 0 51 -1 88 -12c78 -24 136 -81 136 -166c0 -62 -35 -101 -51 -115c-17 -14 -38 -24 -58 -34
c33 -9 43 -12 59 -21c34 -18 84 -62 84 -154c0 -29 -4 -94 -59 -151c-27 -28 -84 -70 -184 -70c-38 0 -74 8 -85 10z" />
    <glyph glyph-name="Grave" unicode="&#xf6ce;" horiz-adv-x="333" 
d="M-10 885l87 -129h-55l-131 129h99z" />
    <glyph glyph-name="Acute" unicode="&#xf6c9;" horiz-adv-x="333" 
d="M111 887h104c-13 -11 -26 -22 -38 -34c-13 -13 -26 -26 -40 -39c-19 -19 -38 -37 -58 -56h-55z" />
    <glyph glyph-name="Circumflex" horiz-adv-x="333" 
d="M8 889h88l129 -137h-77l-98 105l-98 -104h-75z" />
    <glyph glyph-name="Tilde" horiz-adv-x="333" 
d="M197 877h47c-5 -23 -10 -47 -23 -66c-9 -14 -35 -45 -80 -45c-8 0 -18 1 -34 5c-24 6 -62 26 -85 37c-17 8 -36 18 -55 18c-3 0 -15 -1 -25 -6c-22 -10 -28 -28 -37 -52l-46 1c7 26 11 38 16 50c17 37 49 60 89 60s79 -19 113 -36c30 -15 50 -24 64 -24c4 0 13 0 23 5
c20 10 27 31 33 53z" />
    <glyph glyph-name="Dieresis" unicode="&#xf6cb;" horiz-adv-x="333" 
d="M-117 864h77v-83h-77v83zM146 865h76v-83h-76v83z" />
    <glyph glyph-name="Caron" unicode="&#xf6ca;" horiz-adv-x="333" 
d="M-42 893l93 -106l97 103h80l-136 -136h-86l-127 139h79z" />
    <glyph glyph-name="Adieresis" unicode="&#xc4;" horiz-adv-x="750" 
d="M328 701h89l326 -702h-80l-99 216h-387l-99 -214h-77zM372 645l-167 -369h330zM205 863h76v-83h-76v83zM468 863h75v-83h-75v83z" />
    <glyph glyph-name="Aring" unicode="&#xc5;" horiz-adv-x="750" 
d="M328 701h89l326 -702h-80l-99 216h-387l-99 -214h-77zM372 645l-167 -369h330zM265 837c4 28 30 83 108 83c15 0 74 -3 100 -48c4 -8 12 -23 11 -45c0 -6 -1 -22 -8 -37c-10 -23 -38 -58 -100 -58c-19 0 -31 3 -39 5c-68 17 -75 74 -72 100zM309 840c-1 -5 -4 -20 2 -35
c12 -35 54 -39 64 -39c33 0 65 23 65 59c0 35 -33 59 -68 59c-44 -1 -59 -30 -63 -44z" />
    <glyph glyph-name="Odieresis" unicode="&#xd6;" horiz-adv-x="833" 
d="M37 363c1 41 8 146 88 236c99 112 247 118 294 118c132 0 207 -48 248 -84c44 -37 124 -127 124 -281c0 -99 -37 -199 -105 -267c-70 -69 -175 -99 -272 -99c-38 0 -164 4 -257 83c-85 72 -123 185 -120 294zM108 357c-3 -123 52 -197 88 -230c33 -31 103 -78 222 -78
c31 0 109 2 183 53c112 77 119 210 119 252c0 124 -58 200 -97 233c-29 25 -104 69 -211 69c-115 0 -189 -52 -220 -82c-77 -75 -84 -183 -84 -217zM245 863h77v-83h-77v83zM509 863h75v-83h-75v83z" />
    <glyph glyph-name="Udieresis" unicode="&#xdc;" horiz-adv-x="750" 
d="M64 701h72v-442c2 -53 5 -94 40 -136c61 -73 172 -74 195 -74c125 1 191 46 216 96c20 40 22 84 23 127v429h71v-444c0 -15 -1 -30 -2 -45c-3 -26 -10 -96 -67 -150c-78 -75 -221 -77 -241 -77c-27 0 -56 3 -82 7c-86 15 -130 48 -157 76c-11 11 -37 39 -51 79
c-18 49 -19 102 -17 213v341zM204 863h76v-83h-76v83zM467 863h75v-82h-75v82z" />
    <glyph glyph-name="adieresis" unicode="&#xe4;" horiz-adv-x="583" 
d="M110 350h-66c6 37 11 65 33 96c32 45 92 84 215 84c15 0 114 3 173 -45c6 -5 21 -18 31 -37c16 -31 17 -59 18 -94v-257c0 -12 1 -41 39 -41c8 0 17 2 25 3l-1 -51c-20 -5 -35 -10 -56 -10c-16 0 -53 3 -67 47c-3 9 -4 20 -6 39c-28 -28 -54 -54 -89 -70
c-24 -11 -71 -26 -137 -26c-87 0 -140 31 -165 58c-23 24 -35 60 -35 94c0 17 3 64 39 98c35 33 80 41 124 48l179 26c5 1 11 2 16 3c36 7 69 24 69 64c0 11 -2 29 -18 49c-34 40 -91 42 -143 42c-16 0 -71 2 -118 -24c-22 -12 -33 -25 -38 -33c-10 -15 -15 -27 -22 -63z
M350 256l-113 -18c-23 -4 -46 -9 -68 -14c-32 -8 -57 -19 -70 -49c-2 -4 -7 -19 -7 -34c0 -24 11 -49 28 -64c18 -17 57 -33 120 -33c34 0 110 5 175 72c3 3 27 26 34 50c1 4 2 13 3 25v100c-42 -23 -55 -26 -102 -35zM135 683h71v-78h-71v78zM376 684h73v-78h-73v78z" />
    <glyph glyph-name="aring" unicode="&#xe5;" horiz-adv-x="583" 
d="M110 350h-66c2 12 4 24 7 36c5 21 16 61 60 95c66 51 155 49 180 49c12 0 24 -1 36 -1c105 -6 154 -45 174 -90c9 -22 12 -38 13 -83v-241c0 -24 0 -46 18 -55c3 -1 11 -4 21 -4c7 0 13 1 27 4l-1 -51c-4 -1 -34 -11 -57 -11c-47 0 -62 30 -68 46c-4 15 -5 25 -6 41
c-6 -6 -33 -35 -58 -53c-62 -43 -145 -44 -167 -44c-19 0 -73 1 -123 27c-25 12 -77 44 -77 122c0 13 2 45 20 76c31 52 84 65 196 82l130 18c9 2 80 7 80 68c-1 28 -16 50 -39 65c-33 23 -78 24 -119 24c-15 0 -78 2 -125 -27c-7 -4 -22 -13 -34 -30s-17 -42 -22 -63z
M450 240v46c-16 -6 -32 -12 -49 -18c-49 -16 -103 -21 -154 -29c-66 -10 -104 -17 -129 -36c-27 -20 -29 -50 -29 -63c0 -21 6 -37 19 -53c31 -36 79 -43 124 -43c96 1 146 39 175 66c42 40 44 61 44 90c0 13 -1 27 -1 40zM182 662c4 27 32 79 108 79c34 0 71 -11 91 -35
c7 -8 20 -29 20 -59c0 -17 -5 -35 -14 -49c-27 -42 -77 -44 -92 -44c-8 0 -24 0 -42 5c-68 19 -75 76 -71 103zM225 663c-4 -11 -3 -23 1 -34c9 -26 39 -41 67 -41c5 0 16 1 27 4c23 9 41 29 41 53c0 37 -33 61 -68 61c-30 0 -61 -17 -68 -43z" />
    <glyph glyph-name="odieresis" unicode="&#xf6;" 
d="M38 276c1 15 5 58 23 100c45 98 145 151 251 151c20 0 59 -1 105 -19c149 -57 164 -202 164 -253c0 -22 -2 -77 -31 -130c-46 -87 -147 -137 -244 -137c-52 0 -87 13 -106 20c-62 24 -172 95 -162 268zM104 264c-2 -50 13 -103 44 -142c19 -23 74 -75 164 -75
c38 0 66 10 79 15c113 45 124 159 124 197c0 25 -4 93 -53 145c-39 41 -96 65 -154 65c-12 0 -44 -2 -76 -15c-111 -42 -127 -151 -128 -190zM155 683h72v-78h-72v78zM468 683v-78h-72v78h72z" />
    <glyph glyph-name="udieresis" unicode="&#xfc;" horiz-adv-x="604" 
d="M58 512h68v-322c1 -35 3 -65 24 -93c16 -21 52 -49 118 -49c25 0 100 3 156 56c19 18 34 41 43 65c9 27 10 53 10 83v260h64v-511h-62l-1 102c-4 -5 -20 -27 -36 -43c-27 -26 -88 -70 -186 -70c-15 0 -70 1 -115 24c-9 4 -21 11 -37 26c-7 6 -21 20 -30 41
c-11 23 -14 45 -16 99v332zM145 682h71v-77h-71v77zM386 682h73v-77h-73v77z" />
    <glyph glyph-name="degree" unicode="&#xb0;" horiz-adv-x="354" 
d="M177 748c82 0 147 -66 147 -147c0 -10 -1 -33 -12 -58c-23 -54 -77 -89 -135 -89c-82 0 -147 66 -147 147s66 147 147 147zM176 688c-47 -1 -86 -39 -86 -88c0 -47 39 -86 87 -86c49 0 86 39 86 87c0 49 -38 87 -87 87z" />
    <glyph glyph-name="registered" unicode="&#xae;" horiz-adv-x="833" 
d="M587 132l-75 1c-13 28 -17 53 -25 111c-8 53 -19 71 -46 84c-24 11 -44 11 -70 11h-32v-207h-65v445h137c51 0 108 3 146 -40c8 -11 25 -35 25 -71c0 -58 -39 -84 -57 -94c-9 -4 -22 -9 -42 -13c11 -4 22 -8 32 -16c35 -27 37 -71 44 -111c2 -13 8 -59 28 -100zM340 391
h75c3 0 49 -2 75 15c10 7 26 24 26 55c0 14 -4 29 -13 41c-19 25 -47 25 -103 25h-60v-136zM773 351c0 -43 -9 -140 -85 -229c-94 -112 -221 -125 -271 -125c-79 0 -156 26 -218 73c-46 36 -138 126 -138 284c0 118 52 193 81 228c37 43 125 127 276 127
c113 0 217 -50 286 -143c47 -63 70 -137 69 -215zM741 352c0 35 -5 116 -63 195c-32 43 -114 130 -260 130c-34 0 -115 -5 -192 -62c-43 -31 -133 -115 -133 -262c0 -43 8 -84 24 -123c49 -122 169 -201 301 -201c20 0 60 2 109 19c130 46 213 168 214 304z" />
    <glyph glyph-name="copyright" unicode="&#xa9;" horiz-adv-x="833" 
d="M773 351c-1 -42 -9 -143 -88 -234c-67 -77 -165 -120 -268 -120c-101 0 -197 42 -265 116c-84 92 -91 197 -91 241c0 118 52 193 81 228c37 43 125 127 276 127c38 0 127 -5 212 -69c47 -35 144 -128 143 -289zM740 352c0 36 -4 117 -64 197c-32 43 -113 128 -258 128
c-34 0 -115 -5 -192 -62c-43 -31 -133 -115 -133 -262c0 -43 8 -84 24 -123c49 -122 169 -201 301 -201c33 0 71 7 103 17c133 44 218 167 219 306zM610 494l-43 -39c-18 22 -61 75 -143 75c-45 0 -91 -18 -123 -51c-17 -16 -50 -59 -50 -124c0 -21 4 -44 12 -64
c25 -67 89 -111 161 -111c56 0 94 26 109 38c12 9 17 15 34 35l42 -36c-4 -5 -8 -11 -13 -16c-21 -24 -80 -78 -175 -78c-17 0 -53 2 -95 20c-85 38 -133 119 -133 210c0 132 99 234 231 234c33 0 103 -7 164 -68c8 -8 15 -17 22 -25z" />
    <glyph glyph-name="trademark" unicode="&#x2122;" horiz-adv-x="687" 
d="M620 374h-46v218c1 23 1 45 2 67c-5 -19 -12 -38 -17 -57l-72 -228h-42l-72 229c-3 9 -6 19 -9 28c-2 10 -5 19 -8 27c2 -21 2 -44 2 -66l2 -218h-46v332h67l86 -272l85 272h68v-332zM180 374h-48v291h-108v41h262v-41h-106v-291z" />
    <glyph glyph-name="plusminus" unicode="&#xb1;" horiz-adv-x="667" 
d="M364 123h-59v256h-264v59h264v256h59v-256h262v-59h-262v-256zM626 0h-585v59h585v-59z" />
    <glyph glyph-name="minus" unicode="&#x2212;" horiz-adv-x="667" 
d="M667 262h-667v59h667v-59z" />
    <glyph glyph-name="mu" unicode="&#xb5;" horiz-adv-x="562" 
d="M505 137l26 1c3 -8 13 -37 13 -66c0 -41 -17 -84 -65 -83c-31 0 -72 22 -90 87c-3 -5 -19 -27 -35 -43c-29 -29 -70 -48 -112 -48c-58 0 -94 40 -105 54c-6 7 -7 8 -14 20c-1 -21 -5 -69 9 -128c1 -4 6 -27 13 -43c5 -12 7 -16 17 -34c21 -37 37 -55 37 -76
c0 -23 -15 -39 -38 -39c-30 0 -50 22 -64 73c-13 48 -16 91 -16 140c0 28 1 97 12 172c-4 28 -8 55 -11 82c-3 31 -5 62 -7 93c-1 23 -2 46 -2 69c0 27 2 45 6 57c8 29 26 37 40 37c4 0 13 -1 20 -8c22 -18 19 -58 19 -61c0 -27 -2 -53 -5 -80c-4 -31 -8 -63 -12 -95
c-3 -31 -6 -61 -12 -92c6 -15 11 -28 21 -42c18 -27 48 -46 82 -46c22 0 38 7 45 11c52 28 71 94 74 108c8 30 15 89 14 169c0 16 -1 32 -1 48c0 1 0 31 3 48c1 7 7 40 39 40c48 -1 48 -62 48 -93c0 -25 0 -160 -48 -259c8 -25 27 -42 34 -46c4 -2 11 -6 23 -6
c15 0 27 6 35 18c3 4 4 9 7 19c1 6 2 11 2 22c0 6 0 9 -2 20z" />
    <glyph glyph-name="brokenbar" unicode="&#xa6;" horiz-adv-x="229" 
d="M85 190h59v-381h-59v381zM85 308v381h59v-381h-59z" />
    <glyph glyph-name="multiply" unicode="&#xd7;" horiz-adv-x="667" 
d="M541 42l-208 207l-207 -207l-42 41l207 208l-207 206l42 42l207 -207l208 207l41 -42l-207 -206l207 -208z" />
    <glyph glyph-name="logicalnot" unicode="&#xac;" horiz-adv-x="667" 
d="M607 262h-607v59h667v-321h-60v262z" />
    <glyph glyph-name="divide" unicode="&#xf7;" horiz-adv-x="667" 
d="M381 160c0 -25 -20 -45 -46 -45s-46 19 -46 46c0 7 2 11 3 14c3 10 14 31 44 31c25 0 46 -20 45 -46zM381 420c0 -26 -21 -45 -47 -45c-25 0 -45 20 -45 46c1 26 20 45 47 46c25 -1 46 -21 45 -47zM667 261h-667v59h667v-59z" />
    <glyph glyph-name="onefitted" unicode="&#xf6dc;" horiz-adv-x="375" 
d="M219 691h55v-693h-68v510h-207v54c29 -1 58 -1 87 0c41 2 77 6 103 36c23 27 27 59 30 93z" />
    <glyph glyph-name="Ccedilla" unicode="&#xc7;" horiz-adv-x="771" 
d="M746 462h-72c-3 11 -6 22 -9 32c-6 21 -17 57 -56 93c-71 65 -174 67 -203 67c-35 0 -142 -6 -219 -84c-33 -34 -80 -104 -80 -221c0 -104 33 -164 60 -200c19 -24 41 -44 67 -59c29 -17 89 -41 179 -41c11 0 46 0 78 9c52 14 109 48 141 94c22 32 34 71 47 109h72
c-4 -15 -8 -29 -12 -44c-8 -29 -27 -86 -84 -141c-69 -66 -159 -92 -254 -92c-128 0 -208 51 -245 82c-48 40 -122 129 -122 284c0 106 39 214 122 283c38 32 123 83 256 83c80 0 171 -22 234 -72c30 -24 49 -52 56 -63c19 -29 29 -54 44 -119zM401 -128h-61v84h101
c1 -18 2 -37 1 -55c-1 -12 -2 -80 -51 -112c-10 -6 -24 -11 -51 -16l1 34c42 15 48 23 60 65z" />
    <glyph glyph-name="Eacute" unicode="&#xc9;" horiz-adv-x="646" 
d="M67 701h544v-62h-473v-253h445v-61h-446v-261h483v-64h-553v701zM382 887h103c-12 -11 -25 -22 -37 -34c-14 -13 -27 -26 -40 -39c-19 -19 -39 -37 -58 -56h-55z" />
    <glyph glyph-name="Ntilde" unicode="&#xd1;" horiz-adv-x="792" 
d="M67 702h95c108 -138 216 -275 323 -414c55 -71 109 -142 163 -214v629h71v-703h-96c-52 67 -105 133 -156 200c-34 45 -67 90 -102 134c-48 62 -98 124 -146 186c-28 36 -54 72 -81 108v-627h-71v701zM541 877h47c-5 -23 -10 -47 -23 -66c-9 -14 -35 -45 -81 -45
c-7 0 -17 1 -33 5c-24 6 -62 26 -85 37c-18 8 -36 18 -55 18c-3 0 -15 -1 -25 -6c-22 -10 -29 -28 -37 -52l-46 1c6 26 10 38 16 50c17 37 48 60 89 60c40 0 79 -19 112 -36c30 -15 50 -24 64 -24c5 0 14 0 24 5c20 10 26 31 33 53z" />
    <glyph glyph-name="aacute" unicode="&#xe1;" horiz-adv-x="583" 
d="M109 350h-65c3 24 6 78 56 124c33 30 85 57 185 57c117 0 182 -31 208 -78c22 -37 19 -83 20 -97v-239c-1 -31 2 -60 37 -60c12 0 17 2 28 4l-1 -53c-28 -7 -41 -9 -56 -9c-19 0 -34 3 -47 15c-20 17 -24 42 -28 68c-20 -19 -41 -39 -62 -53c-61 -40 -147 -40 -166 -40
c-92 0 -146 35 -169 65c-10 13 -27 42 -27 86c0 18 3 67 43 102c36 31 78 38 122 45l132 19c50 7 84 13 103 26c15 11 24 30 24 50c0 10 -2 26 -15 44c-22 32 -62 45 -144 45c-53 0 -124 -12 -157 -58c-18 -25 -19 -53 -21 -63zM448 240v46c-82 -32 -89 -30 -178 -42
c-26 -4 -51 -9 -76 -14c-11 -2 -22 -4 -32 -7c-42 -11 -74 -33 -74 -80c0 -52 40 -98 143 -98c97 0 148 39 176 67c30 29 42 47 42 87c0 14 -1 27 -1 41zM343 715h93l-123 -139h-54z" />
    <glyph glyph-name="agrave" unicode="&#xe0;" horiz-adv-x="583" 
d="M109 350h-65c3 24 6 78 56 124c33 30 85 57 185 57c117 0 182 -31 208 -78c22 -37 19 -83 20 -97v-239c-1 -31 2 -60 37 -60c12 0 17 2 28 4l-1 -53c-28 -7 -41 -9 -56 -9c-19 0 -34 3 -47 15c-20 17 -24 42 -28 68c-20 -19 -41 -39 -62 -53c-61 -40 -147 -40 -166 -40
c-92 0 -146 35 -169 65c-10 13 -27 42 -27 86c0 18 3 67 43 102c36 31 78 38 122 45l132 19c50 7 84 13 103 26c15 11 24 30 24 50c0 10 -2 26 -15 44c-22 32 -62 45 -144 45c-53 0 -124 -12 -157 -58c-18 -25 -19 -53 -21 -63zM448 240v46c-82 -32 -89 -30 -178 -42
c-26 -4 -51 -9 -76 -14c-11 -2 -22 -4 -32 -7c-42 -11 -74 -33 -74 -80c0 -52 40 -98 143 -98c97 0 148 39 176 67c30 29 42 47 42 87c0 14 -1 27 -1 41zM233 714l85 -139h-55l-118 139h88z" />
    <glyph glyph-name="acircumflex" unicode="&#xe2;" horiz-adv-x="583" 
d="M109 350h-65c3 24 6 78 56 124c33 30 85 57 185 57c117 0 182 -31 208 -78c22 -37 19 -83 20 -97v-239c-1 -31 2 -60 37 -60c12 0 17 2 28 4l-1 -53c-28 -7 -41 -9 -56 -9c-19 0 -34 3 -47 15c-20 17 -24 42 -28 68c-20 -19 -41 -39 -62 -53c-61 -40 -147 -40 -166 -40
c-92 0 -146 35 -169 65c-10 13 -27 42 -27 86c0 18 3 67 43 102c36 31 78 38 122 45l132 19c50 7 84 13 103 26c15 11 24 30 24 50c0 10 -2 26 -15 44c-22 32 -62 45 -144 45c-53 0 -124 -12 -157 -58c-18 -25 -19 -53 -21 -63zM448 240v46c-82 -32 -89 -30 -178 -42
c-26 -4 -51 -9 -76 -14c-11 -2 -22 -4 -32 -7c-42 -11 -74 -33 -74 -80c0 -52 40 -98 143 -98c97 0 148 39 176 67c30 29 42 47 42 87c0 14 -1 27 -1 41zM249 716h85l130 -137h-74l-98 102l-100 -103h-75z" />
    <glyph glyph-name="atilde" unicode="&#xe3;" horiz-adv-x="583" 
d="M109 350h-65c3 24 6 78 56 124c33 30 85 57 185 57c117 0 182 -31 208 -78c22 -37 19 -83 20 -97v-239c-1 -31 2 -60 37 -60c12 0 17 2 28 4l-1 -53c-28 -7 -41 -9 -56 -9c-19 0 -34 3 -47 15c-20 17 -24 42 -28 68c-20 -19 -41 -39 -62 -53c-61 -40 -147 -40 -166 -40
c-92 0 -146 35 -169 65c-10 13 -27 42 -27 86c0 18 3 67 43 102c36 31 78 38 122 45l132 19c50 7 84 13 103 26c15 11 24 30 24 50c0 10 -2 26 -15 44c-22 32 -62 45 -144 45c-53 0 -124 -12 -157 -58c-18 -25 -19 -53 -21 -63zM448 240v46c-82 -32 -89 -30 -178 -42
c-26 -4 -51 -9 -76 -14c-11 -2 -22 -4 -32 -7c-42 -11 -74 -33 -74 -80c0 -52 40 -98 143 -98c97 0 148 39 176 67c30 29 42 47 42 87c0 14 -1 27 -1 41zM432 700l43 -1c-4 -18 -8 -36 -16 -52c-7 -16 -33 -57 -85 -57c-41 0 -74 21 -109 38c-28 15 -42 21 -58 21
c-6 0 -18 -1 -30 -7c-14 -8 -21 -19 -31 -51l-43 1c4 17 8 34 15 51c7 16 32 58 87 58c40 0 76 -23 109 -41c29 -15 41 -21 58 -21c10 0 19 3 27 7c15 8 22 19 33 54z" />
    <glyph glyph-name="ccedilla" unicode="&#xe7;" horiz-adv-x="583" 
d="M553 348h-70c-8 19 -14 35 -26 51c-19 26 -64 67 -149 68c-16 0 -54 -2 -93 -19c-45 -20 -113 -68 -113 -191c0 -75 24 -116 45 -142c22 -26 70 -69 157 -69c24 0 108 3 154 68c15 21 22 43 30 69l67 -1c-12 -50 -22 -78 -57 -118c-32 -35 -83 -77 -192 -77
c-21 0 -80 1 -136 28c-57 27 -133 95 -133 242c0 36 5 74 18 107c41 107 143 163 255 163c86 0 169 -35 214 -110c14 -23 20 -43 29 -69zM308 -128h-61v84h101c0 -18 1 -37 0 -55c0 -12 -2 -80 -51 -112c-10 -6 -24 -11 -50 -16v34c42 15 48 23 61 65z" />
    <glyph glyph-name="eacute" unicode="&#xe9;" horiz-adv-x="604" 
d="M575 241h-472c8 -49 15 -91 49 -129c53 -61 132 -64 156 -64c26 0 89 3 140 55c17 17 27 35 40 57l67 -1c-4 -9 -8 -18 -11 -27c-9 -19 -22 -51 -61 -83c-27 -22 -88 -62 -181 -62c-86 0 -174 38 -222 114c-28 46 -41 108 -41 162c0 13 0 40 9 73c23 91 85 139 113 156
c15 9 40 21 80 30c26 5 45 8 71 8c16 0 55 -2 97 -17c71 -26 126 -87 150 -159c9 -29 13 -52 16 -113zM108 295h399c-2 10 -5 21 -7 31c-4 17 -16 57 -51 90c-20 19 -69 55 -145 55c-77 0 -152 -39 -182 -111c-7 -17 -11 -32 -14 -65zM354 715h93l-123 -139h-55z" />
    <glyph glyph-name="egrave" unicode="&#xe8;" horiz-adv-x="604" 
d="M575 241h-472c8 -49 15 -91 49 -129c53 -61 132 -64 156 -64c26 0 89 3 140 55c17 17 27 35 40 57l67 -1c-4 -9 -8 -18 -11 -27c-9 -19 -22 -51 -61 -83c-27 -22 -88 -62 -181 -62c-86 0 -174 38 -222 114c-28 46 -41 108 -41 162c0 13 0 40 9 73c23 91 85 139 113 156
c15 9 40 21 80 30c26 5 45 8 71 8c16 0 55 -2 97 -17c71 -26 126 -87 150 -159c9 -29 13 -52 16 -113zM108 295h399c-2 10 -5 21 -7 31c-4 17 -16 57 -51 90c-20 19 -69 55 -145 55c-77 0 -152 -39 -182 -111c-7 -17 -11 -32 -14 -65zM243 714l86 -139h-55l-119 139h88z" />
    <glyph glyph-name="ecircumflex" unicode="&#xea;" horiz-adv-x="604" 
d="M575 241h-472c8 -49 15 -91 49 -129c53 -61 132 -64 156 -64c26 0 89 3 140 55c17 17 27 35 40 57l67 -1c-4 -9 -8 -18 -11 -27c-9 -19 -22 -51 -61 -83c-27 -22 -88 -62 -181 -62c-86 0 -174 38 -222 114c-28 46 -41 108 -41 162c0 13 0 40 9 73c23 91 85 139 113 156
c15 9 40 21 80 30c26 5 45 8 71 8c16 0 55 -2 97 -17c71 -26 126 -87 150 -159c9 -29 13 -52 16 -113zM108 295h399c-2 10 -5 21 -7 31c-4 17 -16 57 -51 90c-20 19 -69 55 -145 55c-77 0 -152 -39 -182 -111c-7 -17 -11 -32 -14 -65zM259 716h86l130 -137h-74l-99 102
l-99 -103h-75z" />
    <glyph glyph-name="edieresis" unicode="&#xeb;" horiz-adv-x="604" 
d="M575 241h-472c8 -49 15 -91 49 -129c53 -61 132 -64 156 -64c26 0 89 3 140 55c17 17 27 35 40 57l67 -1c-4 -9 -8 -18 -11 -27c-9 -19 -22 -51 -61 -83c-27 -22 -88 -62 -181 -62c-86 0 -174 38 -222 114c-28 46 -41 108 -41 162c0 13 0 40 9 73c23 91 85 139 113 156
c15 9 40 21 80 30c26 5 45 8 71 8c16 0 55 -2 97 -17c71 -26 126 -87 150 -159c9 -29 13 -52 16 -113zM108 295h399c-2 10 -5 21 -7 31c-4 17 -16 57 -51 90c-20 19 -69 55 -145 55c-77 0 -152 -39 -182 -111c-7 -17 -11 -32 -14 -65zM143 685h72v-77h-72v77zM384 686h72
v-77h-72v77z" />
    <glyph glyph-name="iacute" unicode="&#xed;" horiz-adv-x="187" 
d="M57 512h67v-510h-67v510zM146 715h92l-122 -139h-55z" />
    <glyph glyph-name="igrave" unicode="&#xec;" horiz-adv-x="187" 
d="M57 512h67v-510h-67v510zM35 714l86 -139h-55l-119 139h88z" />
    <glyph glyph-name="icircumflex" unicode="&#xee;" horiz-adv-x="187" 
d="M57 512h67v-510h-67v510zM51 716h85l131 -137h-75l-98 102l-100 -103h-75z" />
    <glyph glyph-name="idieresis" unicode="&#xef;" horiz-adv-x="187" 
d="M57 512h67v-510h-67v510zM-66 685h73v-77h-73v77zM176 686h71v-77h-71v77z" />
    <glyph glyph-name="ntilde" unicode="&#xf1;" horiz-adv-x="604" 
d="M57 512h65v-104c12 16 21 29 35 44c27 26 92 71 189 71c18 0 95 -1 146 -46c20 -17 33 -37 41 -61c8 -23 8 -43 9 -69v-346h-68v295c0 14 0 29 -1 43c-3 47 -14 83 -56 107c-33 19 -70 19 -82 19c-57 0 -114 -15 -158 -54c-10 -8 -29 -26 -41 -56
c-13 -33 -13 -63 -12 -100v-253h-67v510zM443 700l43 -1c-4 -18 -8 -36 -16 -52s-33 -57 -86 -57c-40 0 -74 21 -108 38c-29 15 -43 21 -59 21c-6 0 -17 -1 -29 -7c-14 -8 -21 -19 -32 -51l-43 1c4 17 8 34 15 51c8 16 33 58 87 58c40 0 76 -23 109 -41
c29 -15 42 -21 58 -21c11 0 19 3 28 7c14 8 21 19 33 54z" />
    <glyph glyph-name="oacute" unicode="&#xf3;" 
d="M38 255c-1 59 14 101 24 121c44 98 144 151 250 151c18 0 59 -2 105 -19c105 -40 164 -137 164 -250c0 -59 -17 -103 -26 -123c-44 -95 -144 -148 -247 -148c-18 0 -61 2 -108 20c-107 42 -162 135 -162 248zM104 271c-1 -18 -2 -61 18 -106c33 -73 109 -118 191 -118
c25 0 97 6 148 61c18 20 55 72 55 152c0 23 -4 86 -47 137c-38 45 -99 72 -159 72c-15 0 -49 -2 -85 -17c-101 -43 -118 -144 -121 -181zM364 715h93l-123 -139h-54z" />
    <glyph glyph-name="ograve" unicode="&#xf2;" 
d="M38 255c-1 59 14 101 24 121c44 98 144 151 250 151c18 0 59 -2 105 -19c105 -40 164 -137 164 -250c0 -59 -17 -103 -26 -123c-44 -95 -144 -148 -247 -148c-18 0 -61 2 -108 20c-107 42 -162 135 -162 248zM104 271c-1 -18 -2 -61 18 -106c33 -73 109 -118 191 -118
c25 0 97 6 148 61c18 20 55 72 55 152c0 23 -4 86 -47 137c-38 45 -99 72 -159 72c-15 0 -49 -2 -85 -17c-101 -43 -118 -144 -121 -181zM253 714l86 -139h-55l-118 139h87z" />
    <glyph glyph-name="ocircumflex" unicode="&#xf4;" 
d="M38 255c-1 59 14 101 24 121c44 98 144 151 250 151c18 0 59 -2 105 -19c105 -40 164 -137 164 -250c0 -59 -17 -103 -26 -123c-44 -95 -144 -148 -247 -148c-18 0 -61 2 -108 20c-107 42 -162 135 -162 248zM104 271c-1 -18 -2 -61 18 -106c33 -73 109 -118 191 -118
c25 0 97 6 148 61c18 20 55 72 55 152c0 23 -4 86 -47 137c-38 45 -99 72 -159 72c-15 0 -49 -2 -85 -17c-101 -43 -118 -144 -121 -181zM270 716h85l130 -137h-74l-98 102l-100 -103h-75z" />
    <glyph glyph-name="otilde" unicode="&#xf5;" 
d="M38 255c-1 59 14 101 24 121c44 98 144 151 250 151c18 0 59 -2 105 -19c105 -40 164 -137 164 -250c0 -59 -17 -103 -26 -123c-44 -95 -144 -148 -247 -148c-18 0 -61 2 -108 20c-107 42 -162 135 -162 248zM104 271c-1 -18 -2 -61 18 -106c33 -73 109 -118 191 -118
c25 0 97 6 148 61c18 20 55 72 55 152c0 23 -4 86 -47 137c-38 45 -99 72 -159 72c-15 0 -49 -2 -85 -17c-101 -43 -118 -144 -121 -181zM453 700l43 -1c-4 -18 -8 -36 -16 -52c-7 -16 -33 -57 -85 -57c-41 0 -74 21 -109 38c-29 15 -42 21 -58 21c-6 0 -18 -1 -30 -7
c-14 -8 -21 -19 -31 -51l-43 1c4 17 8 34 15 51c7 16 32 58 87 58c40 0 75 -23 109 -41c29 -15 41 -21 58 -21c10 0 19 3 27 7c15 8 22 19 33 54z" />
    <glyph glyph-name="uacute" unicode="&#xfa;" horiz-adv-x="604" 
d="M58 512h68v-319c1 -37 3 -71 28 -101c16 -19 51 -44 114 -44c25 0 88 3 144 46c10 7 36 29 50 62c13 32 14 69 15 105v250h65v-510h-63l-1 101c-14 -18 -26 -33 -43 -48c-66 -59 -150 -64 -181 -64c-107 0 -161 49 -180 92c-11 24 -15 46 -16 98v332zM354 715h93
l-123 -139h-55z" />
    <glyph glyph-name="ugrave" unicode="&#xf9;" horiz-adv-x="604" 
d="M58 512h68v-319c1 -37 3 -71 28 -101c16 -19 51 -44 114 -44c25 0 88 3 144 46c10 7 36 29 50 62c13 32 14 69 15 105v250h65v-510h-63l-1 101c-14 -18 -26 -33 -43 -48c-66 -59 -150 -64 -181 -64c-107 0 -161 49 -180 92c-11 24 -15 46 -16 98v332zM243 714l86 -139
h-55l-119 139h88z" />
    <glyph glyph-name="ucircumflex" unicode="&#xfb;" horiz-adv-x="604" 
d="M58 512h68v-319c1 -37 3 -71 28 -101c16 -19 51 -44 114 -44c25 0 88 3 144 46c10 7 36 29 50 62c13 32 14 69 15 105v250h65v-510h-63l-1 101c-14 -18 -26 -33 -43 -48c-66 -59 -150 -64 -181 -64c-107 0 -161 49 -180 92c-11 24 -15 46 -16 98v332zM259 716h86
l130 -137h-74l-99 102l-99 -103h-75z" />
    <glyph glyph-name="Agrave" unicode="&#xc0;" horiz-adv-x="750" 
d="M328 701h89l326 -702h-80l-99 216h-387l-99 -214h-77zM372 645l-167 -369h330zM313 885l87 -129h-55l-131 129h99z" />
    <glyph glyph-name="Atilde" unicode="&#xc3;" horiz-adv-x="750" 
d="M328 701h89l326 -702h-80l-99 216h-387l-99 -214h-77zM372 645l-167 -369h330zM520 877h47c-5 -23 -10 -47 -23 -66c-9 -14 -35 -45 -80 -45c-8 0 -18 1 -34 5c-24 6 -62 26 -85 37c-17 8 -36 18 -55 18c-3 0 -15 -1 -25 -6c-22 -10 -28 -28 -37 -52l-46 1
c7 26 11 38 16 50c17 37 49 60 89 60s79 -19 112 -36c31 -15 51 -24 65 -24c4 0 13 0 23 5c20 10 27 31 33 53z" />
    <glyph glyph-name="Otilde" unicode="&#xd5;" horiz-adv-x="833" 
d="M37 363c1 41 8 146 88 236c99 112 247 118 294 118c132 0 207 -48 248 -84c44 -37 124 -127 124 -281c0 -99 -37 -199 -105 -267c-70 -69 -175 -99 -272 -99c-38 0 -164 4 -257 83c-85 72 -123 185 -120 294zM108 357c-3 -123 52 -197 88 -230c33 -31 103 -78 222 -78
c31 0 109 2 183 53c112 77 119 210 119 252c0 124 -58 200 -97 233c-29 25 -104 69 -211 69c-115 0 -189 -52 -220 -82c-77 -75 -84 -183 -84 -217zM562 877h47c-5 -23 -11 -47 -23 -66c-10 -14 -35 -45 -81 -45c-7 0 -17 1 -33 5c-24 6 -63 26 -86 37c-17 8 -35 18 -54 18
c-3 0 -15 -1 -25 -6c-23 -10 -29 -28 -37 -52l-46 1c6 26 10 38 16 50c17 37 48 60 88 60c41 0 80 -19 113 -36c30 -15 50 -24 64 -24c5 0 13 0 24 5c20 10 26 31 33 53z" />
    <glyph glyph-name="ydieresis" unicode="&#xff;" horiz-adv-x="562" 
d="M285 69l205 442h73l-13 -24l-38 -82l-12 -25l-129 -276l-4 -6l-59 -125c-26 -59 -42 -91 -62 -115c-21 -26 -51 -48 -124 -48c-22 0 -45 2 -67 5v64c35 -6 50 -8 69 -8c69 0 80 27 126 123l-247 517h74c19 -38 37 -76 55 -113c20 -42 38 -84 58 -126
c21 -44 44 -87 64 -131c11 -24 21 -48 31 -72zM122 685h72v-77h-72v77zM363 686h72v-77h-72v77z" />
    <glyph glyph-name="Ydieresis" unicode="&#x178;" horiz-adv-x="688" 
d="M89 698l253 -341l253 341h88c-12 -12 -23 -25 -33 -38c-16 -21 -31 -43 -47 -64c-37 -49 -75 -98 -112 -147c-39 -51 -78 -102 -116 -153v-296h-70v301l-301 397h85zM174 864h78v-83h-78v83zM437 865h76v-83h-76v83z" />
    <glyph glyph-name="Acircumflex" unicode="&#xc2;" horiz-adv-x="750" 
d="M328 701h89l326 -702h-80l-99 216h-387l-99 -214h-77zM372 645l-167 -369h330zM331 889h88l129 -137h-77l-98 105l-98 -104h-75z" />
    <glyph glyph-name="Ecircumflex" unicode="&#xca;" horiz-adv-x="646" 
d="M67 701h544v-62h-473v-253h445v-61h-446v-261h483v-64h-553v701zM279 889h88l129 -137h-77l-98 105l-98 -104h-75z" />
    <glyph glyph-name="Aacute" unicode="&#xc1;" horiz-adv-x="750" 
d="M328 701h89l326 -702h-80l-99 216h-387l-99 -214h-77zM372 645l-167 -369h330zM434 887h104c-13 -11 -26 -22 -38 -34c-13 -13 -27 -26 -40 -39c-19 -19 -39 -37 -58 -56h-55z" />
    <glyph glyph-name="Edieresis" unicode="&#xcb;" horiz-adv-x="646" 
d="M67 701h544v-62h-473v-253h445v-61h-446v-261h483v-64h-553v701zM153 864h78v-83h-78v83zM417 865h75v-83h-75v83z" />
    <glyph glyph-name="Egrave" unicode="&#xc8;" horiz-adv-x="646" 
d="M67 701h544v-62h-473v-253h445v-61h-446v-261h483v-64h-553v701zM261 885l87 -129h-55l-131 129h99z" />
    <glyph glyph-name="Iacute" unicode="&#xcd;" horiz-adv-x="208" 
d="M66 701h72v-700h-72v700zM163 887h104c-13 -11 -26 -22 -38 -34c-13 -13 -26 -26 -40 -39c-19 -19 -38 -37 -58 -56h-54z" />
    <glyph glyph-name="Icircumflex" unicode="&#xce;" horiz-adv-x="208" 
d="M66 701h72v-700h-72v700zM60 889h88l129 -137h-77l-98 105l-98 -104h-75z" />
    <glyph glyph-name="Idieresis" unicode="&#xcf;" horiz-adv-x="208" 
d="M66 701h72v-700h-72v700zM-65 864h77v-83h-77v83zM198 865h76v-83h-76v83z" />
    <glyph glyph-name="Igrave" unicode="&#xcc;" horiz-adv-x="208" 
d="M66 701h72v-700h-72v700zM42 885l87 -129h-55l-131 129h99z" />
    <glyph glyph-name="Oacute" unicode="&#xd3;" horiz-adv-x="833" 
d="M37 363c1 41 8 146 88 236c99 112 247 118 294 118c132 0 207 -48 248 -84c44 -37 124 -127 124 -281c0 -99 -37 -199 -105 -267c-70 -69 -175 -99 -272 -99c-38 0 -164 4 -257 83c-85 72 -123 185 -120 294zM108 357c-3 -123 52 -197 88 -230c33 -31 103 -78 222 -78
c31 0 109 2 183 53c112 77 119 210 119 252c0 124 -58 200 -97 233c-29 25 -104 69 -211 69c-115 0 -189 -52 -220 -82c-77 -75 -84 -183 -84 -217zM475 887h104c-13 -11 -25 -22 -37 -34c-14 -13 -27 -26 -40 -39c-19 -19 -39 -37 -59 -56h-54z" />
    <glyph glyph-name="Ocircumflex" unicode="&#xd4;" horiz-adv-x="833" 
d="M37 363c1 41 8 146 88 236c99 112 247 118 294 118c132 0 207 -48 248 -84c44 -37 124 -127 124 -281c0 -99 -37 -199 -105 -267c-70 -69 -175 -99 -272 -99c-38 0 -164 4 -257 83c-85 72 -123 185 -120 294zM108 357c-3 -123 52 -197 88 -230c33 -31 103 -78 222 -78
c31 0 109 2 183 53c112 77 119 210 119 252c0 124 -58 200 -97 233c-29 25 -104 69 -211 69c-115 0 -189 -52 -220 -82c-77 -75 -84 -183 -84 -217zM373 889h87l129 -137h-76l-98 105l-98 -104h-76z" />
    <glyph glyph-name="Ograve" unicode="&#xd2;" horiz-adv-x="833" 
d="M37 363c1 41 8 146 88 236c99 112 247 118 294 118c132 0 207 -48 248 -84c44 -37 124 -127 124 -281c0 -99 -37 -199 -105 -267c-70 -69 -175 -99 -272 -99c-38 0 -164 4 -257 83c-85 72 -123 185 -120 294zM108 357c-3 -123 52 -197 88 -230c33 -31 103 -78 222 -78
c31 0 109 2 183 53c112 77 119 210 119 252c0 124 -58 200 -97 233c-29 25 -104 69 -211 69c-115 0 -189 -52 -220 -82c-77 -75 -84 -183 -84 -217zM355 885l87 -129h-55l-132 129h100z" />
    <glyph glyph-name="Uacute" unicode="&#xda;" horiz-adv-x="750" 
d="M64 701h72v-442c2 -53 5 -94 40 -136c61 -73 172 -74 195 -74c125 1 191 46 216 96c20 40 22 84 23 127v429h71v-444c0 -15 -1 -30 -2 -45c-3 -26 -10 -96 -67 -150c-78 -75 -221 -77 -241 -77c-27 0 -56 3 -82 7c-86 15 -130 48 -157 76c-11 11 -37 39 -51 79
c-18 49 -19 102 -17 213v341zM434 887h104c-13 -11 -26 -22 -38 -34c-13 -13 -27 -26 -40 -39c-19 -19 -39 -37 -58 -56h-55z" />
    <glyph glyph-name="Ucircumflex" unicode="&#xdb;" horiz-adv-x="750" 
d="M64 701h72v-442c2 -53 5 -94 40 -136c61 -73 172 -74 195 -74c125 1 191 46 216 96c20 40 22 84 23 127v429h71v-444c0 -15 -1 -30 -2 -45c-3 -26 -10 -96 -67 -150c-78 -75 -221 -77 -241 -77c-27 0 -56 3 -82 7c-86 15 -130 48 -157 76c-11 11 -37 39 -51 79
c-18 49 -19 102 -17 213v341zM331 889h88l129 -137h-77l-98 105l-98 -104h-75z" />
    <glyph glyph-name="Ugrave" unicode="&#xd9;" horiz-adv-x="750" 
d="M64 701h72v-442c2 -53 5 -94 40 -136c61 -73 172 -74 195 -74c125 1 191 46 216 96c20 40 22 84 23 127v429h71v-444c0 -15 -1 -30 -2 -45c-3 -26 -10 -96 -67 -150c-78 -75 -221 -77 -241 -77c-27 0 -56 3 -82 7c-86 15 -130 48 -157 76c-11 11 -37 39 -51 79
c-18 49 -19 102 -17 213v341zM313 885l87 -129h-55l-131 129h99z" />
    </font>
</defs>
</svg>
