<?xml version="1.0" standalone="no"?>
<!DOCTYPE svg PUBLIC "-//W3C//DTD SVG 1.1//EN" "http://www.w3.org/Graphics/SVG/1.1/DTD/svg11.dtd" >
<svg xmlns="http://www.w3.org/2000/svg" xmlns:xlink="http://www.w3.org/1999/xlink" version="1.1">
<metadata>
Created by FontForge 20170910 at Mon Apr 30 11:11:28 2007
 By Jimmy Wärting
(c) COPYRIGHT H. BERTHOLD AG 1992 Alle Rechte vorbehalten.
</metadata>
<defs>
<font id="HelveticaExtendedBQ-Bold" horiz-adv-x="938" >
  <font-face 
    font-family="Helvetica Extended BQ"
    font-weight="500"
    font-stretch="normal"
    units-per-em="1000"
    panose-1="0 0 0 0 0 0 0 0 0 0"
    ascent="800"
    descent="-200"
    x-height="540"
    cap-height="701"
    bbox="-227 -262 1339 929"
    underline-thickness="50"
    underline-position="-100"
    stemh="172"
    stemv="256"
    unicode-range="U+0020-FB02"
  />
<missing-glyph horiz-adv-x="417" 
 />
    <glyph glyph-name=".notdef" horiz-adv-x="417" 
 />
    <glyph glyph-name="space" unicode=" " horiz-adv-x="417" 
 />
    <glyph glyph-name="exclam" unicode="!" horiz-adv-x="354" 
d="M330 701l-30 -431h-211l-26 431h267zM64 216h261v-216h-261v216z" />
    <glyph glyph-name="quotedbl" unicode="&#x22;" horiz-adv-x="396" 
d="M319 408h-31l-55 250c-2 19 -3 26 -1 37c6 36 41 54 74 54c45 0 62 -31 66 -48c2 -10 1 -22 0 -31zM111 408h-32l-54 250c-3 19 -3 26 -1 37c6 36 41 54 74 54c31 0 59 -16 66 -48c1 -7 1 -16 0 -31z" />
    <glyph glyph-name="numbersign" unicode="#" horiz-adv-x="667" 
d="M459 0h-126l27 186h-99l-26 -186h-124l25 186h-94v124h112l13 95h-100v124h117l25 177h124l-25 -177h100l24 177h125l-24 -177h91v-124h-109l-12 -95h98v-124h-116zM377 310l14 95h-100l-13 -95h99z" />
    <glyph glyph-name="dollar" unicode="$" horiz-adv-x="896" 
d="M80 233l238 -1c9 -18 14 -28 30 -38c19 -14 45 -19 69 -23l-1 100c-30 5 -61 10 -91 14c-25 4 -50 7 -75 11c-120 21 -171 61 -196 115c-11 23 -16 46 -16 71c0 11 1 30 9 55c11 30 37 86 109 123c74 39 182 46 262 52v57h62v-59c23 -2 45 -3 67 -5
c122 -10 181 -37 224 -75c48 -44 60 -83 74 -144h-274c-3 4 -10 17 -19 28c-19 24 -41 27 -72 31v-91l105 -15c25 -4 50 -7 74 -12c83 -15 169 -48 198 -134c6 -19 9 -40 9 -60c0 -41 -13 -116 -99 -173c-84 -56 -186 -61 -288 -66v-77h-63v76c-24 1 -47 2 -70 3
c-30 3 -146 8 -228 76c-20 16 -39 38 -52 60c-18 31 -27 65 -36 101h50zM417 461v84c-4 0 -32 3 -51 -3c-19 -5 -41 -20 -41 -38c0 -5 3 -11 6 -16c16 -22 60 -25 86 -27zM478 265v-98c26 1 77 3 99 15c11 5 21 17 21 30c0 8 -4 13 -6 16c-12 17 -41 20 -62 25
c-18 4 -35 8 -52 12z" />
    <glyph glyph-name="percent" unicode="%" horiz-adv-x="1375" 
d="M28 471c1 21 7 73 41 121c38 53 102 94 237 94c19 0 39 -1 58 -2c73 -6 131 -21 182 -78c22 -25 51 -67 51 -145c0 -81 -25 -125 -47 -152c-10 -12 -28 -32 -61 -49c-42 -22 -91 -28 -106 -30c-40 -5 -67 -5 -83 -5c-24 0 -135 0 -207 67c-47 45 -68 112 -65 179z
M198 470c-1 -8 -2 -31 5 -54c14 -50 56 -85 110 -85c8 0 32 1 53 12c56 30 62 98 62 117c0 12 -1 37 -16 63c-20 36 -61 56 -104 56c-89 0 -107 -80 -110 -109zM740 678h141l-255 -677h-140zM770 221c2 77 28 119 49 144c62 73 156 82 249 82c24 0 100 1 167 -37
c26 -15 46 -31 63 -54c39 -53 41 -120 41 -142c0 -30 -3 -129 -86 -183c-26 -17 -58 -28 -90 -35c-52 -12 -93 -13 -113 -13c-23 0 -115 0 -185 44c-28 18 -44 37 -52 48c-33 44 -44 92 -43 146zM941 222c0 -11 0 -36 11 -63c24 -63 80 -69 103 -69c11 0 35 1 60 15
c52 29 55 92 55 111c0 27 -7 48 -10 56c-24 61 -84 66 -108 66c-95 0 -110 -85 -111 -116z" />
    <glyph glyph-name="ampersand" unicode="&#x26;" horiz-adv-x="1000" 
d="M623 386l89 -86l64 51l81 81l118 -112l-146 -135l187 -185h-331l-55 50c-62 -30 -145 -73 -303 -73c-69 0 -135 10 -195 46c-97 58 -113 143 -113 187c0 27 6 91 60 141c51 47 118 67 181 86c-11 15 -47 57 -47 116c0 74 54 111 75 123c42 25 119 48 235 48
c123 0 203 -29 240 -68c24 -25 35 -64 35 -100c0 -13 -1 -42 -18 -70c-33 -53 -102 -79 -157 -100zM516 172l-149 155c-32 -12 -63 -24 -79 -56c-6 -14 -7 -25 -7 -31c0 -19 8 -33 11 -38c30 -54 92 -59 108 -59c24 0 65 9 87 17c10 3 19 7 29 12zM516 492c29 7 45 12 56 20
c12 8 20 20 20 36s-15 44 -55 44c-8 0 -16 -1 -18 -2c-8 -1 -42 -9 -42 -39c0 -2 1 -11 4 -19c5 -13 14 -23 35 -40z" />
    <glyph glyph-name="quoteright" unicode="&#x2019;" horiz-adv-x="313" 
d="M28 701h262v-151c-1 -11 -2 -23 -4 -34c-5 -36 -19 -65 -45 -91c-34 -35 -80 -55 -174 -85l-23 81c41 18 49 26 70 67h-86v213z" />
    <glyph glyph-name="parenleft" unicode="(" horiz-adv-x="542" 
d="M535 784v-183c-14 -1 -27 -2 -41 -4c-16 -2 -74 -11 -111 -54c-52 -62 -51 -195 -51 -202c0 -9 -1 -114 35 -171c5 -9 18 -27 41 -43c42 -30 78 -33 126 -35l-1 -183c-22 0 -44 -1 -66 0c-29 1 -83 5 -151 30c-34 13 -60 28 -71 35c-33 20 -103 72 -139 167
c-17 43 -30 104 -30 211c0 152 37 229 79 285c10 12 28 35 58 59c41 32 86 50 101 56c23 9 61 22 118 29c33 4 46 4 103 3z" />
    <glyph glyph-name="parenright" unicode=")" horiz-adv-x="542" 
d="M-2 605l1 181c14 1 29 1 43 1c50 0 181 -2 293 -99c39 -34 71 -77 90 -123c17 -39 31 -99 31 -200c0 -25 -1 -102 -19 -177c-8 -35 -29 -107 -101 -172c-22 -21 -71 -60 -147 -84c-68 -21 -124 -21 -194 -21v184c12 1 23 2 34 3c18 2 78 10 117 54c28 32 54 98 54 203
c0 95 -21 156 -45 188c-11 16 -23 26 -40 36c-38 22 -74 24 -117 26z" />
    <glyph glyph-name="asterisk" unicode="*" horiz-adv-x="479" 
d="M110 493l-92 52l65 105l89 -50v101h126v-101l93 54l63 -112l-93 -52l91 -52l-64 -110l-92 54v-108h-123v107l-93 -52l-63 109z" />
    <glyph glyph-name="plus" unicode="+" horiz-adv-x="667" 
d="M398 0h-128v228h-228v127h228v227h128v-227h227v-127h-227v-228z" />
    <glyph glyph-name="comma" unicode="," horiz-adv-x="313" 
d="M26 217h260v-154c-7 -54 -13 -76 -26 -98c-24 -40 -68 -61 -81 -68c-52 -24 -61 -27 -115 -44l-22 82c42 16 49 25 68 66h-84v216z" />
    <glyph glyph-name="hyphen" unicode="-" horiz-adv-x="417" 
d="M32 351h357v-163h-357v163z" />
    <glyph glyph-name="period" unicode="." horiz-adv-x="354" 
d="M28 216h261v-216h-261v216z" />
    <glyph glyph-name="slash" unicode="/" horiz-adv-x="437" 
d="M258 703h175l-263 -702h-174z" />
    <glyph glyph-name="zero" unicode="0" 
d="M30 338c0 20 1 72 19 127c45 135 160 183 206 199c57 20 122 26 139 27c29 3 58 4 87 4c31 0 182 1 288 -66c15 -9 47 -32 77 -70c29 -38 68 -105 68 -220c0 -38 -3 -141 -75 -228c-10 -13 -31 -36 -65 -58c-111 -72 -295 -72 -318 -72c-32 0 -201 -1 -309 87
c-30 25 -53 53 -72 89c-16 30 -44 92 -45 181zM295 340c0 -15 1 -52 18 -92c18 -43 53 -103 159 -103c12 0 37 1 66 10c45 15 72 44 92 90c7 15 21 51 21 97c0 15 -2 53 -19 91c-42 91 -130 97 -164 97c-15 0 -57 -1 -93 -23c-54 -32 -80 -106 -80 -167z" />
    <glyph glyph-name="one" unicode="1" 
d="M425 679h198v-679h-257v444c-75 -23 -87 -23 -134 -29l1 165c93 26 116 37 192 99z" />
    <glyph glyph-name="two" unicode="2" 
d="M330 433l-289 1c0 4 3 39 9 63c13 48 46 90 86 119c48 36 95 47 154 61c46 7 104 16 204 16c49 0 84 -1 176 -14c84 -22 176 -47 216 -132c5 -10 18 -41 18 -76c0 -24 -8 -88 -59 -134c-40 -37 -99 -53 -151 -68l-285 -54c-57 -17 -69 -27 -96 -45h583v-171h-878
c4 65 7 80 27 143c6 16 13 32 20 47c35 67 81 96 144 132c24 10 48 20 73 29c56 20 109 29 168 41c31 7 62 14 94 22c32 9 73 19 73 60c0 10 -5 32 -30 43c-19 9 -74 14 -95 14c-9 0 -91 0 -131 -42c-10 -11 -18 -24 -31 -55z" />
    <glyph glyph-name="three" unicode="3" 
d="M509 274l-165 7l-5 157l161 5c15 1 30 2 43 7c22 9 31 28 31 39c0 15 -12 34 -41 42c-14 4 -56 9 -102 9c-45 0 -75 -4 -92 -16c-13 -8 -21 -21 -30 -35h-283c10 50 20 83 55 119c44 44 104 59 165 74c54 10 95 18 200 18c60 0 101 -1 217 -15c66 -15 128 -30 173 -87
c9 -12 30 -41 30 -86c0 -11 -1 -32 -13 -58c-19 -43 -56 -61 -97 -82c19 -5 36 -11 53 -21c73 -42 82 -117 82 -146c0 -14 -2 -47 -21 -83c-32 -61 -80 -80 -142 -103c-44 -11 -63 -16 -108 -21c-94 -11 -154 -13 -194 -13c-105 0 -181 16 -223 23c-32 9 -44 13 -60 20
c-25 10 -93 44 -123 122c-8 19 -10 32 -17 70l278 -1c4 -7 8 -17 12 -24c20 -28 51 -34 82 -40c37 -5 50 -6 69 -6c23 0 46 2 70 5c18 2 34 4 50 13c27 14 33 39 33 48c0 7 -1 16 -10 28c-19 26 -47 29 -78 31z" />
    <glyph glyph-name="four" unicode="4" 
d="M44 288l386 391h353v-410h120v-165h-120v-104h-243v104h-496v184zM539 527l-256 -259h256v259z" />
    <glyph glyph-name="five" unicode="5" 
d="M334 286h-276l72 395h736v-165h-560l-15 -82l64 13l101 11c27 1 53 2 79 2c37 0 93 -4 176 -27c36 -10 71 -22 103 -42c11 -7 38 -25 60 -58c27 -42 30 -79 30 -99c0 -58 -26 -102 -37 -118c-65 -100 -184 -115 -290 -129c-37 -2 -74 -4 -111 -4s-73 2 -110 4
c-76 10 -184 24 -247 74c-21 16 -35 35 -51 58c-21 39 -24 47 -33 90l292 -1c10 -12 21 -29 57 -41c15 -4 52 -11 98 -11c25 0 78 4 103 16c36 16 44 43 44 56c0 23 -17 46 -38 57c-29 16 -96 22 -129 22c-56 0 -96 -15 -118 -21z" />
    <glyph glyph-name="six" unicode="6" 
d="M884 489h-276c-8 11 -11 14 -17 19c-29 25 -80 24 -88 24c-14 0 -105 2 -158 -49c-6 -6 -23 -23 -27 -48c-1 -6 -2 -14 0 -27c82 23 137 37 223 37c40 0 80 -4 92 -5c73 -9 147 -28 204 -81c21 -19 63 -63 62 -142c0 -31 -9 -106 -75 -158c-65 -51 -161 -64 -241 -75
h-123c-75 4 -146 8 -215 34c-196 71 -204 278 -204 337c0 135 51 204 92 242c13 13 38 35 78 53c100 48 264 49 282 49c91 0 216 -17 293 -66c34 -21 52 -43 62 -57c21 -29 27 -52 36 -87zM337 231c-6 -27 12 -56 36 -69c36 -19 114 -18 114 -18c9 0 59 0 93 16
c31 14 40 41 40 55c0 12 -5 24 -12 34c-27 38 -92 39 -134 39c-66 0 -103 -10 -125 -34c-5 -7 -10 -15 -12 -23z" />
    <glyph glyph-name="seven" unicode="7" 
d="M53 680l864 -1c-8 -77 -19 -148 -63 -213c-12 -19 -26 -37 -61 -70c-43 -40 -90 -75 -134 -114c-135 -118 -146 -188 -163 -280h-342c0 5 4 46 11 74c18 81 59 124 117 183c30 25 59 51 91 74c39 29 80 56 118 86c26 20 51 43 76 65l29 30h-543v166z" />
    <glyph glyph-name="eight" unicode="8" 
d="M153 367c-17 7 -28 13 -35 17c-42 26 -65 72 -65 120c0 16 2 47 23 80c38 61 111 79 174 96c62 9 113 16 236 16c83 0 129 -5 212 -16c72 -20 147 -42 180 -118c5 -11 13 -32 13 -64c0 -10 0 -32 -11 -56c-18 -44 -54 -62 -96 -81c18 -5 36 -10 51 -19
c46 -26 71 -83 71 -136c0 -71 -45 -117 -62 -133c-42 -39 -89 -54 -143 -70c-81 -17 -113 -22 -198 -22c-17 0 -128 -1 -208 12c-32 5 -63 13 -95 21c-16 5 -54 16 -90 47c-20 17 -71 68 -71 146c0 51 23 106 65 137c15 11 32 17 49 23zM321 228c-2 -3 -4 -9 -4 -17
c1 -32 28 -48 35 -51c26 -12 91 -16 119 -16c29 0 96 4 123 18c16 9 30 28 30 48c0 6 -3 23 -15 36c-28 27 -97 29 -135 29c-67 0 -109 -7 -133 -23c-13 -9 -18 -17 -20 -24zM329 498c-2 -4 -3 -7 -3 -16c0 -12 6 -34 32 -45c24 -10 80 -12 106 -12c22 0 45 1 68 3
c27 1 36 2 49 7c18 7 36 25 36 46c0 20 -14 41 -55 48c-21 4 -79 5 -102 5c-32 0 -114 2 -131 -36z" />
    <glyph glyph-name="nine" unicode="9" 
d="M58 191h272c4 -4 11 -12 22 -21c15 -11 42 -22 87 -22c8 0 124 -2 171 64c15 20 17 35 19 59c-12 -2 -24 -4 -35 -7c-16 -4 -31 -8 -47 -12c-66 -16 -127 -17 -152 -17c-92 1 -150 18 -189 28c-14 5 -27 10 -41 16c-72 34 -97 81 -109 111c-13 34 -15 64 -15 78
c0 54 21 104 60 140c43 39 99 55 155 72c74 14 108 19 185 19c109 0 143 -7 201 -19c59 -17 97 -28 144 -68c5 -5 28 -25 44 -45c37 -47 50 -99 56 -120c12 -60 15 -77 15 -111c0 -20 -2 -41 -3 -62c-6 -33 -18 -129 -96 -197c-35 -30 -69 -44 -114 -61
c-21 -7 -42 -13 -63 -18c-34 -7 -98 -16 -187 -16c-82 0 -124 11 -161 19c-14 3 -27 7 -40 11c-22 6 -80 23 -126 72c-7 7 -23 25 -34 49c-11 23 -18 53 -19 58zM324 481c-6 -23 5 -48 24 -63c9 -7 18 -11 28 -14c14 -3 52 -11 93 -11c34 0 84 6 111 24c22 14 27 38 27 47
c0 7 -2 20 -12 34c-27 37 -91 40 -132 40c-4 0 -67 0 -102 -16c-10 -5 -17 -10 -24 -18c-3 -4 -10 -12 -13 -23z" />
    <glyph glyph-name="colon" unicode=":" horiz-adv-x="354" 
d="M74 215h259v-215h-259v215zM74 541h259v-215h-259v215z" />
    <glyph glyph-name="semicolon" unicode=";" horiz-adv-x="354" 
d="M70 217h261v-161c-6 -53 -11 -82 -49 -118c-48 -46 -113 -65 -177 -83l-21 77c42 19 50 27 72 69h-86v216zM73 543h259v-217h-259v217z" />
    <glyph glyph-name="less" unicode="&#x3c;" horiz-adv-x="667" 
d="M667 -3l-667 292v124l667 296v-139l-490 -219l490 -216v-138z" />
    <glyph glyph-name="equal" unicode="=" horiz-adv-x="667" 
d="M667 123h-667v128h667v-128zM667 333h-667v126h667v-126z" />
    <glyph glyph-name="greater" unicode="&#x3e;" horiz-adv-x="667" 
d="M0 -3v138l489 216l-489 219v139l667 -296v-124z" />
    <glyph glyph-name="question" unicode="?" horiz-adv-x="833" 
d="M548 265l-250 1c1 13 1 26 3 39c3 18 11 47 47 75c26 20 51 27 81 38c11 4 23 9 35 13c8 3 16 5 24 8c44 17 56 41 56 65c0 65 -100 61 -101 61c-33 0 -71 -5 -99 -28c-12 -9 -18 -19 -21 -25c-8 -14 -10 -24 -13 -54h-281c9 48 14 68 23 91c42 107 123 130 164 144
c50 11 104 25 212 25c132 0 176 -10 245 -27c8 -3 16 -6 25 -9c50 -18 92 -47 116 -97c15 -33 17 -63 17 -76c0 -48 -22 -94 -59 -123c-21 -15 -58 -31 -116 -51c-6 -2 -41 -13 -64 -27c-15 -9 -23 -17 -44 -43zM296 215h259v-217h-259v217z" />
    <glyph glyph-name="at" unicode="@" horiz-adv-x="896" 
d="M556 463l10 40h90l-33 -159c-6 -29 -28 -132 -28 -162c0 -22 7 -31 20 -31c10 0 19 6 27 12c12 9 26 23 44 51c52 83 57 170 57 204c0 20 0 74 -33 125c-56 86 -163 90 -191 90s-86 -4 -153 -38c-132 -68 -216 -210 -216 -358c0 -36 2 -130 81 -203
c80 -74 191 -79 223 -79c53 0 157 12 266 94c21 16 41 33 60 52l46 -62c-49 -44 -171 -163 -369 -163c-94 0 -198 30 -272 91c-48 40 -116 120 -116 271c0 257 199 475 461 475c32 0 120 -3 196 -64c40 -32 101 -102 101 -228c0 -17 -1 -33 -3 -49
c-10 -89 -44 -182 -109 -246c-13 -13 -61 -59 -126 -59c-9 0 -54 2 -77 34c-11 14 -12 27 -14 34c-8 -9 -20 -25 -44 -42c-26 -18 -50 -26 -81 -26c-32 0 -54 10 -65 15c-35 20 -74 64 -74 154c0 29 5 101 46 173c13 22 69 114 171 114c14 0 51 -1 81 -30
c13 -11 22 -26 24 -30zM523 350c0 13 -2 25 -6 37c-14 40 -45 47 -61 47c-26 0 -44 -14 -50 -20c-46 -37 -69 -116 -69 -171c0 -44 14 -65 31 -77c5 -3 17 -10 33 -10c32 0 63 29 80 53c25 36 43 97 42 141z" />
    <glyph glyph-name="A" unicode="A" 
d="M292 701h353l300 -701h-294l-26 66h-318l-29 -66h-281zM371 235l190 1c-13 35 -26 70 -39 106c-20 58 -39 117 -57 175c-44 -160 -60 -195 -94 -282z" />
    <glyph glyph-name="B" unicode="B" horiz-adv-x="979" 
d="M300 0h-238v702c108 1 215 1 323 1c46 -1 92 -2 138 -2c42 0 85 2 127 1c28 -1 55 -3 83 -5c62 -10 115 -21 153 -75c26 -37 28 -73 28 -90c0 -42 -16 -82 -44 -111c-12 -11 -22 -18 -27 -22c21 -12 33 -19 41 -26c46 -37 69 -92 69 -150c0 -72 -34 -122 -48 -141
c-4 -5 -18 -23 -34 -35c-18 -12 -37 -20 -81 -32c-85 -14 -112 -16 -261 -16c-76 0 -153 1 -229 1zM341 291v-111h240c38 3 51 9 62 27c3 4 10 16 10 31c0 10 -5 22 -10 31c-16 23 -37 23 -63 22h-239zM342 533v-78h219c14 0 27 0 38 7c5 2 21 13 21 32c0 5 -1 13 -8 23
c-14 17 -33 16 -52 16h-218z" />
    <glyph glyph-name="C" unicode="C" horiz-adv-x="1000" 
d="M987 429h-305c-13 39 -20 53 -31 69c-40 56 -119 59 -139 59c-16 0 -60 -1 -98 -27c-37 -24 -78 -77 -78 -179c0 -115 52 -157 96 -177c15 -7 48 -20 91 -20c11 0 34 0 61 9c58 18 76 56 96 110h314c-7 -38 -13 -60 -18 -77c-10 -29 -40 -103 -117 -150
c-26 -17 -57 -28 -65 -32c-98 -27 -143 -36 -245 -36c-57 0 -114 4 -171 8c-20 3 -41 7 -61 12c-30 6 -103 23 -168 81c-14 12 -44 41 -67 86c-14 29 -23 60 -32 92c-6 35 -11 63 -11 99s7 79 9 88c1 5 12 48 23 76c27 63 74 115 133 147c18 10 35 17 73 30
c74 20 114 29 252 29c52 0 103 -4 154 -9c40 -7 80 -15 116 -31c49 -21 92 -54 125 -96c39 -53 50 -97 63 -161z" />
    <glyph glyph-name="D" unicode="D" horiz-adv-x="1021" 
d="M64 701h520c114 -1 240 -5 322 -93c27 -29 57 -71 73 -158c3 -18 9 -54 9 -102c0 -87 -25 -160 -37 -186c-25 -53 -66 -96 -119 -122c-84 -42 -200 -40 -292 -39h-476v700zM482 529h-140v-354h131c106 0 152 8 190 52c20 24 40 60 40 129c0 57 -16 89 -30 108
c-44 61 -121 63 -191 65z" />
    <glyph glyph-name="E" unicode="E" horiz-adv-x="875" 
d="M59 701h764v-170h-488v-82h402v-173h-403v-100h519v-176h-794v701z" />
    <glyph glyph-name="F" unicode="F" horiz-adv-x="792" 
d="M56 702h727v-170h-445v-80h364v-174h-364v-278h-282v702z" />
    <glyph glyph-name="G" unicode="G" horiz-adv-x="1042" 
d="M987 469h-304c-10 26 -16 35 -26 44c-18 16 -68 44 -136 44c-55 0 -113 -20 -148 -61c-40 -48 -42 -126 -42 -142c0 -19 2 -102 52 -150c11 -10 30 -26 65 -39c16 -6 55 -19 102 -19c77 0 123 35 142 60c12 15 18 34 19 39h-121v157h403v-402h-120l-30 59
c-6 -4 -44 -27 -75 -40c-45 -19 -132 -41 -254 -41c-21 0 -163 1 -261 39c-16 6 -47 20 -83 46c-14 11 -42 33 -68 70c-58 82 -60 181 -60 214c0 118 40 194 67 230c17 22 38 42 61 59c77 59 169 77 264 85c32 2 64 3 96 3c36 0 161 -1 275 -41c85 -29 122 -65 144 -100
c24 -37 31 -72 38 -114z" />
    <glyph glyph-name="H" unicode="H" horiz-adv-x="1000" 
d="M61 702h283v-241h320v240h281v-701h-281v287h-320v-287h-283v702z" />
    <glyph glyph-name="I" unicode="I" horiz-adv-x="396" 
d="M62 701h281v-701h-281v701z" />
    <glyph glyph-name="J" unicode="J" horiz-adv-x="792" 
d="M458 252v449h284c0 -80 -1 -160 -1 -240c0 -55 2 -109 0 -163c-2 -37 -5 -74 -8 -112c-4 -25 -9 -50 -18 -73c-36 -92 -114 -111 -200 -129c-42 -4 -84 -8 -127 -8c-116 0 -144 7 -209 23c-11 4 -22 8 -33 13c-19 8 -55 23 -87 65c-47 61 -51 139 -54 216h277
c2 -44 4 -80 37 -112c8 -7 28 -24 59 -24c18 0 32 6 38 9c43 22 42 73 42 86z" />
    <glyph glyph-name="K" unicode="K" horiz-adv-x="979" 
d="M63 701h282v-239l260 239h372c-40 -24 -36 -26 -90 -72c-27 -23 -54 -45 -81 -68c-42 -37 -84 -74 -125 -111l330 -450h-338l-205 292l-125 -106v-186h-280v701z" />
    <glyph glyph-name="L" unicode="L" horiz-adv-x="771" 
d="M61 701h284v-516h429v-185h-713v701z" />
    <glyph glyph-name="M" unicode="M" horiz-adv-x="1167" 
d="M62 701h457l70 -309l73 309h451v-701h-270v523l-155 -523h-204l-153 532v-532h-269v701z" />
    <glyph glyph-name="N" unicode="N" horiz-adv-x="1000" 
d="M59 701h322l302 -429v429h257v-701h-318c-25 34 -50 67 -73 102c-17 24 -34 49 -51 73c-17 25 -36 48 -54 73c-14 20 -28 42 -43 63c-13 19 -28 38 -41 58c-18 26 -35 54 -52 82l4 -451h-253v701z" />
    <glyph glyph-name="O" unicode="O" horiz-adv-x="1042" 
d="M42 374c7 134 56 201 99 241c69 65 170 108 372 108c32 0 63 -1 95 -3c39 -2 207 -6 313 -117c30 -32 53 -70 67 -111c8 -25 20 -68 20 -132c-1 -144 -43 -215 -87 -262c-9 -10 -33 -33 -66 -53c-56 -34 -159 -69 -314 -69c-81 0 -211 11 -288 40c-40 15 -77 37 -108 66
c-52 47 -111 132 -103 292zM335 356c-1 -93 30 -138 61 -164c39 -32 83 -42 133 -42c169 0 186 148 186 203c0 47 -11 107 -42 143c-14 17 -32 29 -52 39c-16 8 -51 21 -98 21c-23 0 -94 -3 -142 -59c-45 -54 -46 -120 -46 -141z" />
    <glyph glyph-name="P" unicode="P" horiz-adv-x="917" 
d="M506 225h-166v-225h-280v701c190 0 378 1 565 0c22 0 44 0 66 -3c21 -2 42 -5 63 -9c20 -4 56 -10 96 -43c68 -57 72 -143 72 -171c0 -36 -10 -157 -114 -215c-37 -20 -74 -25 -89 -28c-46 -4 -92 -8 -140 -8c-24 0 -49 1 -73 1zM341 538v-140l195 4c32 2 60 4 79 31
c4 6 13 18 13 36c0 8 -1 20 -13 35c-20 28 -47 31 -78 34h-196z" />
    <glyph glyph-name="Q" unicode="Q" horiz-adv-x="1042" 
d="M883 65l85 -87l-142 -113l-125 125c-30 -5 -81 -14 -156 -14c-60 0 -120 6 -180 11c-56 10 -74 15 -102 24c-36 13 -129 51 -181 149c-18 35 -42 98 -42 196c0 51 5 199 138 289c29 20 50 30 111 52c52 13 100 26 208 26c53 0 107 -3 161 -7c20 -3 40 -6 60 -10
c41 -9 172 -37 242 -157c39 -66 43 -128 47 -204c-4 -65 -8 -75 -17 -113c-15 -45 -25 -68 -36 -87c-25 -44 -58 -69 -71 -80zM550 149l-60 63l142 117l69 -72c6 35 12 64 12 99c0 41 -12 100 -36 133c-20 28 -72 67 -155 67c-22 0 -87 -2 -135 -52
c-27 -28 -53 -71 -53 -157c0 -82 28 -122 54 -147c9 -9 31 -28 62 -39c32 -11 65 -12 100 -12z" />
    <glyph glyph-name="R" unicode="R" horiz-adv-x="979" 
d="M57 703h533c77 0 191 1 259 -36c22 -12 42 -31 56 -52c14 -20 35 -55 35 -114c-1 -49 -17 -93 -53 -127c-19 -17 -42 -29 -64 -40c31 -15 49 -27 66 -58c31 -60 21 -132 32 -197c5 -31 14 -49 30 -78h-308c-14 51 -7 42 -12 118c-3 40 -6 54 -19 70c-20 24 -45 26 -77 27
h-196v-216h-282v703zM540 528h-202v-138h191c36 1 69 2 92 30c5 6 16 19 16 40c0 7 -1 20 -12 35c-20 28 -50 31 -85 33z" />
    <glyph glyph-name="S" unicode="S" horiz-adv-x="958" 
d="M545 252l-312 51c-47 13 -96 26 -134 60c-21 19 -54 61 -54 135c0 21 3 73 37 119c14 20 30 32 37 38c56 43 121 53 189 63c31 3 63 5 95 7c30 1 60 1 91 1c113 -7 231 -15 326 -77c9 -6 35 -23 55 -49c24 -31 32 -67 39 -106l-337 7c-5 13 -7 17 -11 22
c-33 49 -126 47 -129 47c-26 0 -66 -3 -86 -23c-7 -7 -12 -16 -12 -25c0 -1 1 -10 4 -15c9 -20 37 -24 55 -27l323 -51c73 -17 142 -35 186 -103c10 -15 29 -49 29 -98c0 -33 -11 -100 -73 -160c-67 -65 -154 -76 -245 -87c-46 -2 -92 -5 -138 -5c-40 0 -80 3 -120 5
c-23 2 -46 4 -68 7c-38 6 -91 21 -127 37c-17 7 -73 34 -108 88c-21 32 -27 64 -34 102l359 -6c25 -31 45 -59 125 -59c25 0 46 3 55 5c6 1 31 4 46 21c3 3 12 13 12 26c0 8 -4 17 -9 24c-16 21 -42 24 -66 26z" />
    <glyph glyph-name="T" unicode="T" horiz-adv-x="812" 
d="M8 701h807v-173h-264v-529h-281v530h-262v172z" />
    <glyph glyph-name="U" unicode="U" horiz-adv-x="979" 
d="M54 701h282v-409c0 -28 1 -51 14 -76c27 -52 102 -63 153 -63c10 0 65 0 100 24c7 5 17 13 26 30c9 19 13 34 15 73v421h285v-464c-2 -16 -3 -32 -5 -47c-4 -26 -13 -75 -62 -122c-71 -65 -173 -77 -262 -88c-36 -2 -71 -4 -107 -4c-38 0 -75 3 -112 6c-17 1 -33 2 -50 4
c-37 6 -106 27 -139 43c-41 19 -86 56 -106 98c-13 27 -18 66 -26 133z" />
    <glyph glyph-name="V" unicode="V" horiz-adv-x="875" 
d="M596 701h288l-292 -701h-301l-288 701h302c18 -62 36 -124 56 -186c15 -47 31 -94 44 -141c15 -53 27 -107 39 -160c27 94 54 188 83 282c22 69 46 137 69 205z" />
    <glyph glyph-name="W" unicode="W" horiz-adv-x="1104" 
d="M458 701h201l97 -466c9 69 18 138 29 206c15 87 31 173 47 260h274l-179 -701h-283l-89 395c-14 -71 -27 -142 -43 -212c-15 -61 -30 -122 -46 -183h-283l-175 701h269c19 -89 37 -179 54 -268c11 -63 20 -126 30 -188c13 76 27 151 43 226c16 77 35 154 54 230z" />
    <glyph glyph-name="X" unicode="X" horiz-adv-x="896" 
d="M291 371l-283 331h329l110 -161l128 160h308l-280 -330l318 -371h-324l-149 198l-144 -198h-323z" />
    <glyph glyph-name="Y" unicode="Y" horiz-adv-x="896" 
d="M600 701h296l-301 -498v-203h-279v205l-314 496h318c27 -55 53 -110 78 -166c21 -49 40 -98 59 -146c23 57 46 115 72 171c22 48 46 94 71 141z" />
    <glyph glyph-name="Z" unicode="Z" horiz-adv-x="833" 
d="M19 145l428 385h-404v172h784v-155l-425 -375h413v-172h-796v145z" />
    <glyph glyph-name="bracketleft" unicode="[" horiz-adv-x="583" 
d="M123 786h456v-181h-199v-516h195v-179h-452v876z" />
    <glyph glyph-name="backslash" unicode="\" horiz-adv-x="354" 
d="M230 -18l-228 724h128l228 -724h-128z" />
    <glyph glyph-name="bracketright" unicode="]" horiz-adv-x="583" 
d="M-5 93h197v517h-195v177h451v-876h-453v182z" />
    <glyph glyph-name="asciicircum" unicode="^" horiz-adv-x="729" 
d="M615 311h-138l-110 231l-116 -231h-137l203 395h104z" />
    <glyph glyph-name="underscore" unicode="_" horiz-adv-x="500" 
d="M510 -240h-520v127h520v-127z" />
    <glyph glyph-name="quoteleft" unicode="&#x2018;" horiz-adv-x="313" 
d="M253 711l21 -78c-41 -20 -49 -28 -69 -68h83v-217h-260v151c1 12 3 25 5 37c5 32 19 84 86 123c51 29 122 49 134 52z" />
    <glyph glyph-name="a" unicode="a" horiz-adv-x="854" 
d="M317 376h-247c2 11 4 21 7 31c5 20 14 52 52 83c57 47 130 54 201 62h153c29 -2 58 -4 86 -7c87 -10 168 -32 210 -117c14 -29 19 -53 22 -115v-212c0 -10 -1 -20 0 -30c1 -23 3 -36 26 -70h-254c-10 19 -15 26 -20 64c-20 -18 -45 -40 -103 -57c-19 -6 -97 -24 -172 -24
c-81 0 -142 20 -169 35c-12 7 -35 22 -55 52c-20 28 -31 60 -31 94c0 53 29 87 43 100c43 42 115 52 171 61l221 14c12 1 52 3 65 8c12 4 22 15 22 28c0 15 -8 31 -36 39c-9 3 -45 11 -77 11c-26 0 -46 -6 -56 -8c-2 -1 -23 -6 -34 -14c-10 -6 -18 -18 -25 -28zM549 233h-46
l-120 -11c-19 -2 -39 -3 -56 -10c-21 -10 -27 -28 -26 -37c0 -6 1 -13 9 -23c16 -19 40 -28 91 -28c13 0 58 0 96 22c14 9 28 21 35 34c8 13 11 23 17 53z" />
    <glyph glyph-name="b" unicode="b" horiz-adv-x="875" 
d="M53 701h255v-186c17 8 34 16 52 22c47 16 105 24 154 24c134 0 216 -57 254 -97c73 -73 80 -166 80 -201c0 -65 -22 -113 -33 -133c-77 -145 -254 -151 -295 -151c-80 0 -140 21 -214 48v-27h-253v701zM301 284c-1 -10 -1 -31 9 -56c23 -55 80 -84 137 -84
c21 0 82 5 122 59c7 9 23 32 23 65c0 24 -8 42 -12 50c-35 70 -113 76 -135 76c-20 -1 -80 -5 -120 -56c-6 -7 -20 -27 -24 -54z" />
    <glyph glyph-name="c" unicode="c" horiz-adv-x="854" 
d="M829 325h-259c-1 3 -9 20 -18 31c-17 22 -51 48 -117 48c-115 0 -147 -84 -147 -133c0 -12 2 -38 18 -66c17 -28 51 -64 128 -64c15 0 60 1 97 29c5 5 17 14 26 30c7 11 9 23 12 36h267c-1 -7 -6 -43 -16 -71c-10 -30 -38 -91 -113 -133c-22 -12 -37 -18 -82 -32
c-29 -6 -88 -20 -165 -20c-22 0 -45 1 -68 1c-15 0 -30 0 -44 1c-20 2 -40 4 -59 6l-54 12c-38 10 -124 34 -174 132c-11 23 -31 69 -31 133c0 95 40 161 61 187c13 16 38 42 83 64c19 9 43 18 64 25c23 5 47 10 71 13c22 3 80 7 144 7c40 0 80 -4 119 -8
c33 -6 63 -11 94 -23c129 -49 151 -158 163 -205z" />
    <glyph glyph-name="d" unicode="d" horiz-adv-x="875" 
d="M573 515v186h253v-701h-251l-1 28c-75 -27 -141 -50 -221 -50c-37 0 -120 5 -206 61c-10 7 -34 22 -55 46c-42 46 -62 113 -62 178c0 42 8 140 96 216c44 38 117 82 245 82c80 0 129 -18 202 -46zM287 275c-1 -21 7 -41 10 -47c24 -55 81 -84 137 -84c15 0 54 2 90 27
c12 9 57 45 56 97c0 12 -1 30 -16 55c-28 47 -79 70 -131 69c-47 0 -91 -18 -121 -55c-7 -9 -23 -31 -25 -62z" />
    <glyph glyph-name="e" unicode="e" horiz-adv-x="854" 
d="M833 211h-542c13 -22 22 -35 29 -43c35 -38 98 -38 149 -38c44 0 60 7 97 31h265c-8 -20 -18 -47 -53 -81c-42 -40 -88 -57 -106 -64c-24 -8 -47 -15 -70 -21c-62 -14 -116 -16 -243 -12c-22 3 -44 5 -66 10c-66 13 -137 43 -186 91c-11 12 -33 35 -51 73
c-9 19 -26 62 -26 118c0 45 12 158 123 227c21 13 41 21 87 38c38 9 79 22 160 22c25 0 49 -2 74 -3c78 -5 108 -11 183 -37c17 -8 34 -17 50 -27c46 -29 81 -74 101 -125c23 -56 25 -99 25 -159zM285 341l295 1c-9 21 -18 36 -36 50c-21 15 -47 27 -100 27
c-49 0 -77 -5 -98 -14c-24 -11 -36 -22 -61 -64z" />
    <glyph glyph-name="f" unicode="f" horiz-adv-x="437" 
d="M3 541h79c-2 52 -1 111 45 142c32 21 71 24 107 28h206v-125c-30 0 -58 0 -67 -1c-33 -5 -38 -34 -41 -44h107v-154h-104v-387h-255v390h-77v151z" />
    <glyph glyph-name="g" unicode="g" horiz-adv-x="896" 
d="M593 497v44h253v-439c-1 -40 -2 -76 -15 -112c-8 -20 -25 -60 -69 -94c-92 -71 -257 -75 -273 -76h-111c-79 5 -148 11 -219 47c-10 5 -38 20 -62 43c-20 20 -31 38 -52 89h329c6 -10 10 -15 14 -19c18 -16 49 -20 71 -20c12 0 69 -1 108 33c12 10 19 22 22 28
c8 19 8 40 8 62c-87 -31 -140 -47 -233 -47c-71 0 -140 9 -204 44c-114 62 -131 168 -131 216c0 69 31 137 83 182c37 32 115 78 236 78c26 0 102 -3 176 -29c24 -9 46 -19 69 -30zM289 304c-1 -11 -2 -37 17 -62c20 -28 61 -57 137 -57c18 0 79 1 119 48c7 7 25 30 25 61
c0 9 -1 28 -15 47c-30 43 -91 61 -142 61c-63 0 -100 -29 -117 -49c-7 -7 -21 -23 -24 -49z" />
    <glyph glyph-name="h" unicode="h" horiz-adv-x="833" 
d="M53 701h255v-202c76 37 123 57 206 57c28 0 118 0 191 -52c7 -5 32 -25 48 -49c15 -24 21 -46 29 -103v-352h-251v264c0 5 0 25 -4 42c-18 66 -91 65 -107 65c-59 0 -89 -27 -100 -50c-9 -18 -10 -37 -12 -59v-262h-255v701z" />
    <glyph glyph-name="i" unicode="i" horiz-adv-x="354" 
d="M51 542h255v-542h-255v542zM54 711h252v-125h-252v125z" />
    <glyph glyph-name="j" unicode="j" horiz-adv-x="396" 
d="M91 125v417h255v-511c-5 -57 -12 -74 -32 -98c-37 -41 -84 -50 -137 -50c-26 0 -52 2 -78 4l-102 21l1 155c4 -2 23 -9 41 -9c25 0 44 14 50 40c2 7 2 15 2 31zM93 712h253v-124h-253v124z" />
    <glyph glyph-name="k" unicode="k" horiz-adv-x="812" 
d="M54 701h253v-333l181 174h341l-229 -193l247 -352l-317 3l-123 201l-101 -84v-117h-252v701z" />
    <glyph glyph-name="l" unicode="l" horiz-adv-x="354" 
d="M53 701h253v-701h-253v701z" />
    <glyph glyph-name="m" unicode="m" horiz-adv-x="1167" 
d="M52 543h254l1 -41c35 18 98 55 198 55c9 0 31 0 55 -5c53 -8 79 -28 120 -62c7 5 19 14 37 23c51 27 119 42 177 42c118 0 177 -60 198 -102c15 -29 19 -64 23 -97v-356h-253v280c-2 35 -4 60 -35 76c-8 4 -21 10 -43 10c-8 0 -26 -1 -43 -13c-28 -18 -30 -42 -31 -74
v-279h-254v285c-2 32 -4 57 -30 72c-6 3 -21 10 -42 10c-7 0 -22 0 -38 -8c-34 -16 -37 -43 -40 -81v-278h-254v543z" />
    <glyph glyph-name="n" unicode="n" horiz-adv-x="833" 
d="M54 542h253l1 -44c15 7 30 15 46 22c32 15 78 35 157 35c31 0 124 -1 200 -58c5 -4 26 -21 40 -40c19 -29 25 -62 30 -97v-360h-251v269c0 21 -1 36 -11 55c-6 11 -13 17 -16 20c-21 18 -58 25 -86 25c-59 0 -87 -27 -98 -49c-9 -20 -10 -53 -11 -58v-262h-254v542z" />
    <glyph glyph-name="o" unicode="o" horiz-adv-x="875" 
d="M30 274c1 36 10 135 90 206c38 33 83 50 99 55c55 18 114 26 233 26c19 0 38 -1 57 -1c25 -2 173 -5 262 -88c13 -13 34 -35 53 -75c18 -41 27 -86 27 -132c0 -130 -71 -200 -113 -228c-84 -55 -213 -60 -309 -60c-24 0 -49 1 -73 2c-33 3 -184 8 -271 117
c-54 67 -56 149 -55 178zM288 280c-2 -23 4 -46 16 -67c18 -32 56 -68 140 -68c47 0 90 13 120 48c9 11 29 38 29 78c0 34 -15 68 -39 90c-17 16 -54 38 -116 38c-21 0 -81 -2 -122 -53c-7 -9 -25 -33 -28 -66z" />
    <glyph glyph-name="p" unicode="p" horiz-adv-x="875" 
d="M53 542h253l1 -25c71 23 134 44 211 44c20 0 40 -2 60 -3c16 -3 33 -6 49 -10c27 -6 87 -21 141 -75c73 -73 80 -162 80 -199c0 -19 -2 -66 -25 -115c-39 -85 -127 -148 -215 -169c-40 -10 -68 -9 -85 -9c-95 0 -131 11 -217 44v-190h-253v707zM301 283
c-1 -21 4 -45 15 -64c26 -48 78 -70 131 -70c23 0 91 5 129 66c6 9 17 29 17 57c0 17 -4 32 -11 48c-24 51 -79 79 -135 79c-27 -1 -45 -6 -55 -10c-46 -17 -86 -58 -91 -106z" />
    <glyph glyph-name="q" unicode="q" horiz-adv-x="875" 
d="M575 514v27h251v-707h-253l-1 192c-67 -28 -83 -32 -154 -44h-106c-17 4 -34 7 -51 12c-23 6 -71 19 -123 58c-8 6 -29 23 -48 46c-23 27 -59 86 -59 180c0 109 55 200 151 246c34 16 67 23 103 31c27 3 53 5 80 5c48 0 84 -8 132 -20zM286 280c0 -8 0 -27 10 -49
c24 -56 81 -82 139 -82c47 0 93 19 123 59c6 9 22 33 22 64c0 14 -4 45 -30 75c-41 47 -98 51 -118 51c-10 0 -31 0 -55 -9c-45 -17 -87 -59 -91 -109z" />
    <glyph glyph-name="r" unicode="r" horiz-adv-x="646" 
d="M54 542h255v-35c34 21 73 48 162 48c17 0 64 0 106 -27c77 -50 76 -150 74 -227h-222c2 29 3 54 -21 73c-15 12 -30 14 -37 14c-12 0 -24 -5 -33 -11c-27 -20 -29 -47 -31 -78v-299h-253v542z" />
    <glyph glyph-name="s" unicode="s" horiz-adv-x="812" 
d="M448 191l-250 27c-58 11 -112 20 -146 73c-15 25 -23 55 -23 84c0 56 29 111 76 139c25 15 60 24 67 26c47 10 97 22 201 22c22 0 44 -1 66 -1c96 -3 118 -9 173 -21c9 -3 17 -6 25 -9c18 -7 71 -24 105 -74c19 -27 23 -52 28 -84l-290 1c-9 26 -15 30 -30 35
c-13 4 -36 9 -68 9c-9 0 -18 -1 -26 -1c-20 -1 -41 0 -55 -15c-3 -3 -7 -10 -6 -15c0 -3 1 -9 6 -14c15 -16 43 -16 47 -17l305 -33c53 -12 99 -29 122 -82c13 -29 14 -60 14 -71c0 -34 -7 -98 -82 -139c-24 -13 -53 -22 -80 -30c-89 -15 -118 -20 -270 -20
c-54 0 -78 0 -173 18c-47 14 -90 28 -127 65c-15 16 -28 34 -35 54c-8 23 -9 47 -9 54h303c15 -30 24 -36 39 -40c11 -3 34 -6 62 -6c37 0 57 4 69 14c10 8 12 16 12 21c0 6 -2 11 -3 13c-7 11 -20 13 -47 17z" />
    <glyph glyph-name="t" unicode="t" horiz-adv-x="458" 
d="M345 702v-160h91v-151h-93v-189c2 -18 4 -35 18 -48c9 -8 18 -10 28 -11h46v-143h-161c-14 0 -28 0 -43 1c-39 3 -84 14 -109 43c-32 37 -32 97 -32 145v202h-87v151h86v160h256z" />
    <glyph glyph-name="u" unicode="u" horiz-adv-x="833" 
d="M306 541v-239c0 -37 0 -72 25 -99c24 -26 54 -30 88 -30c9 0 40 0 66 14c42 22 44 58 45 102v251h252v-540h-252v44c-18 -9 -35 -18 -52 -25c-32 -15 -78 -33 -157 -33c-141 0 -218 62 -244 115c-17 34 -19 75 -22 115v325h251z" />
    <glyph glyph-name="v" unicode="v" horiz-adv-x="792" 
d="M519 540h272l-253 -540h-283l-251 540h271c23 -55 46 -110 66 -166c21 -56 39 -114 57 -171c18 60 37 120 58 179c20 53 41 106 63 158z" />
    <glyph glyph-name="w" unicode="w" horiz-adv-x="1104" 
d="M342 212l122 328h179l122 -324c11 61 21 123 35 184c10 47 22 94 33 140h271l-177 -541h-284l-93 251l-86 -251h-286l-173 541h270c15 -60 29 -120 42 -181c10 -49 18 -98 25 -147z" />
    <glyph glyph-name="x" unicode="x" horiz-adv-x="812" 
d="M243 293l-231 247h315l84 -111l82 111h303l-221 -249l256 -291h-313l-114 152l-113 -152h-309z" />
    <glyph glyph-name="y" unicode="y" horiz-adv-x="750" 
d="M499 541h261c-19 -37 -39 -73 -57 -110c-25 -50 -49 -101 -74 -151c-19 -40 -40 -78 -59 -118c-66 -130 -51 -122 -133 -243c-17 -21 -28 -32 -37 -40c-43 -39 -92 -41 -112 -44h-210v153c44 1 79 2 95 5c46 9 61 56 65 68l-246 480h265c22 -48 44 -96 64 -145
c21 -51 41 -102 60 -153c18 52 36 104 56 155c19 48 40 96 62 143z" />
    <glyph glyph-name="z" unicode="z" horiz-adv-x="708" 
d="M16 138l311 239h-276v164h630v-138l-305 -241h294v-163h-654v139z" />
    <glyph glyph-name="braceleft" unicode="{" horiz-adv-x="354" 
d="M112 414v177c2 61 17 112 77 139c42 19 79 17 165 18v-8c-12 -2 -23 -5 -35 -9c-17 -5 -54 -21 -67 -69c-7 -23 -6 -44 -7 -90v-95c-1 -93 2 -138 -25 -179c-20 -29 -47 -40 -80 -49c29 -8 52 -17 73 -41c34 -38 33 -81 33 -176v-107c0 -40 -3 -81 20 -117
c22 -35 51 -40 88 -51v-7h-46c-50 1 -104 2 -147 35c-51 39 -48 106 -49 163v126c0 47 5 94 -24 134c-4 6 -13 18 -29 27c-11 7 -21 10 -25 11v7c17 4 26 9 32 13c49 32 46 100 46 148z" />
    <glyph glyph-name="bar" unicode="|" horiz-adv-x="229" 
d="M178 -250h-127v998h127v-998z" />
    <glyph glyph-name="braceright" unicode="}" horiz-adv-x="354" 
d="M242 83v-175c-2 -62 -18 -115 -80 -142c-40 -17 -77 -16 -162 -16v7c36 8 65 15 88 47c22 31 20 55 21 122v95c0 92 -2 139 27 179c20 29 46 40 78 48c-29 8 -52 18 -72 41c-35 39 -34 82 -34 176v108c0 41 3 86 -23 122c-22 30 -51 36 -85 45v8c15 0 30 -1 46 -1
c50 0 104 -2 147 -34c51 -40 48 -107 49 -163v-127c0 -46 -5 -94 24 -134c4 -6 13 -17 29 -27c11 -7 21 -9 25 -10v-8c-11 -2 -22 -6 -32 -13c-48 -31 -46 -100 -46 -148z" />
    <glyph glyph-name="asciitilde" unicode="~" horiz-adv-x="729" 
d="M366 230l-31 15c-24 11 -46 23 -73 23c-13 -1 -25 -3 -37 -8c-21 -10 -36 -28 -67 -63l-55 104c16 22 63 94 156 94c39 0 69 -14 103 -31l36 -16c4 -2 45 -22 76 -22c28 0 61 16 100 61l52 -105c-9 -10 -21 -23 -45 -41c-49 -35 -83 -42 -111 -42c-38 0 -71 15 -104 31z
" />
    <glyph glyph-name="exclamdown" unicode="&#xa1;" horiz-adv-x="354" 
d="M51 434h211l26 -434h-267zM26 702h259v-213h-259v213z" />
    <glyph glyph-name="sterling" unicode="&#xa3;" horiz-adv-x="875" 
d="M114 300h-68v113l51 1c0 56 -1 89 4 113c8 36 36 76 62 101c33 31 66 42 110 58c44 9 77 18 167 18c120 0 150 -5 218 -19c13 -5 27 -9 40 -14c23 -8 88 -32 123 -100c21 -42 24 -81 26 -127h-290c0 14 0 25 -5 38c-12 37 -47 56 -81 56c-32 0 -67 -17 -79 -45
c-5 -13 -5 -27 -5 -32c0 -16 1 -33 1 -49h140v-113h-145c-18 -61 -29 -74 -49 -104c25 12 38 19 86 19c27 0 55 -3 83 -6l102 -18c99 -5 108 5 196 51l51 -183c-11 -7 -23 -14 -35 -22c-33 -19 -93 -52 -188 -52c-67 0 -136 15 -201 30c-46 11 -98 26 -146 26
c-11 0 -29 0 -55 -6c-53 -11 -85 -32 -128 -63l-80 167c28 18 53 33 71 60c27 39 24 87 24 102z" />
    <glyph glyph-name="fraction" unicode="&#x2044;" horiz-adv-x="125" 
d="M139 701h106l-259 -700h-106z" />
    <glyph glyph-name="section" unicode="&#xa7;" horiz-adv-x="979" 
d="M411 721l139 -4c36 -5 72 -10 107 -18c21 -4 113 -24 168 -90c23 -28 30 -53 40 -90h-271c-5 11 -12 24 -19 31c-15 15 -47 22 -99 22c-37 0 -56 -3 -68 -16c-6 -7 -7 -13 -7 -16s1 -7 4 -12c9 -13 26 -17 58 -22l245 -40c62 -14 119 -27 169 -70c5 -5 16 -14 28 -29
c11 -14 36 -51 36 -103c0 -22 -5 -72 -48 -114c-11 -11 -20 -18 -44 -34c23 -30 34 -49 34 -88c0 -19 -4 -65 -41 -104c-7 -7 -19 -18 -39 -30c-75 -44 -177 -49 -260 -53c-118 1 -237 3 -342 54c-12 6 -44 21 -71 48c-34 32 -44 66 -58 111h265c18 -30 28 -45 58 -53
c10 -3 60 -10 104 -10c21 0 42 0 59 13c9 8 11 15 11 21c0 7 -4 14 -5 15c-7 10 -25 14 -50 19l-256 50c-18 4 -35 9 -53 14c-59 18 -112 45 -149 100c-10 15 -30 49 -30 97c0 17 2 52 26 89c19 29 42 45 72 63c-7 13 -22 36 -22 72c0 18 5 53 35 90c64 77 184 83 274 87z
M325 288l379 -80c5 14 7 18 7 27c-1 8 -4 19 -7 25c-12 19 -34 23 -57 27l-373 79c-11 -15 -14 -21 -14 -32c1 -35 37 -41 65 -46z" />
    <glyph glyph-name="currency" unicode="&#xa4;" horiz-adv-x="667" 
d="M579 187l81 -82l-96 -95l-81 82c-26 -15 -72 -42 -150 -42c-77 0 -126 28 -151 44l-81 -82l-95 95l82 82c-6 9 -13 19 -18 29c-24 49 -25 102 -25 120c0 80 26 126 42 152l-80 80l95 95l80 -80c9 6 18 11 27 16c21 10 64 27 125 27c77 0 124 -27 150 -43l81 81l96 -96
l-81 -80c5 -9 10 -17 15 -27c25 -52 27 -103 27 -125c0 -78 -27 -124 -43 -151zM497 340c0 12 -1 40 -15 70c-26 58 -85 95 -149 95c-10 0 -29 -1 -54 -10c-69 -24 -109 -84 -109 -156c0 -12 0 -37 12 -65c26 -62 88 -100 153 -100c34 0 57 10 70 16c58 28 92 85 92 150z
" />
    <glyph glyph-name="quotesingle" unicode="'" horiz-adv-x="208" 
d="M121 408h-32l-54 250c-1 5 -4 21 -1 37c7 36 40 54 74 54c32 0 61 -17 67 -50c1 -10 0 -20 -1 -29z" />
    <glyph glyph-name="quotedblleft" unicode="&#x201c;" horiz-adv-x="646" 
d="M246 711l22 -78c-41 -19 -50 -28 -73 -68h86v-216h-259v155c1 14 3 29 6 43c3 18 11 51 45 83c34 34 79 52 173 81zM580 709l23 -78c-43 -17 -51 -25 -72 -67h85v-217h-260v160c8 51 14 73 27 94c25 39 69 59 81 65c50 23 65 29 116 43z" />
    <glyph glyph-name="guillemotleft" unicode="&#xab;" horiz-adv-x="583" 
d="M155 419h171l-146 -149l140 -151h-166l-141 151zM392 420h170l-139 -150l137 -151h-167l-140 151z" />
    <glyph glyph-name="fi" unicode="&#xfb01;" horiz-adv-x="792" 
d="M3 541h79c-2 52 -1 111 45 142c32 21 71 24 107 28h206v-125c-30 0 -58 0 -67 -1c-33 -5 -38 -34 -41 -44h107v-154h-104v-387h-255v390h-77v151zM489 542h255v-542h-255v542zM492 711h252v-125h-252v125z" />
    <glyph glyph-name="fl" unicode="&#xfb02;" horiz-adv-x="792" 
d="M3 541h79c-2 52 -1 111 45 142c32 21 71 24 107 28h206v-125c-30 0 -58 0 -67 -1c-33 -5 -38 -34 -41 -44h107v-154h-104v-387h-255v390h-77v151zM491 701h253v-701h-253v701z" />
    <glyph glyph-name="endash" unicode="&#x2013;" 
d="M33 352h876v-164h-876v164z" />
    <glyph glyph-name="dagger" unicode="&#x2020;" horiz-adv-x="750" 
d="M6 519h234v182h266v-184h230v-175h-231v-516h-267v518h-232v175z" />
    <glyph glyph-name="periodcentered" unicode="&#xb7;" horiz-adv-x="187" 
d="M91 201c-47 1 -87 40 -86 88c0 6 1 20 7 34c7 18 31 56 84 56c51 0 87 -39 87 -89c0 -14 -3 -27 -9 -39c-7 -14 -34 -51 -83 -50z" />
    <glyph glyph-name="paragraph" unicode="&#xb6;" horiz-adv-x="667" 
d="M558 706v-78h-36v-795h-84v795h-117v-795h-85v459c-11 3 -39 10 -66 26c-34 22 -88 72 -88 173c0 132 87 186 134 202c31 11 59 13 92 13h250z" />
    <glyph glyph-name="bullet" unicode="&#x2022;" horiz-adv-x="333" 
d="M322 352c0 -12 -1 -38 -13 -65c-24 -58 -78 -90 -139 -90c-33 0 -57 9 -68 14c-54 25 -90 82 -90 142c0 87 72 155 157 155c32 0 55 -9 66 -14c29 -14 87 -54 87 -142z" />
    <glyph glyph-name="quotesinglbase" unicode="&#x201a;" horiz-adv-x="313" 
d="M26 217h260v-154c-7 -54 -13 -76 -26 -98c-24 -40 -68 -61 -81 -68c-52 -24 -61 -27 -115 -44l-22 82c42 16 49 25 68 66h-84v216z" />
    <glyph glyph-name="quotedblbase" unicode="&#x201e;" horiz-adv-x="646" 
d="M24 215h259v-148c-1 -10 -1 -21 -2 -31c-3 -21 -8 -57 -43 -94c-45 -47 -117 -68 -177 -86l-22 80c41 16 49 24 70 64h-85v215zM357 216h262v-165c-6 -47 -11 -74 -43 -109c-48 -51 -115 -69 -181 -87l-21 79c42 17 50 24 69 66h-86v216z" />
    <glyph glyph-name="quotedblright" unicode="&#x201d;" horiz-adv-x="646" 
d="M23 701h259v-150c-1 -11 -2 -22 -4 -33c-2 -18 -9 -56 -43 -91c-43 -45 -119 -67 -175 -85l-23 80c42 17 50 25 70 65h-84v214zM356 700h261v-158c-8 -53 -15 -76 -29 -97c-22 -33 -63 -54 -97 -72l-100 -32l-18 79c41 17 49 24 67 65h-84v215z" />
    <glyph glyph-name="guillemotright" unicode="&#xbb;" horiz-adv-x="583" 
d="M150 269l-137 150h166l141 -156c-8 -6 -17 -13 -25 -20c-19 -18 -35 -39 -52 -58c-20 -23 -42 -44 -63 -66h-170zM391 267l-136 151h165l139 -150l-139 -149h-167z" />
    <glyph glyph-name="ellipsis" unicode="&#x2026;" horiz-adv-x="1000" 
d="M913 75c0 -45 -34 -81 -79 -81c-6 0 -15 0 -28 5c-16 6 -52 26 -52 75c0 44 36 80 80 80s79 -35 79 -79zM580 75c0 -45 -34 -81 -79 -81c-13 0 -22 3 -27 5c-33 11 -53 39 -53 75c0 16 4 28 7 34c13 29 43 46 73 46c44 0 78 -35 79 -79zM246 75c0 -45 -33 -81 -79 -81
c-5 0 -15 0 -28 5c-15 6 -52 26 -52 75c0 44 36 80 81 80c44 0 78 -35 78 -79z" />
    <glyph glyph-name="questiondown" unicode="&#xbf;" horiz-adv-x="833" 
d="M285 438l251 -1c-1 -47 -3 -74 -38 -104c-39 -34 -88 -46 -134 -62c-55 -18 -76 -41 -76 -72c1 -50 63 -59 103 -59c32 0 70 3 99 24c5 4 18 14 26 29c8 17 9 35 10 54h282c-18 -82 -34 -149 -103 -197c-46 -32 -103 -43 -118 -47c-41 -7 -98 -18 -193 -18
c-102 0 -145 10 -197 19c-8 2 -60 14 -95 33c-29 16 -99 63 -99 160c0 53 17 92 61 122c12 9 17 11 40 22l106 40c39 15 49 22 75 57zM277 701h261v-215h-261v215z" />
    <glyph glyph-name="grave" unicode="`" horiz-adv-x="417" 
d="M101 721l86 -131h-247l-150 131h311z" />
    <glyph glyph-name="acute" unicode="&#xb4;" horiz-adv-x="417" 
d="M13 720h306l-147 -133h-249z" />
    <glyph glyph-name="circumflex" unicode="&#x2c6;" horiz-adv-x="417" 
d="M-94 721h316l111 -132h-215l-65 63l-64 -62h-214z" />
    <glyph glyph-name="tilde" unicode="&#x2dc;" horiz-adv-x="417" 
d="M173 729h161c-9 -44 -19 -82 -56 -111c-40 -32 -87 -32 -135 -30l-131 17c-20 3 -26 5 -36 5c-16 0 -24 -10 -35 -23l-162 4c7 41 13 69 43 98c49 48 123 43 140 42l146 -20c3 0 14 -3 24 -3c12 1 21 4 41 21z" />
    <glyph glyph-name="dieresis" unicode="&#xa8;" horiz-adv-x="417" 
d="M12 720v-132h-227v132h227zM103 720h230v-131h-230v131z" />
    <glyph glyph-name="cedilla" unicode="&#xb8;" horiz-adv-x="417" 
d="M-37 13l222 -1v-42c0 -13 3 -50 -21 -84c-18 -24 -43 -34 -52 -38c-19 -7 -36 -8 -56 -11h-244v99c24 0 48 1 74 0c36 -1 50 2 62 16c16 18 16 38 15 61z" />
    <glyph glyph-name="caron" unicode="&#x2c7;" horiz-adv-x="417" 
d="M-2 719l64 -64l66 66l217 -1c-24 -19 -32 -24 -69 -62c-22 -23 -44 -46 -66 -68h-281c-31 -2 -38 2 -57 25l-99 104h225z" />
    <glyph glyph-name="emdash" unicode="&#x2014;" horiz-adv-x="667" 
d="M667 227h-667v127h667v-127z" />
    <glyph glyph-name="AE" unicode="&#xc6;" horiz-adv-x="1125" 
d="M400 701h691v-171h-344v-78h281v-176h-282v-98h360v-178h-583v119h-205l-65 -119h-258zM523 517l-113 -221h113v221z" />
    <glyph glyph-name="Oslash" unicode="&#xd8;" horiz-adv-x="1042" 
d="M842 663l87 67l41 -54l-71 -55c7 -6 14 -13 21 -20c18 -17 41 -41 61 -94c33 -88 25 -167 24 -201c-9 -63 -16 -82 -27 -115c-20 -45 -33 -68 -69 -102c-62 -58 -108 -71 -145 -83c-71 -18 -110 -29 -241 -29c-119 0 -172 14 -229 26c-52 16 -64 21 -111 49l-79 -64
l-39 50l69 55c-17 17 -30 31 -42 50c-35 56 -51 146 -51 212c0 69 16 150 55 209c20 30 44 52 54 60c12 11 38 32 76 50c16 8 28 12 60 22c49 13 103 28 211 28c56 0 111 -4 166 -8c83 -13 104 -19 179 -53zM331 255l341 268c-33 19 -67 44 -149 44
c-117 0 -161 -59 -183 -104c-16 -33 -25 -70 -25 -107c0 -25 4 -50 16 -101zM710 477l-341 -277c8 -6 16 -11 24 -17c25 -16 64 -40 137 -40c18 0 67 2 111 28c66 40 93 123 93 199c0 56 -14 83 -24 107z" />
    <glyph glyph-name="OE" unicode="&#x152;" horiz-adv-x="1125" 
d="M535 699h556v-171h-343v-80h282v-176h-283v-100h350v-172h-569c-48 -7 -90 -14 -139 -14c-40 0 -149 5 -241 85c-48 41 -112 120 -112 272c0 193 96 284 165 324c20 11 47 24 97 35c18 4 52 11 97 11c26 0 59 -4 84 -7c19 -3 37 -5 56 -7zM525 160l-1 382
c-26 2 -52 5 -79 5s-54 -3 -76 -15c-37 -20 -74 -81 -74 -182c0 -76 19 -119 40 -146c14 -19 29 -29 36 -33c28 -16 67 -15 77 -15c26 0 51 2 77 4z" />
    <glyph glyph-name="ae" unicode="&#xe6;" horiz-adv-x="1125" 
d="M291 371l-231 1c10 29 25 78 83 123c72 56 153 66 240 66c89 0 125 -10 210 -42c41 17 96 42 198 42c128 0 202 -47 240 -84c28 -29 42 -60 47 -73c25 -58 25 -119 26 -181h-421c1 -5 6 -31 16 -46c15 -22 51 -43 112 -43c32 0 58 5 68 11c4 2 10 6 18 15h204
c-6 -21 -13 -53 -48 -90c-85 -92 -219 -91 -251 -91c-68 0 -90 7 -125 19c-52 18 -54 17 -100 47c-27 -16 -48 -29 -75 -39c-35 -13 -108 -27 -206 -27c-12 0 -24 0 -36 1c-24 1 -145 5 -206 90c-18 26 -30 59 -30 91c0 14 3 43 21 75c41 70 121 82 194 92l171 13
c39 -1 55 3 69 16c6 6 11 13 11 22c0 7 -3 12 -4 14c-3 6 -10 13 -24 17c-5 1 -43 7 -71 7c-7 0 -46 1 -71 -16c-10 -7 -21 -20 -29 -30zM491 225l-164 -6c-28 -1 -43 -4 -54 -10c-10 -7 -17 -18 -17 -32c0 -13 8 -23 19 -31c20 -15 45 -17 70 -17c76 0 119 33 135 61
c6 10 8 16 11 35zM687 345h211c-5 12 -9 20 -11 24c-21 30 -59 38 -95 38c-52 0 -80 -19 -93 -37c-7 -9 -8 -14 -12 -25z" />
    <glyph glyph-name="dotlessi" unicode="&#x131;" horiz-adv-x="354" 
d="M55 541h250v-541h-250v541z" />
    <glyph glyph-name="oslash" unicode="&#xf8;" horiz-adv-x="875" 
d="M718 509l87 65l31 -40l-76 -57c23 -23 31 -32 41 -46c34 -46 49 -105 49 -164c0 -36 -8 -150 -103 -218c-70 -51 -152 -59 -232 -67h-141c-55 4 -116 10 -169 31c-14 6 -23 11 -46 25l-86 -64l-28 43l70 50c-3 3 -30 31 -45 55c-14 22 -41 75 -41 148c0 75 29 155 84 205
c62 57 136 69 215 82c60 5 71 7 167 4c86 -7 131 -14 168 -27c21 -7 37 -16 55 -25zM303 205l234 169c-1 1 -13 11 -23 16c-12 6 -37 14 -71 14c-2 0 -22 -1 -35 -3c-45 -6 -83 -24 -107 -63c-6 -10 -19 -34 -19 -65c0 -28 8 -45 21 -68zM576 341l-238 -171
c24 -14 45 -27 101 -27c10 0 39 1 68 11c24 8 89 37 89 120c0 35 -14 56 -20 67z" />
    <glyph glyph-name="oe" unicode="&#x153;" horiz-adv-x="1125" 
d="M1101 225l-420 -1c8 -26 13 -38 20 -47c21 -31 74 -45 111 -45c4 0 43 1 65 14c6 4 10 8 19 18l201 -1c-6 -14 -12 -29 -19 -44c-20 -40 -38 -63 -75 -87c-34 -22 -93 -53 -191 -53c-80 0 -150 21 -174 30c-23 9 -33 16 -55 28c-7 -5 -24 -16 -46 -26
c-27 -11 -93 -32 -173 -32c-68 0 -118 15 -143 23c-169 61 -198 204 -198 274c0 24 4 79 34 135c80 150 262 151 305 151c18 0 106 0 175 -32c18 -8 33 -18 49 -28c25 19 38 27 51 33c39 18 105 26 149 26c119 0 193 -48 228 -82c32 -31 49 -68 55 -82c19 -42 25 -80 27 -96
c3 -25 4 -34 5 -76zM237 283c-1 -14 0 -52 25 -85c22 -28 58 -45 94 -45c9 0 27 1 48 10c42 18 72 62 72 108c0 9 -1 28 -11 50c-19 44 -61 72 -108 72c-63 0 -115 -47 -120 -110zM687 346l210 1c-5 8 -10 17 -16 25c-14 19 -37 36 -91 36c-7 0 -32 0 -53 -9
c-27 -10 -37 -27 -50 -53z" />
    <glyph glyph-name="germandbls" unicode="&#xdf;" horiz-adv-x="896" 
d="M353 5v162c64 -10 91 -13 123 -13c41 0 71 7 85 14c13 6 20 15 24 19c16 20 18 39 18 49c0 22 -9 37 -13 44c-30 41 -105 37 -209 38v130c26 0 52 -1 77 0s40 4 50 8c21 9 36 24 37 49c-1 34 -25 57 -90 57c-11 0 -23 -1 -34 -2c-33 -4 -58 -7 -82 -32
c-27 -27 -29 -58 -30 -95v-433h-254v474c1 11 2 23 3 35c3 24 8 68 51 114c63 69 166 83 255 95c38 2 77 3 116 3c22 -1 45 -2 68 -4c27 -2 51 -3 77 -9c4 -1 77 -16 115 -38c25 -14 80 -55 80 -139c0 -15 -3 -63 -36 -97c-10 -11 -28 -23 -41 -31c38 -18 64 -34 91 -70
c14 -19 36 -58 36 -119c0 -124 -83 -177 -124 -196c-23 -10 -51 -18 -76 -24c-63 -14 -97 -15 -128 -15c-53 0 -90 5 -189 26z" />
    <glyph glyph-name="Grave" unicode="&#xf6ce;" horiz-adv-x="417" 
d="M112 870l75 -118h-246l-140 118h311z" />
    <glyph glyph-name="Acute" unicode="&#xf6c9;" horiz-adv-x="417" 
d="M-2 873h312l-140 -120h-248z" />
    <glyph glyph-name="Circumflex" horiz-adv-x="417" 
d="M-112 872h339l97 -118h-208l-65 63l-61 -65h-212z" />
    <glyph glyph-name="Tilde" horiz-adv-x="417" 
d="M167 872h166c-2 -6 -7 -33 -17 -53c-26 -55 -72 -69 -94 -72c-13 -2 -25 -2 -51 -1l-161 22c-32 5 -40 3 -68 -15h-166c5 21 10 41 20 59c41 72 113 64 137 63l164 -20c34 -5 41 -3 70 17z" />
    <glyph glyph-name="Dieresis" unicode="&#xf6cb;" horiz-adv-x="417" 
d="M-225 873h235v-120h-235v120zM97 873h232v-120h-232v120z" />
    <glyph glyph-name="Caron" unicode="&#xf6ca;" horiz-adv-x="417" 
d="M-1 874l60 -63l63 62h226l-127 -118h-338l-107 119h223z" />
    <glyph glyph-name="Adieresis" unicode="&#xc4;" 
d="M292 701h353l300 -701h-294l-26 66h-318l-29 -66h-281zM371 235l190 1c-13 35 -26 70 -39 106c-20 58 -39 117 -57 175c-44 -160 -60 -195 -94 -282zM190 873h237v-122h-237v122zM513 873h232v-122h-232v122z" />
    <glyph glyph-name="Aring" unicode="&#xc5;" 
d="M292 701h353l300 -701h-294l-26 66h-318l-29 -66h-281zM371 235l190 1c-13 35 -26 70 -39 106c-20 58 -39 117 -57 175c-44 -160 -60 -195 -94 -282zM306 841c3 15 11 28 20 40c37 42 91 48 141 48c40 0 87 -5 121 -27c37 -24 44 -61 44 -78c0 -9 -3 -34 -21 -54
c-19 -22 -62 -44 -132 -44c-11 0 -76 0 -118 22c-35 18 -62 50 -55 93zM428 845c-2 -4 -4 -9 -4 -18c0 -24 23 -38 45 -38c21 0 48 16 48 38c0 6 -2 12 -4 16c-9 16 -25 25 -43 25c-7 0 -32 -2 -42 -23z" />
    <glyph glyph-name="Odieresis" unicode="&#xd6;" horiz-adv-x="1042" 
d="M42 374c1 36 6 134 75 215c97 116 249 134 392 134c79 0 146 -5 173 -10c19 -3 39 -8 58 -13c30 -7 118 -28 185 -101c33 -36 83 -114 83 -243c0 -94 -27 -166 -43 -196c-39 -76 -109 -115 -133 -128c-56 -27 -149 -56 -296 -56c-18 0 -215 -3 -332 62
c-17 10 -54 33 -89 74c-31 36 -46 76 -58 121c-6 23 -18 76 -15 141zM335 356c-1 -93 30 -138 61 -164c39 -32 83 -42 133 -42c169 0 186 148 186 203c0 47 -11 107 -42 143c-14 17 -32 29 -52 39c-16 8 -51 21 -98 21c-23 0 -94 -3 -142 -59c-45 -54 -46 -120 -46 -141z
M238 874h236v-121h-236v121zM559 873h235v-121h-235v121z" />
    <glyph glyph-name="Udieresis" unicode="&#xdc;" horiz-adv-x="979" 
d="M54 701h282v-409c2 -43 6 -60 14 -77c17 -33 66 -62 149 -62c11 0 43 1 74 11c59 18 67 59 71 117v420h285v-463c-6 -61 -11 -105 -51 -153c-64 -76 -171 -91 -262 -104c-40 -2 -79 -5 -119 -5c-38 0 -75 3 -113 6c-26 2 -52 5 -77 10c-105 21 -162 61 -192 95
c-19 21 -28 39 -33 49c-14 31 -19 59 -22 126zM208 873h235v-121h-235v121zM530 873h235v-120h-235v120z" />
    <glyph glyph-name="adieresis" unicode="&#xe4;" horiz-adv-x="854" 
d="M311 376l-245 1c10 44 18 74 51 106c49 48 115 58 180 67c45 4 90 7 136 7c50 0 99 -5 149 -9c16 -3 32 -5 48 -9c26 -5 102 -23 141 -97c21 -40 23 -80 25 -125v-225c0 -42 1 -53 25 -89l-253 1c-14 28 -15 35 -20 65c-18 -18 -29 -30 -74 -48
c-64 -25 -137 -34 -206 -34c-21 0 -160 -3 -222 91c-8 12 -26 46 -26 89c0 26 9 82 68 120c43 29 91 35 141 42l236 14c12 1 24 2 36 4c14 1 27 4 34 16c4 5 5 10 5 16c0 14 -11 31 -38 38c-6 2 -51 9 -83 9c-42 0 -65 -9 -80 -20c-10 -7 -20 -20 -28 -30zM170 719h234v-132
h-234v132zM545 237l-161 -13c-19 -2 -43 -4 -59 -11c-22 -9 -30 -27 -29 -38c0 -8 6 -18 12 -25c22 -23 57 -23 88 -23c73 0 115 27 132 55c8 12 12 25 17 55zM493 722h232v-133h-232v133z" />
    <glyph glyph-name="aring" unicode="&#xe5;" horiz-adv-x="854" 
d="M311 377l-245 1c5 29 9 43 14 56c9 23 34 62 90 88c45 21 93 27 141 33c41 2 82 5 123 5c49 0 98 -5 147 -10c19 -3 38 -6 57 -10c24 -6 92 -24 130 -92c23 -43 26 -86 28 -133v-230c1 -39 3 -49 21 -83h-248c-15 27 -17 33 -22 65c-15 -15 -24 -22 -32 -27
c-40 -25 -129 -55 -249 -55c-179 0 -246 95 -246 181c0 14 2 46 24 79c41 60 118 72 183 82l233 16c13 1 26 2 39 4c5 0 24 1 34 14c2 2 7 9 7 17c-1 15 -14 28 -24 33c-18 10 -73 15 -95 15c-3 0 -57 0 -87 -22c-10 -7 -16 -16 -23 -27zM541 238l-158 -13s-43 -4 -62 -13
c-14 -7 -27 -19 -26 -36c0 -11 6 -19 9 -22c17 -19 40 -27 90 -27c48 0 95 9 126 46c23 28 22 49 21 65zM313 708c5 37 39 100 130 100c20 0 87 -1 121 -59c5 -8 17 -30 17 -58c0 -16 -4 -26 -6 -32c-11 -31 -45 -81 -125 -81c-11 0 -34 1 -60 10c-72 25 -81 91 -77 120z
M408 709c-2 -4 -4 -8 -4 -17c0 -21 21 -35 42 -35s42 14 42 35c0 20 -20 37 -42 37c-7 0 -28 -2 -38 -20z" />
    <glyph glyph-name="odieresis" unicode="&#xf6;" horiz-adv-x="875" 
d="M23 269c-1 37 5 134 83 207c81 76 210 86 314 86c101 0 208 -5 295 -57c11 -6 33 -19 55 -43c44 -47 67 -132 67 -196c0 -57 -19 -133 -54 -178c-10 -13 -28 -31 -61 -52c-86 -53 -191 -59 -290 -59c-22 0 -115 1 -195 20c-39 10 -133 36 -183 139c-11 21 -31 68 -31 133
zM152 720h230v-134h-230v134zM277 281c-3 -33 11 -59 17 -69c18 -32 57 -67 141 -67c15 0 57 0 93 26c31 22 52 61 52 100c0 23 -6 45 -19 65c-18 30 -53 63 -132 63c-50 -1 -96 -15 -127 -57c-19 -25 -24 -49 -25 -61zM706 721v-134h-233v134h233z" />
    <glyph glyph-name="udieresis" unicode="&#xfc;" horiz-adv-x="833" 
d="M301 543v-266c1 -21 3 -33 5 -41c20 -62 87 -64 103 -64c62 1 93 28 104 51c10 20 11 51 12 58v262h254v-543h-254v44c-74 -38 -120 -59 -203 -59c-14 0 -55 1 -96 11c-19 4 -105 27 -146 95c-24 40 -26 82 -27 99v353h248zM139 721h232v-131h-232v131zM460 722h233v-134
h-233v134z" />
    <glyph glyph-name="degree" unicode="&#xb0;" horiz-adv-x="354" 
d="M177 745c13 0 41 -1 71 -15c63 -27 101 -90 101 -157c0 -35 -9 -59 -15 -71c-27 -62 -90 -102 -157 -102c-21 0 -69 5 -112 42c-39 33 -60 80 -60 131c0 97 77 172 172 172zM177 630c-30 0 -55 -24 -55 -55s25 -56 56 -56c30 0 55 25 55 56s-25 55 -56 55z" />
    <glyph glyph-name="registered" unicode="&#xae;" horiz-adv-x="833" 
d="M612 128l-126 1c-18 39 -20 77 -27 119c-6 32 -8 48 -21 59c-17 14 -39 12 -59 13h-19v-192h-110v458h164c13 0 27 0 40 -1c72 -3 101 -19 123 -48c17 -22 25 -46 25 -74c0 -74 -58 -96 -79 -107c5 -3 10 -6 15 -10c29 -22 33 -63 34 -71c3 -13 11 -92 40 -147zM360 407
h49c44 0 64 0 77 24c2 3 7 13 7 26c0 3 -1 14 -6 23c-9 15 -25 22 -58 22h-69v-95zM773 351c0 -43 -9 -140 -85 -229c-94 -112 -221 -125 -271 -125c-79 0 -156 26 -218 73c-46 36 -138 126 -138 284c0 118 52 193 81 228c37 43 125 127 276 127c113 0 217 -50 286 -143
c47 -63 70 -137 69 -215zM741 352c0 35 -5 116 -63 195c-32 43 -114 130 -260 130c-34 0 -115 -5 -192 -62c-43 -31 -133 -115 -133 -262c0 -43 8 -84 24 -123c49 -122 169 -201 301 -201c20 0 60 2 109 19c130 46 213 168 214 304z" />
    <glyph glyph-name="copyright" unicode="&#xa9;" horiz-adv-x="833" 
d="M773 351c0 -43 -9 -140 -85 -229c-94 -112 -221 -125 -271 -125c-79 0 -156 26 -218 73c-46 36 -138 126 -138 284c0 118 52 193 81 228c37 43 125 127 276 127c113 0 217 -50 286 -143c47 -63 70 -137 69 -215zM741 352c0 35 -5 116 -63 195c-32 43 -114 130 -260 130
c-34 0 -115 -5 -192 -62c-43 -31 -133 -115 -133 -262c0 -43 8 -84 24 -123c49 -122 169 -201 301 -201c20 0 60 2 109 19c130 46 213 168 214 304zM620 519l-87 -84c-15 15 -51 50 -110 49c-9 0 -36 -1 -60 -12c-44 -22 -65 -70 -65 -118c1 -78 50 -129 128 -129
c59 1 91 30 107 46l87 -81c-54 -58 -115 -84 -195 -84c-18 0 -63 1 -109 20c-94 39 -141 130 -141 228c0 52 13 90 21 108c22 50 85 142 229 142c110 0 166 -54 195 -85z" />
    <glyph glyph-name="trademark" unicode="&#x2122;" horiz-adv-x="688" 
d="M674 374h-82l4 177c1 23 3 45 6 67c-5 -17 -9 -35 -14 -53l-56 -191h-75l-59 192c-2 8 -5 15 -7 22c-2 10 -4 20 -7 29c3 -22 6 -44 7 -66l5 -177h-82v332h106l76 -239l71 239h107v-332zM187 374h-85v265h-102v67h287v-67h-100v-265z" />
    <glyph glyph-name="plusminus" unicode="&#xb1;" horiz-adv-x="667" 
d="M398 162h-128v209h-228v127h228v208h128v-208h227v-127h-227v-209zM625 0h-583v127h583v-127z" />
    <glyph glyph-name="minus" unicode="&#x2212;" horiz-adv-x="667" 
d="M667 227h-667v127h667v-127z" />
    <glyph glyph-name="mu" unicode="&#xb5;" horiz-adv-x="562" 
d="M501 144l35 2c5 -14 15 -37 15 -73c0 -11 1 -52 -34 -73c-6 -4 -19 -11 -38 -11c-11 0 -23 3 -33 7c-29 11 -48 39 -55 68c-49 -70 -118 -79 -149 -79c-20 0 -69 5 -107 49c-2 -28 -6 -82 25 -146c27 -53 52 -72 52 -103c0 -7 -2 -15 -4 -20c-5 -9 -19 -27 -46 -27
s-44 16 -50 22c-27 31 -42 99 -42 193c0 49 4 126 12 174c-19 95 -23 232 -23 248c0 30 2 58 25 80c10 10 20 15 35 15c36 0 48 -38 51 -46c1 -7 3 -16 3 -32c0 -36 -26 -235 -31 -271c25 -59 60 -75 90 -75c13 0 32 3 55 23c47 40 62 107 62 230c0 34 -6 116 13 148
c13 21 34 23 43 23c7 0 22 -2 36 -13c19 -15 26 -42 26 -91c0 -30 -2 -59 -5 -88c-6 -60 -17 -116 -45 -170c8 -36 29 -48 46 -48c32 0 39 37 39 61c0 13 0 15 -1 23z" />
    <glyph glyph-name="brokenbar" unicode="&#xa6;" horiz-adv-x="229" 
d="M51 190h127v-381h-127v381zM51 308v381h127v-381h-127z" />
    <glyph glyph-name="multiply" unicode="&#xd7;" horiz-adv-x="667" 
d="M516 19l-183 182l-182 -182l-90 91l182 181l-182 183l90 88l182 -181l183 181l89 -88l-181 -183l181 -181z" />
    <glyph glyph-name="logicalnot" unicode="&#xac;" horiz-adv-x="667" 
d="M539 227h-539v127h667v-354h-128v227z" />
    <glyph glyph-name="divide" unicode="&#xf7;" horiz-adv-x="667" 
d="M414 110c-1 -45 -36 -80 -81 -79c-45 0 -81 33 -80 79c0 45 35 81 80 81s81 -35 81 -81zM414 468c-1 -44 -36 -79 -81 -79c-44 0 -81 34 -80 80c0 6 0 18 6 33c13 30 42 47 74 48c45 -1 81 -36 81 -82zM667 227h-667v127h667v-127z" />
    <glyph glyph-name="onefitted" unicode="&#xf6dc;" horiz-adv-x="521" 
d="M208 679h201v-678h-255v445l-39 -13l-98 -18v168c16 3 31 6 47 11c29 8 74 28 98 45c16 11 32 27 46 40z" />
    <glyph glyph-name="Ccedilla" unicode="&#xc7;" horiz-adv-x="1000" 
d="M987 429h-305c-13 39 -20 53 -31 69c-40 56 -119 59 -139 59c-16 0 -60 -1 -98 -27c-37 -24 -78 -77 -78 -179c0 -115 52 -157 96 -177c15 -7 48 -20 91 -20c11 0 34 0 61 9c58 18 76 56 96 110h314c-7 -38 -13 -60 -18 -77c-10 -29 -40 -103 -117 -150
c-26 -17 -57 -28 -65 -32c-98 -27 -143 -36 -245 -36c-57 0 -114 4 -171 8c-20 3 -41 7 -61 12c-30 6 -103 23 -168 81c-14 12 -44 41 -67 86c-14 29 -23 60 -32 92c-6 35 -11 63 -11 99s7 79 9 88c1 5 12 48 23 76c27 63 74 115 133 147c18 10 35 17 73 30
c74 20 114 29 252 29c52 0 103 -4 154 -9c40 -7 80 -15 116 -31c49 -21 92 -54 125 -96c39 -53 50 -97 63 -161zM411 13l222 -1v-42c0 -13 3 -50 -21 -84c-18 -24 -43 -34 -52 -38c-19 -7 -36 -8 -56 -11h-244v99c24 0 48 1 73 0c37 -1 51 2 63 16c16 18 16 38 15 61z" />
    <glyph glyph-name="Eacute" unicode="&#xc9;" horiz-adv-x="875" 
d="M59 701h764v-170h-488v-82h402v-173h-403v-100h519v-176h-794v701zM383 873h313l-141 -120h-248z" />
    <glyph glyph-name="Ntilde" unicode="&#xd1;" horiz-adv-x="1000" 
d="M59 701h322l302 -429v429h257v-701h-318c-25 34 -50 67 -73 102c-17 24 -34 49 -51 73c-17 25 -36 48 -54 73c-14 20 -28 42 -43 63c-13 19 -28 38 -41 58c-18 26 -35 54 -52 82l4 -451h-253v701zM615 872h166c-2 -6 -7 -33 -17 -53c-27 -55 -72 -69 -94 -72
c-13 -2 -25 -2 -51 -1l-161 22c-32 5 -40 3 -68 -15h-166c5 21 10 41 20 59c41 72 113 64 137 63l163 -20c35 -5 42 -3 71 17z" />
    <glyph glyph-name="aacute" unicode="&#xe1;" horiz-adv-x="854" 
d="M317 376h-247c2 11 4 21 7 31c5 20 14 52 52 83c57 47 130 54 201 62h153c29 -2 58 -4 86 -7c87 -10 168 -32 210 -117c14 -29 19 -53 22 -115v-212c0 -10 -1 -20 0 -30c1 -23 3 -36 26 -70h-254c-10 19 -15 26 -20 64c-20 -18 -45 -40 -103 -57c-19 -6 -97 -24 -172 -24
c-81 0 -142 20 -169 35c-12 7 -35 22 -55 52c-20 28 -31 60 -31 94c0 53 29 87 43 100c43 42 115 52 171 61l221 14c12 1 52 3 65 8c12 4 22 15 22 28c0 15 -8 31 -36 39c-9 3 -45 11 -77 11c-26 0 -46 -6 -56 -8c-2 -1 -23 -6 -34 -14c-10 -6 -18 -18 -25 -28zM549 233h-46
l-120 -11c-19 -2 -39 -3 -56 -10c-21 -10 -27 -28 -26 -37c0 -6 1 -13 9 -23c16 -19 40 -28 91 -28c13 0 58 0 96 22c14 9 28 21 35 34c8 13 11 23 17 53zM388 720h306l-147 -133h-249z" />
    <glyph glyph-name="agrave" unicode="&#xe0;" horiz-adv-x="854" 
d="M317 376h-247c2 11 4 21 7 31c5 20 14 52 52 83c57 47 130 54 201 62h153c29 -2 58 -4 86 -7c87 -10 168 -32 210 -117c14 -29 19 -53 22 -115v-212c0 -10 -1 -20 0 -30c1 -23 3 -36 26 -70h-254c-10 19 -15 26 -20 64c-20 -18 -45 -40 -103 -57c-19 -6 -97 -24 -172 -24
c-81 0 -142 20 -169 35c-12 7 -35 22 -55 52c-20 28 -31 60 -31 94c0 53 29 87 43 100c43 42 115 52 171 61l221 14c12 1 52 3 65 8c12 4 22 15 22 28c0 15 -8 31 -36 39c-9 3 -45 11 -77 11c-26 0 -46 -6 -56 -8c-2 -1 -23 -6 -34 -14c-10 -6 -18 -18 -25 -28zM549 233h-46
l-120 -11c-19 -2 -39 -3 -56 -10c-21 -10 -27 -28 -26 -37c0 -6 1 -13 9 -23c16 -19 40 -28 91 -28c13 0 58 0 96 22c14 9 28 21 35 34c8 13 11 23 17 53zM476 721l86 -131h-247l-150 131h311z" />
    <glyph glyph-name="acircumflex" unicode="&#xe2;" horiz-adv-x="854" 
d="M317 376h-247c2 11 4 21 7 31c5 20 14 52 52 83c57 47 130 54 201 62h153c29 -2 58 -4 86 -7c87 -10 168 -32 210 -117c14 -29 19 -53 22 -115v-212c0 -10 -1 -20 0 -30c1 -23 3 -36 26 -70h-254c-10 19 -15 26 -20 64c-20 -18 -45 -40 -103 -57c-19 -6 -97 -24 -172 -24
c-81 0 -142 20 -169 35c-12 7 -35 22 -55 52c-20 28 -31 60 -31 94c0 53 29 87 43 100c43 42 115 52 171 61l221 14c12 1 52 3 65 8c12 4 22 15 22 28c0 15 -8 31 -36 39c-9 3 -45 11 -77 11c-26 0 -46 -6 -56 -8c-2 -1 -23 -6 -34 -14c-10 -6 -18 -18 -25 -28zM549 233h-46
l-120 -11c-19 -2 -39 -3 -56 -10c-21 -10 -27 -28 -26 -37c0 -6 1 -13 9 -23c16 -19 40 -28 91 -28c13 0 58 0 96 22c14 9 28 21 35 34c8 13 11 23 17 53zM281 721h316l111 -132h-215l-65 63l-64 -62h-214z" />
    <glyph glyph-name="atilde" unicode="&#xe3;" horiz-adv-x="854" 
d="M317 376h-247c2 11 4 21 7 31c5 20 14 52 52 83c57 47 130 54 201 62h153c29 -2 58 -4 86 -7c87 -10 168 -32 210 -117c14 -29 19 -53 22 -115v-212c0 -10 -1 -20 0 -30c1 -23 3 -36 26 -70h-254c-10 19 -15 26 -20 64c-20 -18 -45 -40 -103 -57c-19 -6 -97 -24 -172 -24
c-81 0 -142 20 -169 35c-12 7 -35 22 -55 52c-20 28 -31 60 -31 94c0 53 29 87 43 100c43 42 115 52 171 61l221 14c12 1 52 3 65 8c12 4 22 15 22 28c0 15 -8 31 -36 39c-9 3 -45 11 -77 11c-26 0 -46 -6 -56 -8c-2 -1 -23 -6 -34 -14c-10 -6 -18 -18 -25 -28zM549 233h-46
l-120 -11c-19 -2 -39 -3 -56 -10c-21 -10 -27 -28 -26 -37c0 -6 1 -13 9 -23c16 -19 40 -28 91 -28c13 0 58 0 96 22c14 9 28 21 35 34c8 13 11 23 17 53zM548 729h161c-9 -44 -19 -82 -56 -111c-40 -32 -87 -32 -135 -30l-131 17c-20 3 -26 5 -36 5c-16 0 -24 -10 -35 -23
l-162 4c7 41 13 69 43 98c49 48 123 43 140 42l146 -20c3 0 14 -3 24 -3c12 1 21 4 41 21z" />
    <glyph glyph-name="ccedilla" unicode="&#xe7;" horiz-adv-x="854" 
d="M829 325h-259c-1 3 -9 20 -18 31c-17 22 -51 48 -117 48c-115 0 -147 -84 -147 -133c0 -12 2 -38 18 -66c17 -28 51 -64 128 -64c15 0 60 1 97 29c5 5 17 14 26 30c7 11 9 23 12 36h267c-1 -7 -6 -43 -16 -71c-10 -30 -38 -91 -113 -133c-22 -12 -37 -18 -82 -32
c-29 -6 -88 -20 -165 -20c-22 0 -45 1 -68 1c-15 0 -30 0 -44 1c-20 2 -40 4 -59 6l-54 12c-38 10 -124 34 -174 132c-11 23 -31 69 -31 133c0 95 40 161 61 187c13 16 38 42 83 64c19 9 43 18 64 25c23 5 47 10 71 13c22 3 80 7 144 7c40 0 80 -4 119 -8
c33 -6 63 -11 94 -23c129 -49 151 -158 163 -205zM338 13l222 -1v-42c0 -13 3 -50 -21 -84c-18 -24 -43 -34 -52 -38c-19 -7 -36 -8 -56 -11h-244v99c24 0 48 1 73 0c37 -1 51 2 63 16c16 18 16 38 15 61z" />
    <glyph glyph-name="eacute" unicode="&#xe9;" horiz-adv-x="854" 
d="M833 211h-542c13 -22 22 -35 29 -43c35 -38 98 -38 149 -38c44 0 60 7 97 31h265c-8 -20 -18 -47 -53 -81c-42 -40 -88 -57 -106 -64c-24 -8 -47 -15 -70 -21c-62 -14 -116 -16 -243 -12c-22 3 -44 5 -66 10c-66 13 -137 43 -186 91c-11 12 -33 35 -51 73
c-9 19 -26 62 -26 118c0 45 12 158 123 227c21 13 41 21 87 38c38 9 79 22 160 22c25 0 49 -2 74 -3c78 -5 108 -11 183 -37c17 -8 34 -17 50 -27c46 -29 81 -74 101 -125c23 -56 25 -99 25 -159zM285 341l295 1c-9 21 -18 36 -36 50c-21 15 -47 27 -100 27
c-49 0 -77 -5 -98 -14c-24 -11 -36 -22 -61 -64zM388 720h306l-147 -133h-249z" />
    <glyph glyph-name="egrave" unicode="&#xe8;" horiz-adv-x="854" 
d="M833 211h-542c13 -22 22 -35 29 -43c35 -38 98 -38 149 -38c44 0 60 7 97 31h265c-8 -20 -18 -47 -53 -81c-42 -40 -88 -57 -106 -64c-24 -8 -47 -15 -70 -21c-62 -14 -116 -16 -243 -12c-22 3 -44 5 -66 10c-66 13 -137 43 -186 91c-11 12 -33 35 -51 73
c-9 19 -26 62 -26 118c0 45 12 158 123 227c21 13 41 21 87 38c38 9 79 22 160 22c25 0 49 -2 74 -3c78 -5 108 -11 183 -37c17 -8 34 -17 50 -27c46 -29 81 -74 101 -125c23 -56 25 -99 25 -159zM285 341l295 1c-9 21 -18 36 -36 50c-21 15 -47 27 -100 27
c-49 0 -77 -5 -98 -14c-24 -11 -36 -22 -61 -64zM476 721l86 -131h-247l-150 131h311z" />
    <glyph glyph-name="ecircumflex" unicode="&#xea;" horiz-adv-x="854" 
d="M833 211h-542c13 -22 22 -35 29 -43c35 -38 98 -38 149 -38c44 0 60 7 97 31h265c-8 -20 -18 -47 -53 -81c-42 -40 -88 -57 -106 -64c-24 -8 -47 -15 -70 -21c-62 -14 -116 -16 -243 -12c-22 3 -44 5 -66 10c-66 13 -137 43 -186 91c-11 12 -33 35 -51 73
c-9 19 -26 62 -26 118c0 45 12 158 123 227c21 13 41 21 87 38c38 9 79 22 160 22c25 0 49 -2 74 -3c78 -5 108 -11 183 -37c17 -8 34 -17 50 -27c46 -29 81 -74 101 -125c23 -56 25 -99 25 -159zM285 341l295 1c-9 21 -18 36 -36 50c-21 15 -47 27 -100 27
c-49 0 -77 -5 -98 -14c-24 -11 -36 -22 -61 -64zM281 721h316l111 -132h-215l-65 63l-64 -62h-214z" />
    <glyph glyph-name="edieresis" unicode="&#xeb;" horiz-adv-x="854" 
d="M833 211h-542c13 -22 22 -35 29 -43c35 -38 98 -38 149 -38c44 0 60 7 97 31h265c-8 -20 -18 -47 -53 -81c-42 -40 -88 -57 -106 -64c-24 -8 -47 -15 -70 -21c-62 -14 -116 -16 -243 -12c-22 3 -44 5 -66 10c-66 13 -137 43 -186 91c-11 12 -33 35 -51 73
c-9 19 -26 62 -26 118c0 45 12 158 123 227c21 13 41 21 87 38c38 9 79 22 160 22c25 0 49 -2 74 -3c78 -5 108 -11 183 -37c17 -8 34 -17 50 -27c46 -29 81 -74 101 -125c23 -56 25 -99 25 -159zM285 341l295 1c-9 21 -18 36 -36 50c-21 15 -47 27 -100 27
c-49 0 -77 -5 -98 -14c-24 -11 -36 -22 -61 -64zM387 720v-132h-227v132h227zM478 720h230v-131h-230v131z" />
    <glyph glyph-name="iacute" unicode="&#xed;" horiz-adv-x="354" 
d="M55 541h250v-541h-250v541zM138 720h306l-147 -133h-249z" />
    <glyph glyph-name="igrave" unicode="&#xec;" horiz-adv-x="354" 
d="M55 541h250v-541h-250v541zM226 721l86 -131h-247l-150 131h311z" />
    <glyph glyph-name="icircumflex" unicode="&#xee;" horiz-adv-x="354" 
d="M55 541h250v-541h-250v541zM31 721h316l111 -132h-215l-65 63l-64 -62h-214z" />
    <glyph glyph-name="idieresis" unicode="&#xef;" horiz-adv-x="354" 
d="M55 541h250v-541h-250v541zM137 720v-132h-227v132h227zM228 720h230v-131h-230v131z" />
    <glyph glyph-name="ntilde" unicode="&#xf1;" horiz-adv-x="833" 
d="M54 542h253l1 -44c15 7 30 15 46 22c32 15 78 35 157 35c31 0 124 -1 200 -58c5 -4 26 -21 40 -40c19 -29 25 -62 30 -97v-360h-251v269c0 21 -1 36 -11 55c-6 11 -13 17 -16 20c-21 18 -58 25 -86 25c-59 0 -87 -27 -98 -49c-9 -20 -10 -53 -11 -58v-262h-254v542z
M538 729h161c-9 -44 -19 -82 -56 -111c-41 -32 -87 -32 -135 -30l-132 17c-19 3 -25 5 -36 5c-15 0 -23 -10 -34 -23l-162 4c6 41 12 69 42 98c50 48 123 43 141 42l146 -20c3 0 13 -3 23 -3c13 1 21 4 42 21z" />
    <glyph glyph-name="oacute" unicode="&#xf3;" horiz-adv-x="875" 
d="M30 274c1 36 10 135 90 206c38 33 83 50 99 55c55 18 114 26 233 26c19 0 38 -1 57 -1c25 -2 173 -5 262 -88c13 -13 34 -35 53 -75c18 -41 27 -86 27 -132c0 -130 -71 -200 -113 -228c-84 -55 -213 -60 -309 -60c-24 0 -49 1 -73 2c-33 3 -184 8 -271 117
c-54 67 -56 149 -55 178zM288 280c-2 -23 4 -46 16 -67c18 -32 56 -68 140 -68c47 0 90 13 120 48c9 11 29 38 29 78c0 34 -15 68 -39 90c-17 16 -54 38 -116 38c-21 0 -81 -2 -122 -53c-7 -9 -25 -33 -28 -66zM398 720h307l-148 -133h-248z" />
    <glyph glyph-name="ograve" unicode="&#xf2;" horiz-adv-x="875" 
d="M30 274c1 36 10 135 90 206c38 33 83 50 99 55c55 18 114 26 233 26c19 0 38 -1 57 -1c25 -2 173 -5 262 -88c13 -13 34 -35 53 -75c18 -41 27 -86 27 -132c0 -130 -71 -200 -113 -228c-84 -55 -213 -60 -309 -60c-24 0 -49 1 -73 2c-33 3 -184 8 -271 117
c-54 67 -56 149 -55 178zM288 280c-2 -23 4 -46 16 -67c18 -32 56 -68 140 -68c47 0 90 13 120 48c9 11 29 38 29 78c0 34 -15 68 -39 90c-17 16 -54 38 -116 38c-21 0 -81 -2 -122 -53c-7 -9 -25 -33 -28 -66zM487 721l85 -131h-246l-151 131h312z" />
    <glyph glyph-name="ocircumflex" unicode="&#xf4;" horiz-adv-x="875" 
d="M30 274c1 36 10 135 90 206c38 33 83 50 99 55c55 18 114 26 233 26c19 0 38 -1 57 -1c25 -2 173 -5 262 -88c13 -13 34 -35 53 -75c18 -41 27 -86 27 -132c0 -130 -71 -200 -113 -228c-84 -55 -213 -60 -309 -60c-24 0 -49 1 -73 2c-33 3 -184 8 -271 117
c-54 67 -56 149 -55 178zM288 280c-2 -23 4 -46 16 -67c18 -32 56 -68 140 -68c47 0 90 13 120 48c9 11 29 38 29 78c0 34 -15 68 -39 90c-17 16 -54 38 -116 38c-21 0 -81 -2 -122 -53c-7 -9 -25 -33 -28 -66zM292 721h315l111 -132h-215l-65 63l-63 -62h-215z" />
    <glyph glyph-name="otilde" unicode="&#xf5;" horiz-adv-x="875" 
d="M30 274c1 36 10 135 90 206c38 33 83 50 99 55c55 18 114 26 233 26c19 0 38 -1 57 -1c25 -2 173 -5 262 -88c13 -13 34 -35 53 -75c18 -41 27 -86 27 -132c0 -130 -71 -200 -113 -228c-84 -55 -213 -60 -309 -60c-24 0 -49 1 -73 2c-33 3 -184 8 -271 117
c-54 67 -56 149 -55 178zM288 280c-2 -23 4 -46 16 -67c18 -32 56 -68 140 -68c47 0 90 13 120 48c9 11 29 38 29 78c0 34 -15 68 -39 90c-17 16 -54 38 -116 38c-21 0 -81 -2 -122 -53c-7 -9 -25 -33 -28 -66zM558 729h162c-9 -44 -19 -82 -56 -111
c-41 -32 -88 -32 -136 -30l-131 17c-19 3 -25 5 -36 5c-15 0 -23 -10 -34 -23l-163 4c7 41 13 69 43 98c50 48 123 43 140 42l147 -20c2 0 13 -3 23 -3c12 1 21 4 41 21z" />
    <glyph glyph-name="uacute" unicode="&#xfa;" horiz-adv-x="833" 
d="M306 541v-239c0 -37 0 -72 25 -99c24 -26 54 -30 88 -30c9 0 40 0 66 14c42 22 44 58 45 102v251h252v-540h-252v44c-18 -9 -35 -18 -52 -25c-32 -15 -78 -33 -157 -33c-141 0 -218 62 -244 115c-17 34 -19 75 -22 115v325h251zM378 720h306l-148 -133h-248z" />
    <glyph glyph-name="ugrave" unicode="&#xf9;" horiz-adv-x="833" 
d="M306 541v-239c0 -37 0 -72 25 -99c24 -26 54 -30 88 -30c9 0 40 0 66 14c42 22 44 58 45 102v251h252v-540h-252v44c-18 -9 -35 -18 -52 -25c-32 -15 -78 -33 -157 -33c-141 0 -218 62 -244 115c-17 34 -19 75 -22 115v325h251zM466 721l85 -131h-246l-151 131h312z" />
    <glyph glyph-name="ucircumflex" unicode="&#xfb;" horiz-adv-x="833" 
d="M306 541v-239c0 -37 0 -72 25 -99c24 -26 54 -30 88 -30c9 0 40 0 66 14c42 22 44 58 45 102v251h252v-540h-252v44c-18 -9 -35 -18 -52 -25c-32 -15 -78 -33 -157 -33c-141 0 -218 62 -244 115c-17 34 -19 75 -22 115v325h251zM271 721h315l111 -132h-214l-65 63
l-64 -62h-215z" />
    <glyph glyph-name="Agrave" unicode="&#xc0;" 
d="M292 701h353l300 -701h-294l-26 66h-318l-29 -66h-281zM371 235l190 1c-13 35 -26 70 -39 106c-20 58 -39 117 -57 175c-44 -160 -60 -195 -94 -282zM529 870l75 -118h-246l-141 118h312z" />
    <glyph glyph-name="Atilde" unicode="&#xc3;" 
d="M292 701h353l300 -701h-294l-26 66h-318l-29 -66h-281zM371 235l190 1c-13 35 -26 70 -39 106c-20 58 -39 117 -57 175c-44 -160 -60 -195 -94 -282zM584 872h165c-1 -6 -7 -33 -17 -53c-26 -55 -71 -69 -94 -72c-12 -2 -25 -2 -51 -1l-160 22c-32 5 -40 3 -68 -15h-167
c6 21 11 41 21 59c40 72 113 64 136 63l164 -20c34 -5 41 -3 71 17z" />
    <glyph glyph-name="Otilde" unicode="&#xd5;" horiz-adv-x="1042" 
d="M42 374c7 134 56 201 99 241c69 65 170 108 372 108c32 0 63 -1 95 -3c39 -2 207 -6 313 -117c30 -32 53 -70 67 -111c8 -25 20 -68 20 -132c-1 -144 -43 -215 -87 -262c-9 -10 -33 -33 -66 -53c-56 -34 -159 -69 -314 -69c-81 0 -211 11 -288 40c-40 15 -77 37 -108 66
c-52 47 -111 132 -103 292zM335 356c-1 -93 30 -138 61 -164c39 -32 83 -42 133 -42c169 0 186 148 186 203c0 47 -11 107 -42 143c-14 17 -32 29 -52 39c-16 8 -51 21 -98 21c-23 0 -94 -3 -142 -59c-45 -54 -46 -120 -46 -141zM636 872h165c-1 -6 -7 -33 -16 -53
c-27 -55 -72 -69 -95 -72c-12 -2 -25 -2 -51 -1l-160 22c-32 5 -40 3 -68 -15h-167c6 21 11 41 21 59c40 72 113 64 136 63l164 -20c35 -5 41 -3 71 17z" />
    <glyph glyph-name="ydieresis" unicode="&#xff;" horiz-adv-x="750" 
d="M499 541h261c-19 -37 -39 -73 -57 -110c-25 -50 -49 -101 -74 -151c-19 -40 -40 -78 -59 -118c-66 -130 -51 -122 -133 -243c-17 -21 -28 -32 -37 -40c-43 -39 -92 -41 -112 -44h-210v153c44 1 79 2 95 5c46 9 61 56 65 68l-246 480h265c22 -48 44 -96 64 -145
c21 -51 41 -102 60 -153c18 52 36 104 56 155c19 48 40 96 62 143zM335 720v-132h-227v132h227zM426 720h230v-131h-230v131z" />
    <glyph glyph-name="Ydieresis" unicode="&#x178;" horiz-adv-x="896" 
d="M600 701h296l-301 -498v-203h-279v205l-314 496h318c27 -55 53 -110 78 -166c21 -49 40 -98 59 -146c23 57 46 115 72 171c22 48 46 94 71 141zM171 873h235v-120h-235v120zM493 873h232v-120h-232v120z" />
    <glyph glyph-name="Acircumflex" unicode="&#xc2;" 
d="M292 701h353l300 -701h-294l-26 66h-318l-29 -66h-281zM371 235l190 1c-13 35 -26 70 -39 106c-20 58 -39 117 -57 175c-44 -160 -60 -195 -94 -282zM305 872h338l98 -118h-209l-64 63l-61 -65h-212z" />
    <glyph glyph-name="Ecircumflex" unicode="&#xca;" horiz-adv-x="875" 
d="M59 701h764v-170h-488v-82h402v-173h-403v-100h519v-176h-794v701zM274 872h338l98 -118h-209l-64 63l-61 -65h-212z" />
    <glyph glyph-name="Aacute" unicode="&#xc1;" 
d="M292 701h353l300 -701h-294l-26 66h-318l-29 -66h-281zM371 235l190 1c-13 35 -26 70 -39 106c-20 58 -39 117 -57 175c-44 -160 -60 -195 -94 -282zM415 873h312l-141 -120h-248z" />
    <glyph glyph-name="Edieresis" unicode="&#xcb;" horiz-adv-x="875" 
d="M59 701h764v-170h-488v-82h402v-173h-403v-100h519v-176h-794v701zM160 873h236v-120h-236v120zM483 873h232v-120h-232v120z" />
    <glyph glyph-name="Egrave" unicode="&#xc8;" horiz-adv-x="875" 
d="M59 701h764v-170h-488v-82h402v-173h-403v-100h519v-176h-794v701zM498 870l75 -118h-246l-141 118h312z" />
    <glyph glyph-name="Iacute" unicode="&#xcd;" horiz-adv-x="396" 
d="M62 701h281v-701h-281v701zM144 873h312l-140 -120h-248z" />
    <glyph glyph-name="Icircumflex" unicode="&#xce;" horiz-adv-x="396" 
d="M62 701h281v-701h-281v701zM34 872h338l98 -118h-209l-64 63l-61 -65h-212z" />
    <glyph glyph-name="Idieresis" unicode="&#xcf;" horiz-adv-x="396" 
d="M62 701h281v-701h-281v701zM-79 873h235v-120h-235v120zM243 873h232v-120h-232v120z" />
    <glyph glyph-name="Igrave" unicode="&#xcc;" horiz-adv-x="396" 
d="M62 701h281v-701h-281v701zM258 870l75 -118h-246l-140 118h311z" />
    <glyph glyph-name="Oacute" unicode="&#xd3;" horiz-adv-x="1042" 
d="M42 374c7 134 56 201 99 241c69 65 170 108 372 108c32 0 63 -1 95 -3c39 -2 207 -6 313 -117c30 -32 53 -70 67 -111c8 -25 20 -68 20 -132c-1 -144 -43 -215 -87 -262c-9 -10 -33 -33 -66 -53c-56 -34 -159 -69 -314 -69c-81 0 -211 11 -288 40c-40 15 -77 37 -108 66
c-52 47 -111 132 -103 292zM335 356c-1 -93 30 -138 61 -164c39 -32 83 -42 133 -42c169 0 186 148 186 203c0 47 -11 107 -42 143c-14 17 -32 29 -52 39c-16 8 -51 21 -98 21c-23 0 -94 -3 -142 -59c-45 -54 -46 -120 -46 -141zM467 873h312l-140 -120h-249z" />
    <glyph glyph-name="Ocircumflex" unicode="&#xd4;" horiz-adv-x="1042" 
d="M42 374c7 134 56 201 99 241c69 65 170 108 372 108c32 0 63 -1 95 -3c39 -2 207 -6 313 -117c30 -32 53 -70 67 -111c8 -25 20 -68 20 -132c-1 -144 -43 -215 -87 -262c-9 -10 -33 -33 -66 -53c-56 -34 -159 -69 -314 -69c-81 0 -211 11 -288 40c-40 15 -77 37 -108 66
c-52 47 -111 132 -103 292zM335 356c-1 -93 30 -138 61 -164c39 -32 83 -42 133 -42c169 0 186 148 186 203c0 47 -11 107 -42 143c-14 17 -32 29 -52 39c-16 8 -51 21 -98 21c-23 0 -94 -3 -142 -59c-45 -54 -46 -120 -46 -141zM357 872h338l98 -118h-209l-64 63l-61 -65
h-212z" />
    <glyph glyph-name="Ograve" unicode="&#xd2;" horiz-adv-x="1042" 
d="M42 374c7 134 56 201 99 241c69 65 170 108 372 108c32 0 63 -1 95 -3c39 -2 207 -6 313 -117c30 -32 53 -70 67 -111c8 -25 20 -68 20 -132c-1 -144 -43 -215 -87 -262c-9 -10 -33 -33 -66 -53c-56 -34 -159 -69 -314 -69c-81 0 -211 11 -288 40c-40 15 -77 37 -108 66
c-52 47 -111 132 -103 292zM335 356c-1 -93 30 -138 61 -164c39 -32 83 -42 133 -42c169 0 186 148 186 203c0 47 -11 107 -42 143c-14 17 -32 29 -52 39c-16 8 -51 21 -98 21c-23 0 -94 -3 -142 -59c-45 -54 -46 -120 -46 -141zM581 870l75 -118h-246l-141 118h312z" />
    <glyph glyph-name="Uacute" unicode="&#xda;" horiz-adv-x="979" 
d="M54 701h282v-409c0 -28 1 -51 14 -76c27 -52 102 -63 153 -63c10 0 65 0 100 24c7 5 17 13 26 30c9 19 13 34 15 73v421h285v-464c-2 -16 -3 -32 -5 -47c-4 -26 -13 -75 -62 -122c-71 -65 -173 -77 -262 -88c-36 -2 -71 -4 -107 -4c-38 0 -75 3 -112 6c-17 1 -33 2 -50 4
c-37 6 -106 27 -139 43c-41 19 -86 56 -106 98c-13 27 -18 66 -26 133zM435 873h313l-141 -120h-248z" />
    <glyph glyph-name="Ucircumflex" unicode="&#xdb;" horiz-adv-x="979" 
d="M54 701h282v-409c0 -28 1 -51 14 -76c27 -52 102 -63 153 -63c10 0 65 0 100 24c7 5 17 13 26 30c9 19 13 34 15 73v421h285v-464c-2 -16 -3 -32 -5 -47c-4 -26 -13 -75 -62 -122c-71 -65 -173 -77 -262 -88c-36 -2 -71 -4 -107 -4c-38 0 -75 3 -112 6c-17 1 -33 2 -50 4
c-37 6 -106 27 -139 43c-41 19 -86 56 -106 98c-13 27 -18 66 -26 133zM326 872h338l98 -118h-209l-64 63l-61 -65h-212z" />
    <glyph glyph-name="Ugrave" unicode="&#xd9;" horiz-adv-x="979" 
d="M54 701h282v-409c0 -28 1 -51 14 -76c27 -52 102 -63 153 -63c10 0 65 0 100 24c7 5 17 13 26 30c9 19 13 34 15 73v421h285v-464c-2 -16 -3 -32 -5 -47c-4 -26 -13 -75 -62 -122c-71 -65 -173 -77 -262 -88c-36 -2 -71 -4 -107 -4c-38 0 -75 3 -112 6c-17 1 -33 2 -50 4
c-37 6 -106 27 -139 43c-41 19 -86 56 -106 98c-13 27 -18 66 -26 133zM550 870l75 -118h-246l-141 118h312z" />
  </font>
</defs>
</svg>
