<svg width="640" height="480" xmlns="http://www.w3.org/2000/svg" xmlns:svg="http://www.w3.org/2000/svg" stroke="null" style="vector-effect: non-scaling-stroke;">
 <!-- Created with SVG-edit - http://svg-edit.googlecode.com/ -->
 <g stroke="null">
  <title stroke="null">Layer 1</title>
  <path stroke="#f21f0c" transform="rotate(-2.549360990524292 385.4519348144526,303.09783935546847) " fill="#e74c3c" d="m-101.196066,370.695438c23.164462,-8.51806 64.484855,-30.974763 64.046633,-31.594243c-0.438222,-0.61948 110.625935,-38.873344 110.187713,-39.492823c-0.438222,-0.61948 76.818341,-19.514116 76.380119,-20.133596c-0.438222,-0.61948 78.070474,-8.672949 77.632252,-9.292429c-0.438222,-0.61948 68.053409,0.61948 67.615188,0c-0.438222,-0.61948 60.54061,13.009385 60.102389,12.389905c-0.438222,-0.61948 41.758614,8.363171 41.320392,7.743691c-0.438222,-0.61948 39.880414,2.942587 39.442193,2.323107c-0.438222,-0.61948 30.489416,-2.477997 30.051194,-3.097476c-0.438222,-0.61948 37.376148,-8.672949 36.937927,-9.292429c-0.438222,-0.61948 40.506481,-15.642271 40.068259,-16.261751c-0.438222,-0.61948 41.758614,-24.160331 41.320392,-24.779811c-0.438222,-0.61948 41.758614,-32.678391 41.320392,-33.297871c-0.438222,-0.61948 34.245815,-35.775867 33.807594,-36.395347c-0.438222,-0.61948 24.22875,-29.580914 23.790529,-30.200394c-0.438222,-0.61948 17.968085,-28.032176 17.529863,-28.651656c-0.438222,-0.61948 66.175209,-96.176656 65.736988,-96.796136c-0.438222,-0.61948 116.8866,23.850552 116.448379,23.231073c-0.438222,-0.61948 9.82922,84.251341 9.390998,83.631861c-0.438222,-0.61948 -30.239039,122.969795 -30.239039,124.518533c0,1.548738 -70.119454,214.500236 -71.997653,214.500236c-1.8782,0 -143.995307,105.314242 -154.012372,105.314242c-10.017065,0 -364.370733,11.615536 -367.501066,13.164274c-3.130333,1.548738 -354.353668,14.713013 -354.79189,14.093486c-0.438222,-0.619526 -34.621505,-47.391403 -34.43366,-48.010883c0.187845,-0.61948 1.064288,-160.44929 1.252133,-161.068769c0.187845,-0.61948 18.594152,-12.544795 18.594152,-12.544795z" id="svg_2" fill-opacity="0.2"/>
  
 </g>
</svg>